<svg width="48" height="48" viewBox="0 0 48 48" fill="none" xmlns="http://www.w3.org/2000/svg">
<path d="M7.57959 20.6325C7.60757 22.1346 7.72651 23.581 7.9224 25.0692C8.87386 31.4322 12.4628 38.6367 22.3133 43.6923C23.1109 44.1026 24.0483 44.1026 24.8459 43.6923C34.6963 38.6436 38.2853 31.4322 39.2368 25.0692C39.4397 23.581 39.5516 22.1346 39.5796 20.6325V11.8425C39.5796 10.4656 38.7121 9.2347 37.4108 8.76878L24.699 4.19298C23.9714 3.93567 23.1808 3.93567 22.4602 4.19298L9.74837 8.76878C8.4471 9.2347 7.57959 10.4656 7.57959 11.8425V20.6325Z" fill="#1967D2"/>
<mask id="mask0_7709_115813" style="mask-type:luminance" maskUnits="userSpaceOnUse" x="7" y="4" width="33" height="40">
<path d="M7.58105 20.6325C7.60904 22.1346 7.72797 23.581 7.92386 25.0692C8.87533 31.4322 12.4643 38.6367 22.3148 43.6923C23.1123 44.1026 24.0498 44.1026 24.8473 43.6923C34.6978 38.6436 38.2868 31.4322 39.2383 25.0692C39.4411 23.581 39.5531 22.1346 39.5811 20.6325V11.8425C39.5811 10.4656 38.7135 9.2347 37.4123 8.76878L24.7004 4.19298C23.9728 3.93567 23.1823 3.93567 22.4617 4.19298L9.74984 8.76878C8.44857 9.2347 7.58105 10.4656 7.58105 11.8425V20.6325Z" fill="white"/>
</mask>
<g mask="url(#mask0_7709_115813)">
<path d="M23.5802 3.54684H3.45947V44.4509H23.5802V3.54684Z" fill="#185ABC"/>
</g>
<path d="M23.5817 23.7962H28.8497C28.4719 25.9798 26.576 27.5793 23.7776 27.5793C20.7063 27.5793 18.2227 24.9993 18.2227 21.9534C18.2227 18.9075 20.7133 16.3275 23.7776 16.3275C25.1558 16.3275 26.3941 16.8004 27.3735 17.7253L30.046 15.0688C28.4229 13.5667 26.3031 12.6418 23.7776 12.6418C18.6005 12.6418 14.4028 16.8143 14.4028 21.9603C14.4028 27.1064 18.6005 31.2788 23.7776 31.2788C28.9546 31.2788 32.7535 27.4958 32.7535 22.1759C32.7535 21.4944 32.6905 20.8407 32.5786 20.2149H23.5747V23.8032L23.5817 23.7962Z" fill="#E8F0FE"/>
</svg>
