<svg width="24" height="24" viewBox="0 0 24 24" fill="none" xmlns="http://www.w3.org/2000/svg">
<mask id="mask0_4777_38490" style="mask-type:luminance" maskUnits="userSpaceOnUse" x="2" y="2" width="20" height="20">
<path fill-rule="evenodd" clip-rule="evenodd" d="M12 22C6.47715 22 2 17.5228 2 12C2 6.47715 6.47715 2 12 2C17.5228 2 22 6.47715 22 12C22 17.5228 17.5228 22 12 22ZM13.9134 16.6194C13.3068 16.8707 12.6566 17 12 17C10.6739 17 9.40216 16.4732 8.46447 15.5355C7.52679 14.5978 7 13.3261 7 12C7 10.6739 7.52679 9.40213 8.46447 8.46445C9.40216 7.52676 10.6739 7 12 7C12.6566 7 13.3068 7.12932 13.9134 7.38058C14.5201 7.63187 15.0712 8.00016 15.5355 8.46445C15.9998 8.92874 16.3681 9.47995 16.6194 10.0866C16.8707 10.6932 17 11.3434 17 12C17 12.6566 16.8707 13.3068 16.6194 13.9134C16.3681 14.52 15.9998 15.0712 15.5355 15.5355C15.0712 15.9998 14.5201 16.3681 13.9134 16.6194Z" fill="white"/>
</mask>
<g mask="url(#mask0_4777_38490)">
<path d="M20.6559 6.99955C19.7782 5.4795 18.5158 4.21721 16.9957 3.33963C15.4756 2.46203 13.7512 2 11.9959 2C10.2406 2 8.51628 2.46203 6.99615 3.33963C5.47602 4.21721 4.21365 5.4795 3.33594 6.99955L3.93594 17.7996L20.6559 6.99955Z" fill="url(#paint0_linear_4777_38490)"/>
<path d="M7.66974 14.5L3.33974 7C2.46208 8.52016 2.00001 10.2446 2 11.9999C1.99999 13.7553 2.46203 15.4797 3.33969 16.9999C4.21735 18.5201 5.47969 19.7824 6.99982 20.6602C8.51998 21.5378 10.2444 21.9999 11.9997 22L21.7997 12L7.66974 14.5Z" fill="url(#paint1_linear_4777_38490)"/>
<path d="M16.33 14.5L12 22C13.7552 21.9996 15.4793 21.5372 16.9992 20.6594C18.5191 19.7816 19.7812 18.5191 20.6586 16.999C21.536 15.4789 21.9978 13.7546 21.9977 11.9994C21.9977 10.2442 21.5356 8.52003 20.658 7H12L16.33 14.5Z" fill="url(#paint2_linear_4777_38490)"/>
</g>
<path d="M11.9991 15.9593C12.5191 15.9593 13.034 15.8569 13.5145 15.6578C13.995 15.4588 14.4315 15.1671 14.7992 14.7994C15.1669 14.4317 15.4586 13.9951 15.6576 13.5147C15.8566 13.0342 15.9591 12.5193 15.9591 11.9993C15.9591 11.4792 15.8566 10.9643 15.6576 10.4839C15.4586 10.0034 15.1669 9.56685 14.7992 9.19912C14.4315 8.83141 13.995 8.53972 13.5145 8.3407C13.034 8.1417 12.5191 8.03928 11.9991 8.03928C10.9488 8.03928 9.94156 8.45649 9.19893 9.19912C8.45627 9.94178 8.03906 10.949 8.03906 11.9993C8.03906 13.0495 8.45627 14.0568 9.19893 14.7994C9.94156 15.5421 10.9488 15.9593 11.9991 15.9593Z" fill="#1A73E8"/>
<defs>
<linearGradient id="paint0_linear_4777_38490" x1="3.33794" y1="8.24955" x2="20.6559" y2="8.24955" gradientUnits="userSpaceOnUse">
<stop stop-color="#D93025"/>
<stop offset="1" stop-color="#EA4335"/>
</linearGradient>
<linearGradient id="paint1_linear_4777_38490" x1="13.0817" y1="21.374" x2="4.42174" y2="6.374" gradientUnits="userSpaceOnUse">
<stop stop-color="#1E8E3E"/>
<stop offset="1" stop-color="#34A853"/>
</linearGradient>
<linearGradient id="paint2_linear_4777_38490" x1="10.54" y1="22" x2="19.2" y2="7.026" gradientUnits="userSpaceOnUse">
<stop stop-color="#FCC934"/>
<stop offset="1" stop-color="#FBBC04"/>
</linearGradient>
</defs>
</svg>
