<svg width="24" height="24" viewBox="0 0 24 24" fill="none" xmlns="http://www.w3.org/2000/svg">
<path d="M14.2347 10.55L17.3934 8.14376L18.7959 5.11751C17.8622 3.33501 16.2497 1.96251 14.3109 1.35376L11.3959 3.32251L9.74219 6.78626C10.2797 6.13501 11.0859 5.72501 11.9922 5.72501C13.6197 5.72501 14.9209 7.04126 14.9209 8.65376C14.9197 9.37501 14.6597 10.04 14.2347 10.55Z" fill="#4285F4"/>
<path d="M11.9923 1C9.62984 1 7.53609 2.06125 6.12109 3.745L7.46859 5.9525L9.74359 6.7875C9.75734 6.77375 14.3136 1.355 14.3136 1.355C13.5773 1.1275 12.7986 1 11.9923 1Z" fill="#1A73E8"/>
<path d="M14.2334 10.5501C13.6959 11.1863 12.8959 11.5976 11.9897 11.5976C10.3622 11.5976 9.06094 10.2813 9.06094 8.66885C9.06094 7.9751 9.34344 7.2826 9.73969 6.7876L6.38344 9.1876L5.08594 12.3326C5.89219 14.0863 7.22219 15.5013 8.59469 17.2701L12.1922 14.4076L14.2334 10.5501Z" fill="#FBBC04"/>
<path d="M19.6725 8.66868C19.6725 7.38118 19.3475 6.17868 18.795 5.11743L8.59375 17.2699C9.04625 17.8499 9.485 18.4724 9.92375 19.1512C11.4813 21.5574 11.0138 22.9999 12.005 22.9999C13.01 22.9999 12.5713 21.5574 14.1275 19.1512C16.6875 15.1474 19.6725 13.3224 19.6725 8.66868Z" fill="#34A853"/>
<path d="M9.74297 6.78628L6.12047 3.74503C5.00297 5.07503 4.32422 6.80128 4.32422 8.66878C4.32422 10.1113 4.60672 11.2863 5.08797 12.3325L9.74297 6.78628Z" fill="#EA4335"/>
</svg>
