<svg width="25" height="24" viewBox="0 0 25 24" fill="none" xmlns="http://www.w3.org/2000/svg">
<g clip-path="url(#clip0_4777_76165)">
<path d="M15.4306 17.6798V19.7774C15.4306 21.0046 14.4386 22 13.2148 22C11.991 22 10.999 21.0057 10.999 19.7774V14.2857L15.4306 17.6798Z" fill="#34A853"/>
<path d="M15.4306 4.2226V17.6798L10.999 14.2857V8.93369L14.625 5.93613C15.1567 5.49752 15.4306 4.86233 15.4306 4.2226Z" fill="url(#paint0_linear_4777_76165)"/>
<path d="M15.4295 4.14533C15.4306 4.17033 15.4306 4.19533 15.4306 4.22146C15.4306 4.8612 15.1567 5.49639 14.625 5.935L10.999 8.93256V4.2226C10.999 3.49537 11.3479 2.84768 11.8899 2.44202C11.9285 2.41248 11.9672 2.38521 12.0092 2.35907C12.0285 2.34657 12.0467 2.33407 12.066 2.32271C12.1012 2.29998 12.1387 2.27953 12.1728 2.26135L12.2705 2.21249L12.3524 2.17499C12.3853 2.16135 12.4183 2.14772 12.4535 2.13522C12.4864 2.12272 12.5217 2.11136 12.5558 2.09999C12.6194 2.08068 12.6842 2.0625 12.7512 2.04886C12.7705 2.04432 12.791 2.04091 12.8126 2.03636C12.8273 2.03409 12.8421 2.03182 12.8569 2.02954C12.883 2.025 12.9091 2.02159 12.9353 2.01818C12.966 2.01364 12.9966 2.01023 13.0285 2.00795C13.0535 2.00568 13.0785 2.00341 13.1035 2.00227C13.1398 2.00114 13.1773 2 13.2148 2H13.2159C13.2966 2 13.375 2.00455 13.4546 2.0125C13.4932 2.01704 13.533 2.02273 13.5739 2.02954C13.6125 2.03523 13.6511 2.04318 13.6921 2.05227C13.7307 2.06022 13.7693 2.07045 13.808 2.08181C13.8398 2.08977 13.8727 2.09999 13.9045 2.11136C13.967 2.13181 14.0295 2.15454 14.0886 2.18067C14.1182 2.19317 14.1477 2.20681 14.1773 2.22044C14.2148 2.23862 14.2522 2.25794 14.2886 2.27726C14.3432 2.30794 14.3954 2.33975 14.4477 2.37498C14.4534 2.37952 14.4591 2.38293 14.4647 2.38634C14.5204 2.42498 14.5738 2.46702 14.6272 2.5102C14.6534 2.53292 14.6795 2.55451 14.7056 2.57838L14.7079 2.58065C14.7329 2.60451 14.7579 2.62837 14.7829 2.65337C14.8079 2.67837 14.8329 2.70451 14.8568 2.7295C14.9056 2.78177 14.9499 2.83745 14.992 2.89427C15.0215 2.9329 15.0488 2.97381 15.0749 3.01358C15.0874 3.0329 15.0999 3.05108 15.1113 3.07039C15.134 3.10562 15.1545 3.14312 15.1727 3.17721C15.1863 3.20448 15.2079 3.24879 15.2215 3.27493C15.234 3.3022 15.2465 3.32947 15.2579 3.35674C15.2715 3.38969 15.2851 3.42378 15.2976 3.45787C15.3101 3.49082 15.3215 3.52605 15.3317 3.56014C15.3465 3.609 15.359 3.65786 15.3704 3.70558C15.3772 3.72831 15.3817 3.7499 15.3851 3.77263C15.392 3.80444 15.3976 3.83512 15.4033 3.8658C15.4079 3.8908 15.4101 3.9158 15.4135 3.9408C15.4181 3.97148 15.4215 4.00216 15.4238 4.03398C15.426 4.05897 15.4283 4.08397 15.4295 4.10897C15.4283 4.12033 15.4295 4.13283 15.4295 4.14533Z" fill="#EA4335"/>
<path d="M11.8031 2.50679C11.8304 2.48406 11.8588 2.46247 11.8872 2.44202C11.3474 2.84768 10.9986 3.49423 10.9986 4.2226V8.93369L9.11687 10.4916C8.70553 10.8336 8.20783 10.9983 7.71127 10.9983C7.0738 10.9983 6.44088 10.7234 6.00455 10.1904C5.22845 9.24277 5.36254 7.84285 6.30453 7.06334L11.8031 2.50679Z" fill="#FBBC04"/>
</g>
<defs>
<linearGradient id="paint0_linear_4777_76165" x1="13.2148" y1="17.7843" x2="13.2148" y2="4.21725" gradientUnits="userSpaceOnUse">
<stop stop-color="#1A73E8"/>
<stop offset="1" stop-color="#4285F4"/>
</linearGradient>
<clipPath id="clip0_4777_76165">
<rect width="25" height="24" fill="white"/>
</clipPath>
</defs>
</svg>
