<svg version="1.1" id="Layer_1" xmlns="http://www.w3.org/2000/svg" x="0" y="0" viewBox="0 0 148 21" style="enable-background:new 0 0 148 21" xml:space="preserve">
  <style>
    .st0{fill-rule:evenodd;clip-rule:evenodd;fill:#3c4043}
  </style>
  <path class="st0" d="M31.8 10.3v1.6h3.9c-.1.9-.4 1.5-.9 2-.6.5-1.5 1.2-3 1.2-2.4 0-4.3-1.9-4.3-4.2 0-2.3 1.9-4.2 4.3-4.2 1.3 0 2.2.5 2.9 1.1l1.1-1.1c-1-.9-2.3-1.6-4.1-1.6-3.3 0-6 2.6-6 5.8 0 3.2 2.8 5.8 6 5.8 1.8 0 3.1-.6 4.2-1.6s1.4-2.5 1.4-3.7c0-.4 0-.7-.1-1h-5.4zM42.2 14.9c-1.2 0-2.2-.9-2.2-2.2 0-1.3 1-2.3 2.2-2.3 1.2 0 2.2.9 2.2 2.3 0 1.3-1 2.2-2.2 2.2zm0-5.9c-2.1 0-3.9 1.6-3.9 3.7s1.7 3.7 3.9 3.7c2.1 0 3.9-1.6 3.9-3.7 0-2.2-1.8-3.7-3.9-3.7zM59.2 14.9c-1.2 0-2.1-1-2.1-2.3 0-1.3.9-2.3 2.1-2.3 1.1 0 2.1 1 2.1 2.3-.1 1.4-1 2.3-2.1 2.3zm1.9-5.1c-.4-.4-1.2-.8-2.1-.8-1.9 0-3.6 1.6-3.6 3.7s1.7 3.7 3.6 3.7c.9 0 1.6-.4 2-.8h.1v.5c0 1.4-.8 2.2-2.1 2.2-1 0-1.7-.7-1.9-1.3l-1.5.6c.4 1 1.5 2.2 3.4 2.2 2 0 3.7-1.1 3.7-3.9V9.2h-1.6v.6zM50.8 14.9c-1.2 0-2.2-.9-2.2-2.3 0-1.3 1-2.3 2.2-2.3 1.2 0 2.2.9 2.2 2.3s-1 2.3-2.2 2.3zm0-5.9c-2.1 0-3.9 1.6-3.9 3.7s1.7 3.7 3.9 3.7c2.1 0 3.9-1.6 3.9-3.7 0-2.2-1.8-3.7-3.9-3.7zM64 16.4h1.7V5.2H64v11.2zM70.7 10.4c.7 0 1.3.3 1.5.8l-3.5 1.4c0-1.6 1.1-2.2 2-2.2zm.1 4.5c-.9 0-1.5-.4-1.9-1.1l5.1-2.1-.2-.4c-.2-.8-1.2-2.3-3.2-2.3S67 10.5 67 12.7c0 2.1 1.6 3.7 3.8 3.7 1.8 0 2.8-1 3.2-1.6l-1.3-.8c-.4.5-1 .9-1.9.9z"/>
  <path d="M81.3 16.5h-1.4V5.8h6.3v1.3h-4.9v3.5h4.4v1.3h-4.4v4.6zm7.6-9.2c-.2.2-.4.3-.7.3-.3 0-.5-.1-.7-.3s-.3-.4-.3-.7c0-.3.1-.5.3-.7.2-.2.4-.3.7-.3.3 0 .5.1.7.3.2.2.3.4.3.7 0 .3-.1.5-.3.7zm0 9.2h-1.4V9.1h1.4v7.4zm18.2-10.7-2.9 10.7h-1.4l-2.3-7.1h-.1l-2.3 7.1h-1.4l-3-10.7h1.4l2.3 8.4h.1l2.3-7h1.3l2.3 7h.1l2.1-8.4h1.5zm2.3 1.5c-.2.2-.4.3-.7.3-.3 0-.5-.1-.7-.3-.2-.2-.3-.4-.3-.7 0-.3.1-.5.3-.7.2-.2.4-.3.7-.3.3 0 .5.1.7.3.2.2.3.4.3.7 0 .3-.1.5-.3.7zm0 9.2H108V9.1h1.4v7.4zm3.2 0h-1.4V9.1h1.3v1.2h.1c.1-.4.4-.7.9-1 .4-.3.9-.4 1.3-.4s.8.1 1 .2l-.5 1.3c-.2-.1-.4-.1-.7-.1-.5 0-.9.2-1.3.6-.4.4-.6.9-.6 1.5v4.1zm6.9.2c-1.1 0-2-.4-2.7-1.1-.7-.7-1-1.7-1-2.8 0-1.1.3-2 1-2.8.7-.8 1.5-1.2 2.6-1.2s2 .4 2.6 1.1c.7.7 1 1.7 1 2.8v.3h-5.8c0 .7.3 1.3.7 1.8.5.4 1 .6 1.6.6 1 0 1.7-.4 2-1.3l1.2.5c-.2.6-.6 1.1-1.2 1.4-.5.5-1.2.7-2 .7zm2-4.8c0-.4-.2-.8-.6-1.2-.3-.4-.9-.6-1.6-.6-.5 0-1 .2-1.3.5-.4.3-.6.8-.8 1.3h4.3zm4.1 4.6h-1.4V5.8h1.4v10.7zm5 .2c-1.1 0-2-.4-2.7-1.1-.7-.7-1-1.7-1-2.8 0-1.1.3-2 1-2.8.7-.8 1.5-1.2 2.6-1.2s2 .4 2.6 1.1c.7.7 1 1.7 1 2.8v.3h-5.8c0 .7.3 1.3.7 1.8.5.4 1 .6 1.6.6 1 0 1.7-.4 2-1.3l1.2.5c-.2.6-.6 1.1-1.2 1.4-.6.5-1.2.7-2 .7zm1.9-4.8c0-.4-.2-.8-.6-1.2-.4-.4-.9-.6-1.6-.6-.5 0-1 .2-1.3.5-.4.3-.6.8-.8 1.3h4.3zm5.6 4.8c-.8 0-1.5-.2-2-.6-.5-.4-.9-.9-1.2-1.5l1.2-.5c.4.9 1.1 1.4 2 1.4.4 0 .8-.1 1.1-.3.3-.2.4-.4.4-.8 0-.5-.3-.8-1-1l-1.5-.4c-.5-.1-.9-.3-1.3-.7-.4-.3-.6-.8-.6-1.4 0-.7.3-1.2.9-1.6.6-.4 1.3-.6 2.1-.6.6 0 1.2.2 1.7.4.5.3.9.7 1.1 1.3l-1.2.5c-.3-.6-.8-1-1.7-1-.4 0-.8.1-1 .3-.3.2-.4.4-.4.7 0 .4.3.7 1 .9l1.5.3c.7.2 1.2.4 1.5.8.3.4.5.8.5 1.3 0 .7-.3 1.2-.8 1.6-.8.7-1.5.9-2.3.9zm6.8 0c-.8 0-1.5-.2-2-.6-.5-.4-.9-.9-1.2-1.5l1.2-.5c.4.9 1.1 1.4 2 1.4.4 0 .8-.1 1.1-.3.3-.2.4-.4.4-.8 0-.5-.3-.8-1-1l-1.5-.4c-.5-.1-.9-.3-1.3-.7-.4-.3-.6-.8-.6-1.4 0-.7.3-1.2.9-1.6.6-.4 1.3-.6 2.1-.6.6 0 1.2.2 1.7.4.5.3.9.7 1.1 1.3l-1.2.5c-.3-.6-.8-1-1.7-1-.4 0-.8.1-1 .3-.3.2-.4.4-.4.7 0 .4.3.7 1 .9l1.5.3c.7.2 1.2.4 1.5.8.3.4.5.8.5 1.3 0 .7-.3 1.2-.8 1.6-.8.7-1.5.9-2.3.9z" style="fill:#3c4043"/>
  <circle cx="1.9" cy="19.1" r="1.9" style="fill:#ea4335"/>
  <path d="M11.4 6.3H2.2C1 6.3 0 7.3 0 8.5c0 1.2 1 2.2 2.2 2.2h9.1c1.2 0 2.2-1 2.2-2.2.1-1.2-.9-2.2-2.1-2.2z" style="fill:#34a853"/>
  <circle cx="2.2" cy="8.5" style="fill:#137333" r="2.2"/>
  <path d="M6.4 12.1H2.1c-1.1 0-2.1.9-2.1 2s.9 2.1 2.1 2.1h4.3c1.1 0 2.1-.9 2.1-2.1-.1-1.1-1-2-2.1-2z" style="fill:#fbbc04"/>
  <circle cx="6.4" cy="14.1" r="2.1" style="fill:#ea8600"/>
  <path d="M16.9 0H2.4C1.1 0 0 1.1 0 2.4c0 1.3 1.1 2.4 2.4 2.4h14.5c1.3 0 2.4-1.1 2.4-2.4 0-1.3-1.1-2.4-2.4-2.4z" style="fill:#4285f4"/>
  <circle cx="16.9" cy="2.4" r="2.4" style="fill:#185abc"/>
</svg>
