<svg xmlns="http://www.w3.org/2000/svg" style="enable-background:new 0 0 123 18" xml:space="preserve" viewBox="0 0 123 18">
  <path d="M6.4 8.2v1.6h3.9c-.1.9-.4 1.5-.9 2-.6.5-1.5 1.2-3 1.2-2.4 0-4.3-1.9-4.3-4.2S4 4.6 6.4 4.6c1.3 0 2.2.5 2.9 1.1l1.1-1.1C9.4 3.7 8.1 3 6.3 3 3 3 .3 5.6.3 8.8s2.8 5.8 6 5.8c1.8 0 3.1-.6 4.2-1.6s1.4-2.5 1.4-3.7c0-.4 0-.7-.1-1H6.4v-.1zm10.4 4.6c-1.2 0-2.2-.9-2.2-2.2s1-2.3 2.2-2.3 2.2.9 2.2 2.3c0 1.3-1 2.2-2.2 2.2zm0-5.9c-2.1 0-3.9 1.6-3.9 3.7s1.7 3.7 3.9 3.7c2.1 0 3.9-1.6 3.9-3.7 0-2.2-1.8-3.7-3.9-3.7zm17 5.9c-1.2 0-2.1-1-2.1-2.3s.9-2.3 2.1-2.3c1.1 0 2.1 1 2.1 2.3-.1 1.4-1 2.3-2.1 2.3zm2-5.1c-.4-.4-1.2-.8-2.1-.8-1.9 0-3.6 1.6-3.6 3.7s1.7 3.7 3.6 3.7c.9 0 1.6-.4 2-.8h.1v.5c0 1.4-.8 2.2-2.1 2.2-1 0-1.7-.7-1.9-1.3l-1.5.6c.4 1 1.5 2.2 3.4 2.2 2 0 3.7-1.1 3.7-3.9V7.1h-1.6v.6zm-10.3 5.1c-1.2 0-2.2-.9-2.2-2.3 0-1.3 1-2.3 2.2-2.3s2.2.9 2.2 2.3-1 2.3-2.2 2.3zm0-5.9c-2.1 0-3.9 1.6-3.9 3.7s1.7 3.7 3.9 3.7c2.1 0 3.9-1.6 3.9-3.7 0-2.2-1.8-3.7-3.9-3.7zm13.2 7.4h1.7V3.1h-1.7c-.1 0-.1 11.2 0 11.2zm6.7-6c.7 0 1.3.3 1.5.8l-3.5 1.4c-.1-1.6 1-2.2 2-2.2zm.1 4.5c-.9 0-1.5-.4-1.9-1.1l5.1-2.1-.2-.4c-.2-.8-1.2-2.3-3.2-2.3s-3.6 1.5-3.6 3.7c0 2.1 1.6 3.7 3.8 3.7 1.8 0 2.8-1 3.2-1.6l-1.3-.8c-.5.5-1.1.9-1.9.9z" style="fill-rule:evenodd;clip-rule:evenodd;fill:#3c4043"/>
  <path d="M55.9 14.4h-1.4V3.7h6.3V5h-4.9v3.5h4.4v1.3h-4.4v4.6zm7.6-9.2c-.2.2-.4.3-.7.3s-.5-.1-.7-.3c-.2-.2-.3-.4-.3-.7 0-.3.1-.5.3-.7s.4-.3.7-.3.5.1.7.3.3.4.3.7-.1.5-.3.7zm0 9.2h-1.4V7h1.4v7.4zM81.8 3.7l-2.9 10.7h-1.4l-2.3-7.1H75l-2.3 7.1h-1.4l-3-10.7h1.4l2.3 8.4h.1l2.3-7h1.3l2.3 7h.1l2.1-8.4h1.6zm2.3 1.5c-.2.2-.4.3-.7.3-.3 0-.5-.1-.7-.3-.2-.2-.3-.4-.3-.7 0-.3.1-.5.3-.7.2-.2.4-.3.7-.3.3 0 .5.1.7.3s.3.4.3.7-.1.5-.3.7zm0 9.2h-1.4V7h1.4v7.4zm3.1 0h-1.4V7h1.3v1.2h.1c.1-.4.4-.7.9-1 .4-.3.9-.4 1.3-.4s.8.1 1 .2L90 8.3c-.2-.1-.4-.1-.7-.1-.5 0-.9.2-1.3.6-.4.4-.6.9-.6 1.5v4.1h-.2zm7 .2c-1.1 0-2-.4-2.7-1.1s-1-1.7-1-2.8.3-2 1-2.8 1.5-1.2 2.6-1.2 2 .4 2.6 1.1c.7.7 1 1.7 1 2.8v.3h-5.8c0 .7.3 1.3.7 1.8.5.4 1 .6 1.6.6 1 0 1.7-.4 2-1.3l1.2.5c-.2.6-.6 1.1-1.2 1.4-.6.5-1.3.7-2 .7zm2-4.8c0-.4-.2-.8-.6-1.2-.4-.4-.9-.6-1.6-.6-.5 0-1 .2-1.3.5-.4.3-.6.8-.8 1.3h4.3zm4 4.6h-1.4V3.7h1.4v10.7zm5 .2c-1.1 0-2-.4-2.7-1.1s-1-1.7-1-2.8.3-2 1-2.8 1.5-1.2 2.6-1.2 2 .4 2.6 1.1c.7.7 1 1.7 1 2.8v.3h-5.8c0 .7.3 1.3.7 1.8.5.4 1 .6 1.6.6 1 0 1.7-.4 2-1.3l1.2.5c-.2.6-.6 1.1-1.2 1.4-.6.5-1.2.7-2 .7zm2-4.8c0-.4-.2-.8-.6-1.2s-.9-.6-1.6-.6c-.5 0-1 .2-1.3.5-.4.3-.6.8-.8 1.3h4.3zm5.6 4.8c-.8 0-1.5-.2-2-.6s-.9-.9-1.2-1.5l1.2-.5c.4.9 1.1 1.4 2 1.4.4 0 .8-.1 1.1-.3.3-.2.4-.4.4-.8 0-.5-.3-.8-1-1l-1.5-.4c-.5-.1-.9-.3-1.3-.7-.4-.3-.6-.8-.6-1.4 0-.7.3-1.2.9-1.6s1.3-.6 2.1-.6c.6 0 1.2.2 1.7.4.5.3.9.7 1.1 1.3l-1.2.5c-.3-.6-.8-1-1.7-1-.4 0-.8.1-1 .3-.3.2-.4.4-.4.7 0 .4.3.7 1 .9l1.5.3c.7.2 1.2.4 1.5.8.3.4.5.8.5 1.3 0 .7-.3 1.2-.8 1.6-.9.7-1.6.9-2.3.9zm6.8 0c-.8 0-1.5-.2-2-.6s-.9-.9-1.2-1.5l1.2-.5c.4.9 1.1 1.4 2 1.4.4 0 .8-.1 1.1-.3.3-.2.4-.4.4-.8 0-.5-.3-.8-1-1l-1.5-.4c-.5-.1-.9-.3-1.3-.7-.4-.3-.6-.8-.6-1.4 0-.7.3-1.2.9-1.6s1.3-.6 2.1-.6c.6 0 1.2.2 1.7.4.5.3.9.7 1.1 1.3l-1.2.5c-.3-.6-.8-1-1.7-1-.4 0-.8.1-1 .3-.3.2-.4.4-.4.7 0 .4.3.7 1 .9l1.5.3c.7.2 1.2.4 1.5.8.3.4.5.8.5 1.3 0 .7-.3 1.2-.8 1.6-.9.7-1.6.9-2.3.9z" style="fill:#3c4043"/>
</svg>
