<svg width="32" height="32" viewBox="0 0 32 32" xmlns="http://www.w3.org/2000/svg">
    <path fill="#a5a39f" d="M16.11,0C9.56,0,4,5.59,4,12.2s6.44,14.02,10.77,19c.02.02.72.8,1.58.8h.08c.86,0,1.56-.78,1.57-.8,4.06-4.67,10-12.38,10-19S23.67,0,16.11,0ZM16.52,29.86s-.09.07-.13.1c-.05-.03-.1-.07-.13-.1l-.52-.6c-4.11-4.71-9.73-11.16-9.73-17.05,0-5.53,4.63-10.2,10.11-10.2,6.83,0,9.89,5.12,9.89,10.2,0,4.48-3.19,10.42-9.48,17.66ZM16.04,6.06c-3.31,0-6,2.69-6,6s2.69,6,6,6,6-2.69,6-6-2.69-6-6-6ZM16.04,16.06c-2.21,0-4.05-1.84-4.05-4.04s1.79-4,4-4,4,1.79,4,4-1.75,4.04-3.95,4.04Z" />
</svg>
