<svg width="24" height="24" viewBox="0 0 24 24" fill="none" xmlns="http://www.w3.org/2000/svg">
<path d="M12.9476 2.0027C12.6205 2.0027 12.2908 2.12164 12.0313 2.35951L4.70059 9.11173C4.43299 9.36041 4.28432 9.69289 4.2627 10.0335L8.88762 10.7633L12.9476 9.27121L14.0829 6.01674L12.9476 2V2.0027Z" fill="#4285F4"/>
<path d="M14.5501 15.7181L9.75488 22H12.2498C12.6715 22 13.0688 21.8027 13.3256 21.4675L17.7154 15.7181H14.5528H14.5501Z" fill="#BDC1C6"/>
<path d="M4.28125 17.4588C3.85957 17.4588 3.46222 17.6562 3.20543 17.9913L3 18.2589L4.35153 18.5617L5.14082 19.5969L6.77616 17.4588H4.28125Z" fill="#BDC1C6"/>
<path d="M12.9462 9.2739L4.26127 10.0389C4.24234 10.3551 4.33154 10.6795 4.53968 10.9498L7.07514 14.2718L7.76983 15.1801L10.6945 16.0586L12.9462 14.7233L14.0815 11.9959L12.9462 9.26849V9.2739Z" fill="#34A853"/>
<path d="M7.77148 15.1801L11.872 20.551C12.1423 20.9078 12.5451 21.0835 12.9478 21.0835L14.0831 17.8128L12.9478 14.7206L7.77148 15.1774V15.1801Z" fill="#FBBC04"/>
<path d="M12.2479 22C11.8262 22 11.4289 21.8026 11.1721 21.4675L8.51768 17.9913C8.26089 17.6562 7.86354 17.4588 7.44187 17.4588H4.2793C4.70097 17.4588 5.09832 17.6562 5.35511 17.9913L8.00951 21.4675C8.2663 21.8026 8.66365 22 9.08532 22H12.2479Z" fill="#DADCE0"/>
<path d="M21.6312 10.0362C21.6204 9.87671 21.5852 9.72534 21.5231 9.57937C21.4501 9.40638 21.3393 9.2469 21.1933 9.11445L13.8626 2.35952C13.6031 2.12165 13.2761 2.00272 12.9463 2.00272V9.27393L17.2901 10.793L21.6312 10.0389V10.0362Z" fill="#669DF6"/>
<path d="M21.6324 10.0362L12.9502 9.27121V14.7233L15.4559 16.0586L18.1265 15.1801L18.8212 14.2719L21.3567 10.9498C21.5621 10.6795 21.654 10.3551 21.6324 10.0389V10.0362Z" fill="#5BB974"/>
<path d="M12.9463 21.0863C13.349 21.0863 13.7518 20.9079 14.0221 20.5538L18.1226 15.1828L12.9463 14.7287V21.089V21.0863Z" fill="#FCC934"/>
</svg>
