<svg width="75" height="24" viewBox="0 0 75 24" fill="none" xmlns="http://www.w3.org/2000/svg">
<path fill-rule="evenodd" clip-rule="evenodd" d="M9.48757 18.6185C4.33344 18.6185 0 14.4414 0 9.30924C0 4.17811 4.33344 0 9.48757 0C12.3394 0 14.3685 1.11203 15.8973 2.56506L14.0952 4.35911C13.0003 3.33708 11.5177 2.54306 9.48757 2.54306C5.72469 2.54306 2.78248 5.56314 2.78248 9.30924C2.78248 13.0553 5.72469 16.0754 9.48757 16.0754C11.9285 16.0754 13.3188 15.0994 14.2088 14.2134C14.938 13.4873 15.4182 12.4423 15.6 11.0123H9.48757V8.46921H18.0862C18.1776 8.92323 18.2238 9.46824 18.2238 10.0583C18.2238 11.9663 17.6984 14.3274 16.0108 16.0074C14.3685 17.7104 12.2701 18.6185 9.48757 18.6185Z" fill="#5F6368"/>
<path fill-rule="evenodd" clip-rule="evenodd" d="M28.9229 12.625C28.9229 10.468 27.378 8.99192 25.586 8.99192C23.7949 8.99192 22.25 10.468 22.25 12.625C22.25 14.7591 23.7949 16.2581 25.586 16.2581C27.378 16.2581 28.9229 14.7591 28.9229 12.625ZM31.5206 12.625C31.5206 16.0761 28.8556 18.6192 25.586 18.6192C22.3173 18.6192 19.6523 16.0761 19.6523 12.625C19.6523 9.15092 22.3173 6.63086 25.586 6.63086C28.8556 6.63086 31.5206 9.15092 31.5206 12.625Z" fill="#5F6368"/>
<path fill-rule="evenodd" clip-rule="evenodd" d="M42.2276 12.625C42.2276 10.468 40.6827 8.99192 38.8907 8.99192C37.0996 8.99192 35.5537 10.468 35.5537 12.625C35.5537 14.7591 37.0996 16.2581 38.8907 16.2581C40.6827 16.2581 42.2276 14.7591 42.2276 12.625ZM44.8253 12.625C44.8253 16.0761 42.1603 18.6192 38.8907 18.6192C35.621 18.6192 32.957 16.0761 32.957 12.625C32.957 9.15092 35.621 6.63086 38.8907 6.63086C42.1603 6.63086 44.8253 9.15092 44.8253 12.625Z" fill="#5F6368"/>
<path fill-rule="evenodd" clip-rule="evenodd" d="M55.4712 12.6461C55.4712 10.535 54.0568 8.98997 52.2557 8.98997C50.4315 8.98997 48.9027 10.535 48.9027 12.6461C48.9027 14.7351 50.4315 16.2562 52.2557 16.2562C54.0568 16.2562 55.4712 14.7351 55.4712 12.6461ZM57.7976 6.99192V17.7552C57.7976 22.1823 55.1748 23.9993 52.0729 23.9993C49.1538 23.9993 47.3979 22.0463 46.736 20.4573L49.0393 19.5032C49.4501 20.4793 50.4536 21.6373 52.0729 21.6373C54.0568 21.6373 55.2893 20.4123 55.2893 18.1182V17.2552H55.1969C54.6043 17.9822 53.4641 18.6172 52.0277 18.6172C49.0172 18.6172 46.2578 16.0071 46.2578 12.6461C46.2578 9.26297 49.0172 6.62891 52.0277 6.62891C53.4641 6.62891 54.6043 7.26492 55.1969 7.96894H55.2893V6.99192H57.7976Z" fill="#5F6368"/>
<path fill-rule="evenodd" clip-rule="evenodd" d="M59.7891 18.2562H62.4349V0.636719H59.7891V18.2562Z" fill="#5F6368"/>
<path fill-rule="evenodd" clip-rule="evenodd" d="M66.5149 12.4421L71.8981 10.217C71.6008 9.46798 70.7118 8.94496 69.6631 8.94496C68.317 8.94496 66.4476 10.126 66.5149 12.4421ZM72.8323 14.5991L74.8855 15.9611C74.2245 16.9382 72.6274 18.6182 69.868 18.6182C66.4477 18.6182 63.9766 15.9841 63.9766 12.6241C63.9766 9.05897 66.4697 6.62891 69.5717 6.62891C72.6957 6.62891 74.2245 9.10397 74.7258 10.444L74.999 11.125L66.9479 14.4401C67.5647 15.6431 68.522 16.2562 69.868 16.2562C71.213 16.2562 72.1482 15.5981 72.8323 14.5991Z" fill="#5F6368"/>
</svg>
