<svg width="57" height="56" viewBox="0 0 57 56" fill="none" xmlns="http://www.w3.org/2000/svg">
<path d="M1 24.0725C1.03265 25.825 1.1714 27.5125 1.39994 29.2487C2.50998 36.6722 6.69713 45.0774 18.1893 50.9756C19.1198 51.4543 20.2135 51.4543 21.144 50.9756C32.6362 45.0855 36.8234 36.6722 37.9334 29.2487C38.1701 27.5125 38.3007 25.825 38.3333 24.0725V13.8175C38.3333 12.2111 37.3212 10.7751 35.8031 10.2315L20.9726 4.89311C20.1237 4.59292 19.2014 4.59292 18.3607 4.89311L3.53024 10.2315C2.0121 10.7751 1 12.2111 1 13.8175V24.0725Z" fill="#1967D2" style="fill:#1967D2;fill:color(display-p3 0.0980 0.4039 0.8235);fill-opacity:1;"/>
<mask id="mask0_1580_16394" style="mask-type:luminance" maskUnits="userSpaceOnUse" x="1" y="4" width="38" height="48">
<path d="M1 24.0686C1.03265 25.8211 1.1714 27.5086 1.39994 29.2448C2.50998 36.6683 6.69713 45.0735 18.1893 50.9717C19.1198 51.4504 20.2135 51.4504 21.144 50.9717C32.6362 45.0816 36.8234 36.6683 37.9334 29.2448C38.1701 27.5086 38.3007 25.8211 38.3333 24.0686V13.8136C38.3333 12.2072 37.3212 10.7712 35.8031 10.2276L20.9726 4.8892C20.1237 4.58902 19.2014 4.58902 18.3607 4.8892L3.53024 10.2276C2.0121 10.7712 1 12.2072 1 13.8136V24.0686Z" fill="white" style="fill:white;fill-opacity:1;"/>
</mask>
<g mask="url(#mask0_1580_16394)">
<path d="M19.6616 4.13672H-3.8125V51.8581H19.6616V4.13672Z" fill="#185ABC" style="fill:#185ABC;fill:color(display-p3 0.0941 0.3529 0.7373);fill-opacity:1;"/>
</g>
<path d="M19.6657 27.7595H25.8117C25.371 30.3071 23.159 32.1731 19.8942 32.1731C16.3111 32.1731 13.4135 29.1631 13.4135 25.6096C13.4135 22.056 16.3192 19.046 19.8942 19.046C21.5021 19.046 22.9468 19.5977 24.0895 20.6768L27.2074 17.5776C25.3138 15.8251 22.8407 14.7461 19.8942 14.7461C13.8543 14.7461 8.95703 19.614 8.95703 25.6177C8.95703 31.6214 13.8543 36.4893 19.8942 36.4893C25.9342 36.4893 30.3662 32.0757 30.3662 25.8692C30.3662 25.0741 30.2927 24.3115 30.1621 23.5813H19.6575V27.7677L19.6657 27.7595Z" fill="#E8F0FE" style="fill:#E8F0FE;fill:color(display-p3 0.9098 0.9412 0.9961);fill-opacity:1;"/>
</svg>
