<svg width="76" height="24" viewBox="0 0 76 24" fill="none" xmlns="http://www.w3.org/2000/svg">
<path fill-rule="evenodd" clip-rule="evenodd" d="M10.431 18.6185C5.28045 18.6185 0.950012 14.4414 0.950012 9.30924C0.950012 4.17811 5.28045 0 10.431 0C13.2808 0 15.3085 1.11203 16.8363 2.56506L15.0355 4.35911C13.9413 3.33708 12.4597 2.54306 10.431 2.54306C6.67073 2.54306 3.73057 5.56314 3.73057 9.30924C3.73057 13.0553 6.67073 16.0754 10.431 16.0754C12.8703 16.0754 14.2595 15.0994 15.1489 14.2134C15.8777 13.4873 16.3575 12.4423 16.5392 11.0123H10.431V8.46921H19.0236C19.115 8.92323 19.1611 9.46824 19.1611 10.0583C19.1611 11.9663 18.6361 14.3274 16.9497 16.0074C15.3085 17.7104 13.2116 18.6185 10.431 18.6185Z" fill="#5F6368"/>
<path fill-rule="evenodd" clip-rule="evenodd" d="M29.8544 12.6245C29.8544 10.4675 28.3105 8.99143 26.5197 8.99143C24.7299 8.99143 23.1861 10.4675 23.1861 12.6245C23.1861 14.7586 24.7299 16.2576 26.5197 16.2576C28.3105 16.2576 29.8544 14.7586 29.8544 12.6245ZM32.4502 12.6245C32.4502 16.0756 29.7871 18.6187 26.5197 18.6187C23.2533 18.6187 20.5902 16.0756 20.5902 12.6245C20.5902 9.15044 23.2533 6.63037 26.5197 6.63037C29.7871 6.63037 32.4502 9.15044 32.4502 12.6245Z" fill="#5F6368"/>
<path fill-rule="evenodd" clip-rule="evenodd" d="M43.1489 12.6245C43.1489 10.4675 41.605 8.99143 39.8142 8.99143C38.0244 8.99143 36.4796 10.4675 36.4796 12.6245C36.4796 14.7586 38.0244 16.2576 39.8142 16.2576C41.605 16.2576 43.1489 14.7586 43.1489 12.6245ZM45.7447 12.6245C45.7447 16.0756 43.0816 18.6187 39.8142 18.6187C36.5468 18.6187 33.8847 16.0756 33.8847 12.6245C33.8847 9.15044 36.5468 6.63037 39.8142 6.63037C43.0816 6.63037 45.7447 9.15044 45.7447 12.6245Z" fill="#5F6368"/>
<path fill-rule="evenodd" clip-rule="evenodd" d="M56.3822 12.6465C56.3822 10.5355 54.9688 8.99045 53.169 8.99045C51.3461 8.99045 49.8183 10.5355 49.8183 12.6465C49.8183 14.7356 51.3461 16.2566 53.169 16.2566C54.9688 16.2566 56.3822 14.7356 56.3822 12.6465ZM58.707 6.9924V17.7557C58.707 22.1828 56.0861 23.9998 52.9863 23.9998C50.0692 23.9998 48.3146 22.0468 47.653 20.4577L49.9548 19.5037C50.3653 20.4797 51.3681 21.6378 52.9863 21.6378C54.9688 21.6378 56.2005 20.4127 56.2005 18.1187V17.2557H56.1081C55.5159 17.9827 54.3766 18.6177 52.9411 18.6177C49.9327 18.6177 47.1752 16.0076 47.1752 12.6465C47.1752 9.26346 49.9327 6.62939 52.9411 6.62939C54.3766 6.62939 55.5159 7.26541 56.1081 7.96943H56.2005V6.9924H58.707Z" fill="#5F6368"/>
<path fill-rule="evenodd" clip-rule="evenodd" d="M60.6962 18.2552H63.3402V0.635742H60.6962V18.2552Z" fill="#5F6368"/>
<path fill-rule="evenodd" clip-rule="evenodd" d="M67.4198 12.4425L72.7992 10.2175C72.5021 9.46847 71.6137 8.94545 70.5657 8.94545C69.2206 8.94545 67.3525 10.1265 67.4198 12.4425ZM73.7328 14.5996L75.7846 15.9616C75.124 16.9387 73.528 18.6187 70.7705 18.6187C67.3526 18.6187 64.8832 15.9846 64.8832 12.6245C64.8832 9.05946 67.3746 6.62939 70.4744 6.62939C73.5962 6.62939 75.124 9.10446 75.625 10.4445L75.898 11.1255L67.8524 14.4406C68.4688 15.6436 69.4254 16.2566 70.7705 16.2566C72.1146 16.2566 73.0492 15.5986 73.7328 14.5996Z" fill="#5F6368"/>
</svg>
