<svg width="456" height="300" viewBox="0 0 456 300" fill="none" xmlns="http://www.w3.org/2000/svg">
<rect width="456" height="300" rx="48" fill="white"/>
<rect x="183.5" y="89.5" width="92" height="137" rx="9.5" fill="white" stroke="#1F1F1F"/>
<path d="M207 180H251.41" stroke="#1F1F1F" stroke-linecap="round"/>
<path d="M207 192H251.41" stroke="#1F1F1F" stroke-linecap="round"/>
<path d="M207 204H227.58" stroke="#1F1F1F" stroke-linecap="round"/>
<path d="M253.999 116.817C253.999 114.752 252.704 112.907 250.759 112.202L231.669 105.292C230.589 104.903 229.405 104.903 228.325 105.292L209.24 112.202C207.295 112.907 206 114.752 206 116.817V129.947C206.045 132.197 206.22 134.372 206.52 136.602C207.94 146.152 213.335 156.966 228.12 164.546C229.3 165.151 230.704 165.151 231.879 164.546C246.664 156.971 252.059 146.152 253.479 136.602C253.779 134.372 253.954 132.202 253.999 129.952V116.817Z" fill="#1967D2"/>
<mask id="mask0_2015_3639" style="mask-type:alpha" maskUnits="userSpaceOnUse" x="206" y="105" width="48" height="60">
<path d="M253.999 116.817C253.999 114.752 252.704 112.907 250.759 112.202L231.669 105.292C230.589 104.903 229.405 104.903 228.325 105.292L209.24 112.202C207.295 112.907 206 114.752 206 116.817V129.947C206.045 132.197 206.22 134.372 206.52 136.602C207.94 146.152 213.335 156.966 228.12 164.546C229.3 165.151 230.704 165.151 231.879 164.546C246.664 156.971 252.059 146.152 253.479 136.602C253.779 134.372 253.954 132.202 253.999 129.952V116.817Z" fill="#1967D2"/>
</mask>
<g mask="url(#mask0_2015_3639)">
<path d="M229.999 103.748H200V166.247H229.999V103.748Z" fill="#185ABC"/>
</g>
<path d="M230 134.775H237.865C237.3 138.06 234.465 140.465 230.295 140.465C225.71 140.465 221.995 136.59 221.995 132.005C221.995 127.42 225.71 123.545 230.295 123.545C232.36 123.545 234.205 124.255 235.665 125.645L239.66 121.65C237.235 119.39 234.07 118 230.295 118C222.565 118 216.295 124.27 216.295 132C216.295 139.73 222.565 145.999 230.295 145.999C238.38 145.999 243.705 140.315 243.705 132.32C243.705 131.295 243.615 130.315 243.445 129.375H230V134.775Z" fill="#E8F0FE"/>
<mask id="mask1_2015_3639" style="mask-type:alpha" maskUnits="userSpaceOnUse" x="216" y="118" width="28" height="28">
<path d="M229.999 134.775H237.864C237.299 138.06 234.464 140.465 230.294 140.465C225.709 140.465 221.994 136.59 221.994 132.005C221.994 127.42 225.709 123.545 230.294 123.545C232.359 123.545 234.204 124.255 235.664 125.645L239.659 121.65C237.234 119.39 234.069 118 230.294 118C222.564 118 216.294 124.27 216.294 132C216.294 139.73 222.564 145.999 230.294 145.999C238.379 145.999 243.704 140.315 243.704 132.32C243.704 131.295 243.614 130.315 243.444 129.375H229.999V134.775Z" fill="#E8F0FE"/>
</mask>
<g mask="url(#mask1_2015_3639)">
<path d="M229.999 117.004H214.999V147.003H229.999V117.004Z" fill="#D2E3FC"/>
</g>
<g filter="url(#filter0_b_2015_3639)">
<circle cx="160.5" cy="189.5" r="36.5" fill="white"/>
<circle cx="160.5" cy="189.5" r="37" stroke="#1F1F1F"/>
</g>
<mask id="mask2_2015_3639" style="mask-type:alpha" maskUnits="userSpaceOnUse" x="124" y="153" width="73" height="73">
<circle cx="160.5" cy="189.5" r="36.5" fill="#D2E3FC"/>
</mask>
<g mask="url(#mask2_2015_3639)">
<path d="M168.72 167.8H171.413C174.727 167.8 177.413 165.114 177.413 161.8V151.6H134.743C131.725 151.6 129.176 153.843 128.792 156.837L127.367 167.951C127.135 169.759 127.737 171.574 129.004 172.885L153.151 197.865C154.233 198.983 154.837 200.479 154.837 202.035V206.68C154.837 208.904 156.642 210.707 158.866 210.704C161.091 210.702 162.895 212.505 162.895 214.729V220C162.895 223.314 165.582 226 168.895 226H184C187.314 226 190 223.314 190 220V208.559C190 205.323 187.376 202.699 184.14 202.699C180.903 202.699 178.279 200.075 178.279 196.839V194.136C178.279 190.822 175.593 188.136 172.279 188.136H155.524C153.122 188.136 151.174 186.188 151.174 183.786C151.174 181.369 153.145 179.415 155.562 179.436L157.035 179.449C160.263 179.477 162.895 176.86 162.895 173.632C162.895 170.415 165.503 167.8 168.72 167.8Z" fill="#80DA88"/>
</g>
<path d="M311 160L297 181H325L311 160Z" fill="white"/>
<path d="M297 181L296.584 180.723L296.066 181.5H297V181ZM311 160L311.416 159.723C311.323 159.584 311.167 159.5 311 159.5C310.833 159.5 310.677 159.584 310.584 159.723L311 160ZM325 181V181.5H325.934L325.416 180.723L325 181ZM297.416 181.277L311.416 160.277L310.584 159.723L296.584 180.723L297.416 181.277ZM297 181.5H325V180.5H297V181.5ZM325.416 180.723L311.416 159.723L310.584 160.277L324.584 181.277L325.416 180.723Z" fill="#1F1F1F"/>
<mask id="path-18-inside-1_2015_3639" fill="white">
<path d="M297 180C295.895 180 294.987 180.899 295.125 181.995C295.566 185.503 297.16 188.787 299.686 191.314C302.687 194.314 306.757 196 311 196C315.243 196 319.313 194.314 322.314 191.314C324.84 188.787 326.434 185.503 326.875 181.995C327.013 180.899 326.105 180 325 180L311 180L297 180Z"/>
</mask>
<path d="M297 180C295.895 180 294.987 180.899 295.125 181.995C295.566 185.503 297.16 188.787 299.686 191.314C302.687 194.314 306.757 196 311 196C315.243 196 319.313 194.314 322.314 191.314C324.84 188.787 326.434 185.503 326.875 181.995C327.013 180.899 326.105 180 325 180L311 180L297 180Z" fill="#FCBD00" stroke="#1F1F1F" stroke-width="2" mask="url(#path-18-inside-1_2015_3639)"/>
<path d="M270 160L256 181H284L270 160Z" fill="white" stroke="#1F1F1F" stroke-linecap="round" stroke-linejoin="round"/>
<mask id="path-20-inside-2_2015_3639" fill="white">
<path d="M256 180C254.895 180 253.987 180.899 254.125 181.995C254.566 185.503 256.16 188.787 258.686 191.314C261.687 194.314 265.757 196 270 196C274.243 196 278.313 194.314 281.314 191.314C283.84 188.787 285.434 185.503 285.875 181.995C286.013 180.899 285.105 180 284 180L270 180L256 180Z"/>
</mask>
<path d="M256 180C254.895 180 253.987 180.899 254.125 181.995C254.566 185.503 256.16 188.787 258.686 191.314C261.687 194.314 265.757 196 270 196C274.243 196 278.313 194.314 281.314 191.314C283.84 188.787 285.434 185.503 285.875 181.995C286.013 180.899 285.105 180 284 180L270 180L256 180Z" fill="#FCBD00" stroke="#1F1F1F" stroke-width="2" mask="url(#path-20-inside-2_2015_3639)"/>
<path d="M290 215L290 149" stroke="#1F1F1F" stroke-linecap="round"/>
<path d="M270 160L311 160" stroke="#1F1F1F" stroke-linecap="round"/>
<circle cx="290" cy="146" r="3.5" fill="#FCBD00" stroke="#1F1F1F"/>
<path d="M301 226.5H301.5V226C301.5 222.95 300.288 220.025 298.132 217.868C295.975 215.712 293.05 214.5 290 214.5C286.95 214.5 284.025 215.712 281.868 217.868C279.712 220.025 278.5 222.95 278.5 226L278.5 226.5H279L301 226.5Z" fill="#FCBD00" stroke="#1F1F1F"/>
<path d="M114 190C114 164.043 135.043 143 161 143" stroke="#1F1F1F" stroke-linecap="round"/>
<rect x="153" y="130" width="8" height="8" rx="4" fill="#1F1F1F"/>
<path d="M268 80H269C277.837 80 285 87.1634 285 96V98" stroke="#1F1F1F" stroke-linecap="round"/>
<rect x="222" y="226" width="100" height="1" rx="0.5" fill="#1F1F1F"/>
<path d="M292.95 101.082C293.016 103.326 294.807 105.841 295.11 105.832C295.413 105.824 297.055 103.209 296.99 100.965C296.957 99.8436 296.027 98.9642 294.911 99.0011C293.791 99.0336 292.913 99.9655 292.95 101.082Z" fill="#1F1F1F"/>
<path d="M297.051 110.918C296.985 108.673 295.192 106.156 294.889 106.165C294.585 106.173 292.944 108.789 293.01 111.033C293.043 112.155 293.975 113.035 295.09 112.999C296.206 112.962 297.084 112.031 297.051 110.918Z" fill="#1F1F1F"/>
<path d="M290.08 108.05C292.32 107.985 294.832 106.192 294.823 105.888C294.814 105.585 292.202 103.94 289.962 104.005C288.842 104.037 287.964 104.969 288.001 106.086C288.029 107.203 288.96 108.083 290.08 108.05Z" fill="#1F1F1F"/>
<path d="M299.92 103.945C297.68 104.011 295.167 105.805 295.176 106.109C295.185 106.412 297.796 108.057 300.037 107.992C301.157 107.959 302.036 107.027 301.999 105.909C301.962 104.792 301.041 103.912 299.92 103.945Z" fill="#1F1F1F"/>
<defs>
<filter id="filter0_b_2015_3639" x="119" y="148" width="83" height="83" filterUnits="userSpaceOnUse" color-interpolation-filters="sRGB">
<feFlood flood-opacity="0" result="BackgroundImageFix"/>
<feGaussianBlur in="BackgroundImageFix" stdDeviation="2"/>
<feComposite in2="SourceAlpha" operator="in" result="effect1_backgroundBlur_2015_3639"/>
<feBlend mode="normal" in="SourceGraphic" in2="effect1_backgroundBlur_2015_3639" result="shape"/>
</filter>
</defs>
</svg>
