<svg width="24" height="24" viewBox="0 0 24 24" fill="none" xmlns="http://www.w3.org/2000/svg">
<path d="M6.5 6C9.5375 6 12 8.4625 12 11.5V12H1.5C1.22375 12 1 11.7762 1 11.5C1 8.4625 3.4625 6 6.5 6Z" fill="#FBBC04"/>
<path d="M18 6.5C18 9.5375 15.5375 12 12.5 12H12V1.5C12 1.22375 12.2237 1 12.5 1C15.5375 1 18 3.4625 18 6.5Z" fill="#EA4335"/>
<path d="M17.5 18C14.4625 18 12 15.5375 12 12.5V12H22.5C22.7762 12 23 12.2237 23 12.5C23 15.5375 20.5375 18 17.5 18Z" fill="#4285F4"/>
<path d="M6 17.5C6 14.4625 8.4625 12 11.5 12H12V22.5C12 22.7762 11.7762 23 11.5 23C8.4625 23 6 20.5375 6 17.5Z" fill="#34A853"/>
</svg>
