<svg id="Layer_1" data-name="Layer 1" xmlns="http://www.w3.org/2000/svg" xmlns:xlink="http://www.w3.org/1999/xlink" width="351.16" height="351.16" viewBox="0 0 351.16 351.16"><defs><style>.cls-1,.cls-10,.cls-13,.cls-19,.cls-32{fill:none;}.cls-2{clip-path:url(#clip-path);}.cls-3{fill:#fce8b2;}.cls-4{fill:#e0e9f0;}.cls-5{clip-path:url(#clip-path-2);}.cls-6{fill:#eaeaea;}.cls-7{fill:#b7e1cd;}.cls-8{fill:#434343;}.cls-25,.cls-9{fill:#fff;}.cls-10{stroke:#434343;stroke-width:0.35px;}.cls-10,.cls-25{stroke-linecap:round;stroke-linejoin:round;}.cls-11{fill:#bdbdbd;}.cls-12{fill:#cfd8dc;}.cls-13,.cls-19,.cls-32{stroke:#fff;stroke-miterlimit:10;}.cls-13{stroke-width:0.34px;}.cls-14{fill:#f1f2f2;}.cls-15{clip-path:url(#clip-path-3);}.cls-16{opacity:0.07;}.cls-17{clip-path:url(#clip-path-4);}.cls-18{fill:#eee;}.cls-19{stroke-width:0.57px;}.cls-20{fill:#9d9d9d;}.cls-21{fill:#34a853;}.cls-22{clip-path:url(#clip-path-5);}.cls-23{clip-path:url(#clip-path-6);}.cls-24{fill:#95c8ec;}.cls-25{stroke:#eee;stroke-width:0.12px;}.cls-26{fill:#bcbcbc;}.cls-27{clip-path:url(#clip-path-7);}.cls-28{clip-path:url(#clip-path-8);}.cls-29{clip-path:url(#clip-path-9);}.cls-30{clip-path:url(#clip-path-10);}.cls-31{clip-path:url(#clip-path-11);}.cls-32{stroke-width:0.61px;}.cls-33{clip-path:url(#clip-path-12);}.cls-34{clip-path:url(#clip-path-13);}</style><clipPath id="clip-path"><circle class="cls-1" cx="175.58" cy="175.58" r="175.58"/></clipPath><clipPath id="clip-path-2"><polyline class="cls-1" points="-18.86 263.85 112.48 263.85 112.48 175.58 -18.86 175.58 -18.86 263.85"/></clipPath><clipPath id="clip-path-3"><polyline class="cls-1" points="112.46 88.27 243.81 88.27 243.81 0 112.46 0 112.46 88.27"/></clipPath><clipPath id="clip-path-4"><rect class="cls-1" x="142.99" y="196.55" width="69.33" height="45.33"/></clipPath><clipPath id="clip-path-5"><rect class="cls-1" x="9.49" y="105.85" width="69.33" height="45.33"/></clipPath><clipPath id="clip-path-6"><polyline class="cls-1" points="112.48 352.1 -18.86 352.1 -18.86 263.83 112.48 263.83 112.48 352.1"/></clipPath><clipPath id="clip-path-7"><polyline class="cls-1" points="375.13 352.1 243.78 352.1 243.78 263.83 375.13 263.83 375.13 352.1"/></clipPath><clipPath id="clip-path-8"><rect class="cls-1" x="272.13" y="105.85" width="69.33" height="45.33"/></clipPath><clipPath id="clip-path-9"><polyline class="cls-1" points="243.81 176.52 112.46 176.52 112.46 88.25 243.81 88.25 243.81 176.52"/></clipPath><clipPath id="clip-path-10"><polyline class="cls-1" points="375.13 88.73 243.78 88.73 243.78 0.46 375.13 0.46 375.13 88.73"/></clipPath><clipPath id="clip-path-11"><rect class="cls-1" x="128.97" y="279.5" width="94.86" height="72.43"/></clipPath><clipPath id="clip-path-12"><rect class="cls-1" x="260.29" y="192.44" width="94.86" height="72.43"/></clipPath><clipPath id="clip-path-13"><rect class="cls-1" x="-3.08" y="16.13" width="94.86" height="72.43"/></clipPath></defs><title>devices</title><g class="cls-2"><polyline class="cls-3" points="244.14 351.93 112.8 351.93 112.8 263.67 244.14 263.67 244.14 351.93"/><rect class="cls-4" x="112.48" y="176.31" width="131.46" height="87.79"/><rect class="cls-4" x="-18.92" y="88.49" width="131.46" height="87.79"/><g class="cls-5"><polyline class="cls-6" points="243.94 263.85 375.29 263.85 375.29 175.58 243.94 175.58 243.94 263.85"/><polyline class="cls-7" points="-18.86 263.85 112.48 263.85 112.48 175.58 -18.86 175.58 -18.86 263.85"/></g><path class="cls-8" d="M60,191l-24.14.09c-2.27,0-9.13-.61-9.1,5.63l0.26,70c0,6.25,6.87,6.24,9.15,6.23l24.14-.09c2.27,0,9.23-.05,9.21-6.3l-0.26-70C69.26,190.33,62.31,191,60,191Z"/><rect class="cls-9" x="28.77" y="197.93" width="38.89" height="69.28" transform="translate(-0.85 0.18) rotate(-0.21)"/><rect x="28.84" y="262.63" width="38.89" height="4.64" transform="translate(-0.97 0.18) rotate(-0.21)"/><rect x="28.65" y="197.93" width="38.89" height="2.06" transform="translate(-0.73 0.18) rotate(-0.21)"/><line class="cls-10" x1="59.64" y1="193.53" x2="59.64" y2="193.53"/><rect class="cls-11" x="66.2" y="198.69" width="0.5" height="0.52" transform="translate(-0.73 0.25) rotate(-0.21)"/><rect class="cls-11" x="65.17" y="198.69" width="0.52" height="0.52" transform="translate(-0.73 0.24) rotate(-0.21)"/><rect class="cls-11" x="64.14" y="198.7" width="0.52" height="0.52" transform="translate(-0.73 0.24) rotate(-0.21)"/><rect class="cls-11" x="63.11" y="198.7" width="0.52" height="0.52" transform="translate(-0.73 0.23) rotate(-0.21)"/><rect class="cls-9" x="43.52" y="194.12" width="9.01" height="0.52" rx="0.01" ry="0.01" transform="translate(-0.71 0.18) rotate(-0.21)"/><rect class="cls-9" x="43.8" y="269.58" width="9.01" height="0.52" rx="0.01" ry="0.01" transform="translate(-0.99 0.18) rotate(-0.21)"/><path class="cls-12" d="M67.55,199.92c-1.78-.09-38.9.14-38.9,0.14v3.66h0v0.41h38.9v-4.21Z"/><line class="cls-13" x1="28.64" y1="202.67" x2="67.55" y2="202.67"/><path class="cls-13" d="M48.33,202.67a0.57,0.57,0,0,1-.48-0.23l-0.77-1.35a0.63,0.63,0,0,0-.5-0.07H32.51a0.67,0.67,0,0,0-.5.07l-0.77,1.35a0.65,0.65,0,0,1-.52.24"/><rect class="cls-14" x="30.72" y="205.96" width="35.48" height="22.49"/><rect class="cls-14" x="30.72" y="230.77" width="35.48" height="1.8"/><rect class="cls-14" x="34.43" y="234.41" width="28.06" height="1.8"/><rect class="cls-14" x="34.43" y="238.12" width="28.06" height="1.8"/><rect class="cls-14" x="30.72" y="254.94" width="35.48" height="1.8"/><rect class="cls-14" x="34.43" y="258.58" width="28.06" height="1.8"/><rect class="cls-14" x="42.19" y="242.38" width="12.05" height="10.39"/><g class="cls-15"><polyline class="cls-7" points="112.46 88.27 243.81 88.27 243.81 0 112.46 0 112.46 88.27"/></g><path class="cls-8" d="M191.36,15.42l-24.14.09c-2.27,0-9.13-.61-9.1,5.63l0.26,70c0,6.25,6.87,6.24,9.15,6.23l24.14-.09c2.27,0,9.23-.05,9.21-6.3l-0.26-70C200.59,14.75,193.63,15.43,191.36,15.42Z"/><rect class="cls-9" x="160.09" y="22.35" width="38.89" height="69.28" transform="translate(-0.21 0.66) rotate(-0.21)"/><rect x="160.17" y="87.05" width="38.89" height="4.64" transform="translate(-0.33 0.66) rotate(-0.21)"/><rect x="159.97" y="22.35" width="38.89" height="2.06" transform="translate(-0.08 0.66) rotate(-0.21)"/><line class="cls-10" x1="190.96" y1="17.94" x2="190.96" y2="17.94"/><rect class="cls-11" x="197.53" y="23.11" width="0.5" height="0.52" transform="translate(-0.08 0.73) rotate(-0.21)"/><rect class="cls-11" x="196.5" y="23.11" width="0.52" height="0.52" transform="translate(-0.08 0.72) rotate(-0.21)"/><rect class="cls-11" x="195.47" y="23.12" width="0.52" height="0.52" transform="translate(-0.08 0.72) rotate(-0.21)"/><rect class="cls-11" x="194.44" y="23.12" width="0.52" height="0.52" transform="translate(-0.08 0.71) rotate(-0.21)"/><rect class="cls-9" x="174.85" y="18.54" width="9.01" height="0.52" rx="0.01" ry="0.01" transform="translate(-0.07 0.66) rotate(-0.21)"/><rect class="cls-9" x="175.12" y="94" width="9.01" height="0.52" rx="0.01" ry="0.01" transform="translate(-0.34 0.66) rotate(-0.21)"/><path class="cls-12" d="M198.87,24.34c-1.78-.09-38.9.14-38.9,0.14v3.66h0v0.41h38.9V24.34Z"/><line class="cls-13" x1="159.97" y1="27.09" x2="198.87" y2="27.08"/><path class="cls-13" d="M179.66,27.09a0.57,0.57,0,0,1-.48-0.23l-0.77-1.35a0.63,0.63,0,0,0-.5-0.07H163.84a0.67,0.67,0,0,0-.5.07l-0.77,1.35a0.65,0.65,0,0,1-.52.24"/><rect class="cls-14" x="162.04" y="30.37" width="35.48" height="22.49"/><rect class="cls-14" x="162.04" y="55.19" width="35.48" height="1.8"/><rect class="cls-14" x="165.75" y="58.83" width="28.06" height="1.8"/><rect class="cls-14" x="165.75" y="62.54" width="28.06" height="1.8"/><rect class="cls-14" x="162.04" y="79.36" width="35.48" height="1.8"/><rect class="cls-14" x="165.75" y="83" width="28.06" height="1.8"/><rect class="cls-14" x="173.51" y="66.8" width="12.05" height="10.39"/><path class="cls-16" d="M179.11,249.3c-29.85,0-50.14,2.19-50.14,2.9s20.3,1.29,50.14,1.29,50.14-.58,50.14-1.29-20.3-2.9-50.14-2.9"/><path class="cls-8" d="M211.24,192.18H143.82c-2.39,0-3.53,2.35-3.53,4.74v50.2s-3.93,3.06.25,3.06h71c4.18,0,4.71-3.06,4.71-3.06v-50.2C216.29,194.53,213.62,192.18,211.24,192.18Zm-67.95,4h69v45h-69v-45Z"/><g class="cls-17"><path class="cls-9" d="M143.09,199.14a2.17,2.17,0,0,1,2.22-1.89h65.09a1.73,1.73,0,0,1,1.72,1.89v45.51c-2.73.11-66,.11-69,0.11V199.14Z"/><path class="cls-18" d="M210.41,197.35a1.61,1.61,0,0,1,1.61,1.79v45.41c-3.82.1-64.71,0.11-68.82,0.11V199.14a2.08,2.08,0,0,1,2.16-1.79h65m0-.21H145.32a2.28,2.28,0,0,0-2.33,2v45.73s69.25,0,69.25-.12V199.14a1.83,1.83,0,0,0-1.82-2h0Z"/><rect class="cls-14" x="146.04" y="206.37" width="63.03" height="13.06"/><rect class="cls-14" x="146.04" y="222" width="36.88" height="16.7"/><rect class="cls-18" x="186.59" y="222" width="22.48" height="2.34"/><rect class="cls-18" x="186.59" y="226.78" width="22.48" height="2.34"/><rect class="cls-18" x="186.59" y="231.57" width="22.48" height="2.34"/><rect class="cls-18" x="186.59" y="236.36" width="22.48" height="2.34"/></g><path class="cls-12" d="M212.32,198.73a2.21,2.21,0,0,0-2.21-2.21H145.22a2.21,2.21,0,0,0-2.21,2.21v4h0v0.69h69.31v-0.69h0v-4Z"/><line class="cls-19" x1="143.01" y1="200.93" x2="212.31" y2="200.91"/><path class="cls-19" d="M176.31,200.93a1,1,0,0,1-.82-0.39l-1.31-2.29a1.07,1.07,0,0,0-.85-0.11H149.55a1.12,1.12,0,0,0-.85.11l-1.31,2.28a1.11,1.11,0,0,1-.88.4"/><path class="cls-20" d="M222.29,245.28l-0.61-1.1H133.29v2.73s-1.52,3.27,2.27,3.27h82.65a3.76,3.76,0,0,0,4.08-3.27v-1.63Z"/><circle class="cls-21" cx="221.92" cy="237.71" r="13.89"/><rect class="cls-9" x="216.17" y="236.18" width="3.15" height="7.84" transform="translate(-106 224.33) rotate(-45.01)"/><polygon class="cls-9" points="222.72 236.22 217.18 241.76 219.4 243.99 224.94 238.44 230.49 232.9 228.26 230.68 222.72 236.22"/><circle class="cls-21" cx="84.24" cy="237.71" r="13.89"/><rect class="cls-9" x="78.49" y="236.18" width="3.15" height="7.84" transform="translate(-146.34 126.96) rotate(-45.01)"/><polygon class="cls-9" points="85.04 236.22 79.5 241.76 81.72 243.99 87.26 238.44 92.81 232.9 90.58 230.68 85.04 236.22"/><circle class="cls-21" cx="221.92" cy="153.29" r="13.89"/><rect class="cls-9" x="216.17" y="151.76" width="3.15" height="7.84" transform="translate(-46.3 199.6) rotate(-45.01)"/><polygon class="cls-9" points="222.72 151.8 217.18 157.34 219.4 159.57 224.94 154.02 230.49 148.48 228.26 146.26 222.72 151.8"/><circle class="cls-21" cx="221.92" cy="64.34" r="13.89"/><rect class="cls-9" x="216.17" y="62.81" width="3.15" height="7.84" transform="translate(16.6 173.53) rotate(-45.01)"/><polygon class="cls-9" points="222.72 62.84 217.18 68.39 219.4 70.61 224.94 65.07 230.49 59.53 228.26 57.3 222.72 62.84"/><path class="cls-16" d="M45.61,158.61c-29.85,0-50.14,2.19-50.14,2.9s20.3,1.29,50.14,1.29,50.14-.58,50.14-1.29-20.3-2.9-50.14-2.9"/><path class="cls-8" d="M77.74,101.18H10.32c-2.39,0-4,2.66-4,5v50.2s-3.43,2.75.75,2.75h71c4.18,0,4.21-2.75,4.21-2.75v-50.2C82.29,103.83,80.12,101.18,77.74,101.18Zm-67.45,4h69v45h-69v-45Z"/><g class="cls-22"><path class="cls-9" d="M9.59,108.45a2.17,2.17,0,0,1,2.22-1.89H76.91a1.73,1.73,0,0,1,1.72,1.89V154c-2.73.11-66,.11-69,0.11V108.45Z"/><path class="cls-18" d="M76.91,106.66a1.61,1.61,0,0,1,1.61,1.79v45.41C74.7,154,13.81,154,9.7,154V108.45a2.08,2.08,0,0,1,2.16-1.79h65m0-.21H11.82a2.28,2.28,0,0,0-2.33,2v45.73s69.25,0,69.25-.12V108.45a1.83,1.83,0,0,0-1.82-2h0Z"/><rect class="cls-14" x="12.54" y="115.68" width="63.03" height="13.06"/><rect class="cls-14" x="12.54" y="131.3" width="36.88" height="16.7"/><rect class="cls-18" x="53.09" y="131.3" width="22.48" height="2.34"/><rect class="cls-18" x="53.09" y="136.09" width="22.48" height="2.34"/><rect class="cls-18" x="53.09" y="140.88" width="22.48" height="2.34"/><rect class="cls-18" x="53.09" y="145.66" width="22.48" height="2.34"/></g><path class="cls-12" d="M78.82,108a2.21,2.21,0,0,0-2.21-2.21H11.72A2.21,2.21,0,0,0,9.5,108v4h0v0.69H78.82V112h0v-4Z"/><line class="cls-19" x1="9.51" y1="110.24" x2="78.81" y2="110.22"/><path class="cls-19" d="M42.81,110.23a1,1,0,0,1-.82-0.39l-1.31-2.29a1.07,1.07,0,0,0-.85-0.11H16a1.12,1.12,0,0,0-.85.11l-1.31,2.28a1.11,1.11,0,0,1-.88.4"/><path class="cls-20" d="M89.29,154.58l-1.11-1.41H0.29v3s-2,3,1.77,3H84.71a4.44,4.44,0,0,0,4.58-3v-1.63Z"/><g class="cls-23"><polyline class="cls-24" points="112.48 352.1 -18.86 352.1 -18.86 263.83 112.48 263.83 112.48 352.1"/><path class="cls-8" d="M81.72,282.89H10.83A3,3,0,0,0,8,285.69v45.63a2.79,2.79,0,0,0,2.69,2.81H81.56a2.79,2.79,0,0,0,2.69-2.81V285.69A2.94,2.94,0,0,0,81.72,282.89Z"/><rect class="cls-25" x="14.88" y="285.75" width="62.65" height="45.83"/><path class="cls-11" d="M81.21,307.51a1,1,0,1,1-1,1,1,1,0,0,1,1-1m0-.2a1.2,1.2,0,1,0,1.2,1.2,1.2,1.2,0,0,0-1.2-1.2h0Z"/><rect x="15.29" y="285.18" width="63" height="3"/><polyline class="cls-1" points="112.48 352.1 -18.86 352.1 -18.86 263.83 112.48 263.83 112.48 352.1"/><rect class="cls-26" x="75.36" y="286.03" width="1.12" height="1.12"/><rect class="cls-26" x="73.67" y="286.03" width="1.12" height="1.12"/><rect class="cls-26" x="71.99" y="286.03" width="1.12" height="1.12"/><rect class="cls-26" x="70.3" y="286.03" width="1.12" height="1.12"/><path class="cls-12" d="M77.61,290.42a2.21,2.21,0,0,0-2.21-2.21H17a2.21,2.21,0,0,0-2.21,2.21v4h0v0.69H77.61v-0.69h0v-4Z"/><line class="cls-19" x1="14.83" y1="292.62" x2="77.6" y2="292.61"/><path class="cls-19" d="M48.13,292.62a1,1,0,0,1-.82-0.39L46,289.94a1.07,1.07,0,0,0-.85-0.11H21.37a1.12,1.12,0,0,0-.85.11l-1.31,2.28a1.11,1.11,0,0,1-.88.4"/><rect class="cls-14" x="17.39" y="297.88" width="37.24" height="13.3"/><rect class="cls-14" x="17.39" y="313.85" width="37.24" height="13.3"/><rect class="cls-14" x="57.3" y="297.88" width="17.41" height="2.9"/><rect class="cls-14" x="57.3" y="302.72" width="17.41" height="2.9"/><rect class="cls-14" x="57.3" y="307.24" width="17.41" height="2.9"/><rect class="cls-14" x="57.3" y="312.15" width="15.24" height="2.9"/></g><g class="cls-27"><polyline class="cls-24" points="375.13 352.1 243.78 352.1 243.78 263.83 375.13 263.83 375.13 352.1"/><path class="cls-8" d="M344.36,282.89H273.47a3,3,0,0,0-2.85,2.8v45.63a2.79,2.79,0,0,0,2.69,2.81H344.2a2.79,2.79,0,0,0,2.69-2.81V285.69A2.94,2.94,0,0,0,344.36,282.89Z"/><rect class="cls-25" x="277.53" y="285.75" width="62.65" height="45.83"/><path class="cls-11" d="M343.86,307.51a1,1,0,1,1-1,1,1,1,0,0,1,1-1m0-.2a1.2,1.2,0,1,0,1.2,1.2,1.2,1.2,0,0,0-1.2-1.2h0Z"/><rect x="277.29" y="285.18" width="64" height="3"/><polyline class="cls-1" points="375.13 352.1 243.78 352.1 243.78 263.83 375.13 263.83 375.13 352.1"/><rect class="cls-26" x="338.01" y="286.03" width="1.12" height="1.12"/><rect class="cls-26" x="336.32" y="286.03" width="1.12" height="1.12"/><rect class="cls-26" x="334.64" y="286.03" width="1.12" height="1.12"/><rect class="cls-26" x="332.95" y="286.03" width="1.12" height="1.12"/><path class="cls-12" d="M340.26,290.42a2.21,2.21,0,0,0-2.21-2.21H279.69a2.21,2.21,0,0,0-2.21,2.21v4h0v0.69h62.78v-0.69h0v-4Z"/><line class="cls-19" x1="277.47" y1="292.62" x2="340.24" y2="292.61"/><path class="cls-19" d="M310.77,292.62a1,1,0,0,1-.82-0.39l-1.31-2.29a1.07,1.07,0,0,0-.85-0.11H284a1.12,1.12,0,0,0-.85.11l-1.31,2.28a1.11,1.11,0,0,1-.88.4"/><rect class="cls-14" x="280.04" y="297.88" width="37.24" height="13.3"/><rect class="cls-14" x="280.04" y="313.85" width="37.24" height="13.3"/><rect class="cls-14" x="319.94" y="297.88" width="17.41" height="2.9"/><rect class="cls-14" x="319.94" y="302.72" width="17.41" height="2.9"/><rect class="cls-14" x="319.94" y="307.24" width="17.41" height="2.9"/><rect class="cls-14" x="319.94" y="312.15" width="15.24" height="2.9"/></g><rect class="cls-4" x="243.73" y="88.49" width="131.46" height="87.79"/><path class="cls-16" d="M308.26,158.61c-29.85,0-50.14,2.19-50.14,2.9s20.3,1.29,50.14,1.29,50.14-.58,50.14-1.29-20.3-2.9-50.14-2.9"/><path class="cls-8" d="M340.38,101.18H273c-2.39,0-3.67,2.66-3.67,5v50.2s-3.78,2.75.4,2.75h71c4.18,0,4.57-2.75,4.57-2.75v-50.2C345.29,103.83,342.77,101.18,340.38,101.18Zm-68.09,4h69v45h-69v-45Z"/><g class="cls-28"><path class="cls-9" d="M272.24,108.45a2.17,2.17,0,0,1,2.22-1.89h65.09a1.73,1.73,0,0,1,1.72,1.89V154c-2.73.11-66,.11-69,0.11V108.45Z"/><path class="cls-18" d="M339.56,106.66a1.61,1.61,0,0,1,1.61,1.79v45.41c-3.82.1-64.71,0.11-68.82,0.11V108.45a2.08,2.08,0,0,1,2.16-1.79h65m0-.21H274.46a2.28,2.28,0,0,0-2.33,2v45.73s69.25,0,69.25-.12V108.45a1.83,1.83,0,0,0-1.82-2h0Z"/><rect class="cls-14" x="275.18" y="115.68" width="63.03" height="13.06"/><rect class="cls-14" x="275.18" y="131.3" width="36.88" height="16.7"/><rect class="cls-18" x="315.74" y="131.3" width="22.48" height="2.34"/><rect class="cls-18" x="315.74" y="136.09" width="22.48" height="2.34"/><rect class="cls-18" x="315.74" y="140.88" width="22.48" height="2.34"/><rect class="cls-18" x="315.74" y="145.66" width="22.48" height="2.34"/></g><path class="cls-12" d="M341.47,108a2.21,2.21,0,0,0-2.21-2.21H274.37a2.21,2.21,0,0,0-2.21,2.21v4h0v0.69h69.31V112h0v-4Z"/><line class="cls-19" x1="272.15" y1="110.24" x2="341.45" y2="110.22"/><path class="cls-19" d="M305.45,110.23a1,1,0,0,1-.82-0.39l-1.31-2.29a1.07,1.07,0,0,0-.85-0.11H278.7a1.12,1.12,0,0,0-.85.11l-1.31,2.28a1.11,1.11,0,0,1-.88.4"/><path class="cls-20" d="M351.29,154.58l-0.47-1.41H262.29v3s-1.37,3,2.42,3h82.65c3.79,0,3.93-3,3.93-3v-1.63Z"/><circle class="cls-21" cx="351.07" cy="147.02" r="13.89"/><rect class="cls-9" x="345.32" y="145.49" width="3.15" height="7.84" transform="translate(-4.03 289.09) rotate(-45.01)"/><polygon class="cls-9" points="351.87 145.53 346.32 151.07 348.55 153.29 354.09 147.75 359.63 142.21 357.41 139.98 351.87 145.53"/><g class="cls-29"><polyline class="cls-24" points="243.81 176.52 112.46 176.52 112.46 88.25 243.81 88.25 243.81 176.52"/><path class="cls-8" d="M213,107.31H142.15a3,3,0,0,0-2.85,2.8v45.63a2.79,2.79,0,0,0,2.69,2.81h70.89a2.79,2.79,0,0,0,2.69-2.81V110.11A2.94,2.94,0,0,0,213,107.31Z"/><rect class="cls-25" x="146.2" y="110.17" width="62.65" height="45.83"/><path class="cls-11" d="M212.54,131.93a1,1,0,1,1-1,1,1,1,0,0,1,1-1m0-.2a1.2,1.2,0,1,0,1.2,1.2,1.2,1.2,0,0,0-1.2-1.2h0Z"/><rect x="146.29" y="109.18" width="63" height="3"/><polyline class="cls-1" points="243.81 176.52 112.46 176.52 112.46 88.25 243.81 88.25 243.81 176.52"/><rect class="cls-26" x="206.68" y="110.45" width="1.12" height="1.12"/><rect class="cls-26" x="205" y="110.45" width="1.12" height="1.12"/><rect class="cls-26" x="203.31" y="110.45" width="1.12" height="1.12"/><rect class="cls-26" x="201.63" y="110.45" width="1.12" height="1.12"/><path class="cls-12" d="M208.93,114.84a2.21,2.21,0,0,0-2.21-2.21H148.36a2.21,2.21,0,0,0-2.21,2.21v4h0v0.69h62.78v-0.69h0v-4Z"/><line class="cls-19" x1="146.15" y1="117.04" x2="208.92" y2="117.03"/><path class="cls-19" d="M179.45,117a1,1,0,0,1-.82-0.39l-1.31-2.29a1.07,1.07,0,0,0-.85-0.11H152.69a1.12,1.12,0,0,0-.85.11l-1.31,2.28a1.11,1.11,0,0,1-.88.4"/><rect class="cls-14" x="148.72" y="122.3" width="37.24" height="13.3"/><rect class="cls-14" x="148.72" y="138.26" width="37.24" height="13.3"/><rect class="cls-14" x="188.62" y="122.3" width="17.41" height="2.9"/><rect class="cls-14" x="188.62" y="127.14" width="17.41" height="2.9"/><rect class="cls-14" x="188.62" y="131.66" width="17.41" height="2.9"/><rect class="cls-14" x="188.62" y="136.57" width="15.24" height="2.9"/></g><circle class="cls-21" cx="84.24" cy="328.94" r="13.89"/><rect class="cls-9" x="78.49" y="327.41" width="3.15" height="7.84" transform="translate(-210.86 153.69) rotate(-45.01)"/><polygon class="cls-9" points="85.04 327.45 79.5 332.99 81.72 335.22 87.26 329.67 92.81 324.13 90.58 321.9 85.04 327.45"/><circle class="cls-21" cx="350.77" cy="328.94" r="13.89"/><rect class="cls-9" x="345.02" y="327.41" width="3.15" height="7.84" transform="translate(-132.77 342.18) rotate(-45.01)"/><polygon class="cls-9" points="351.57 327.45 346.03 332.99 348.25 335.22 353.79 329.67 359.34 324.13 357.11 321.9 351.57 327.45"/><g class="cls-30"><polyline class="cls-24" points="375.13 88.73 243.78 88.73 243.78 0.46 375.13 0.46 375.13 88.73"/><path class="cls-8" d="M344.36,19.52H273.47a3,3,0,0,0-2.85,2.8V67.95a2.79,2.79,0,0,0,2.69,2.81H344.2a2.79,2.79,0,0,0,2.69-2.81V22.32A2.94,2.94,0,0,0,344.36,19.52Z"/><rect class="cls-25" x="277.53" y="22.38" width="62.65" height="45.83"/><path class="cls-11" d="M343.86,44.14a1,1,0,1,1-1,1,1,1,0,0,1,1-1m0-.2a1.2,1.2,0,1,0,1.2,1.2,1.2,1.2,0,0,0-1.2-1.2h0Z"/><rect x="277.29" y="21.18" width="64" height="3"/><polyline class="cls-1" points="375.13 88.73 243.78 88.73 243.78 0.46 375.13 0.46 375.13 88.73"/><rect class="cls-26" x="338.01" y="22.66" width="1.12" height="1.12"/><rect class="cls-26" x="336.32" y="22.66" width="1.12" height="1.12"/><rect class="cls-26" x="334.64" y="22.66" width="1.12" height="1.12"/><rect class="cls-26" x="332.95" y="22.66" width="1.12" height="1.12"/><path class="cls-12" d="M340.26,27.05A2.21,2.21,0,0,0,338,24.84H279.69a2.21,2.21,0,0,0-2.21,2.21v4h0v0.69h62.78V31h0v-4Z"/><line class="cls-19" x1="277.47" y1="29.25" x2="340.24" y2="29.24"/><path class="cls-19" d="M310.77,29.25a1,1,0,0,1-.82-0.39l-1.31-2.29a1.07,1.07,0,0,0-.85-0.11H284a1.12,1.12,0,0,0-.85.11l-1.31,2.28a1.11,1.11,0,0,1-.88.4"/><rect class="cls-14" x="280.04" y="34.51" width="37.24" height="13.3"/><rect class="cls-14" x="280.04" y="50.47" width="37.24" height="13.3"/><rect class="cls-14" x="319.94" y="34.51" width="17.41" height="2.9"/><rect class="cls-14" x="319.94" y="39.35" width="17.41" height="2.9"/><rect class="cls-14" x="319.94" y="43.87" width="17.41" height="2.9"/><rect class="cls-14" x="319.94" y="48.78" width="15.24" height="2.9"/></g><circle class="cls-21" cx="350.77" cy="65.57" r="13.89"/><rect class="cls-9" x="345.02" y="64.04" width="3.15" height="7.84" transform="translate(53.48 265.02) rotate(-45.01)"/><polygon class="cls-9" points="351.57 64.08 346.03 69.62 348.25 71.84 353.79 66.3 359.34 60.76 357.11 58.53 351.57 64.08"/><circle class="cls-21" cx="84.24" cy="153.29" r="13.89"/><rect class="cls-9" x="78.49" y="151.76" width="3.15" height="7.84" transform="translate(-86.64 102.23) rotate(-45.01)"/><polygon class="cls-9" points="85.04 151.8 79.5 157.34 81.72 159.57 87.26 154.02 92.81 148.48 90.58 146.26 85.04 151.8"/><circle class="cls-21" cx="221.92" cy="153.64" r="13.89"/><rect class="cls-9" x="216.17" y="152.11" width="3.15" height="7.84" transform="translate(-46.55 199.7) rotate(-45.01)"/><polygon class="cls-9" points="222.72 152.14 217.18 157.69 219.4 159.91 224.94 154.37 230.49 148.82 228.26 146.6 222.72 152.14"/><g class="cls-31"><path class="cls-8" d="M205.08,431.18h-51a10.61,10.61,0,0,1-10.81-10.41V294.22a10.19,10.19,0,0,1,10.1-10h51a11,11,0,0,1,10.92,10.91V421.63C215.29,426.92,210.53,431.18,205.08,431.18Zm7.21-131h-66v112h66v-112Z"/><rect class="cls-18" x="174.29" y="293.18" width="10" height="2"/><rect class="cls-9" x="145.83" y="299.65" width="66.51" height="114.46"/><path class="cls-12" d="M212.36,298.78v-0.16H145.51v6.6h0V306h66.85v-0.73h0v-6.44Z"/><line class="cls-32" x1="145.51" y1="303.32" x2="212.34" y2="303.3"/><path class="cls-32" d="M181,303.31a1,1,0,0,1-.87-0.42l-1.39-2.43a1.14,1.14,0,0,0-.9-0.12H152.48a1.2,1.2,0,0,0-.9.12l-1.39,2.42a1.18,1.18,0,0,1-.94.42"/><rect class="cls-14" x="149.24" y="309.23" width="59.63" height="40.5"/></g><circle class="cls-21" cx="221.92" cy="328.94" r="13.89"/><rect class="cls-9" x="216.17" y="327.41" width="3.15" height="7.84" transform="translate(-170.52 251.06) rotate(-45.01)"/><polygon class="cls-9" points="222.72 327.45 217.18 332.99 219.4 335.22 224.94 329.67 230.49 324.13 228.26 321.9 222.72 327.45"/><polyline class="cls-3" points="375.46 264.87 244.12 264.87 244.12 176.6 375.46 176.6 375.46 264.87"/><g class="cls-33"><path class="cls-8" d="M336.41,344.18h-51c-5.86,0-10.13-4.61-10.13-10.48V207.15c0-5.47,4-10,9.43-10h51A10.69,10.69,0,0,1,346.29,208V334.57A9.77,9.77,0,0,1,336.41,344.18Zm6.89-131h-66v112h66v-112Z"/><path class="cls-18" d="M310.9,330.34a5.23,5.23,0,1,0,5.23,5.23A5.23,5.23,0,0,0,310.9,330.34Zm0,9.58a4.36,4.36,0,1,1,4.36-4.36A4.36,4.36,0,0,1,310.9,339.92Z"/><rect class="cls-18" x="306.29" y="206.18" width="9" height="2"/><rect class="cls-9" x="277.16" y="212.58" width="66.51" height="114.46"/><path class="cls-12" d="M343.68,211.71v-0.16H276.83v6.6h0v0.73h66.85v-0.73h0v-6.44Z"/><line class="cls-32" x1="276.83" y1="216.25" x2="343.67" y2="216.24"/><path class="cls-32" d="M312.29,216.25a1,1,0,0,1-.87-0.42L310,213.4a1.14,1.14,0,0,0-.9-0.12H283.8a1.2,1.2,0,0,0-.9.12l-1.39,2.42a1.18,1.18,0,0,1-.94.42"/><rect class="cls-14" x="280.57" y="222.16" width="59.63" height="40.5"/><rect class="cls-14" x="280.57" y="267.24" width="59.63" height="24.83"/><rect class="cls-14" x="280.57" y="295" width="59.63" height="24.83"/></g><circle class="cls-21" cx="353.25" cy="241.88" r="13.89"/><rect class="cls-9" x="347.49" y="240.35" width="3.15" height="7.84" transform="translate(-70.47 318.42) rotate(-45.01)"/><polygon class="cls-9" points="354.04 240.38 348.5 245.93 350.73 248.15 356.27 242.61 361.81 237.06 359.58 234.84 354.04 240.38"/><polyline class="cls-3" points="112.09 88.56 -19.25 88.56 -19.25 0.29 112.09 0.29 112.09 88.56"/><g class="cls-34"><path class="cls-8" d="M73,168.18h-51a10.88,10.88,0,0,1-10.76-10.78V30.84a9.83,9.83,0,0,1,10.05-9.67h51a10.74,10.74,0,0,1,11,10.53V158.26C83.29,163.55,78.49,168.18,73,168.18Zm7.26-131h-66v112h66v-112Z"/><path class="cls-18" d="M47.53,154a5.23,5.23,0,1,0,5.23,5.23A5.23,5.23,0,0,0,47.53,154Zm0,9.58a4.36,4.36,0,1,1,4.36-4.36A4.36,4.36,0,0,1,47.53,163.62Z"/><rect class="cls-18" x="42.29" y="29.18" width="10" height="2"/><rect class="cls-9" x="13.78" y="36.28" width="66.51" height="114.46"/><path class="cls-12" d="M80.31,35.41V35.25H13.46v6.6h0v0.73H80.31V41.85h0V35.41Z"/><line class="cls-32" x1="13.46" y1="39.95" x2="80.29" y2="39.93"/><path class="cls-32" d="M48.92,39.94A1,1,0,0,1,48,39.52l-1.39-2.43a1.14,1.14,0,0,0-.9-0.12H20.43a1.2,1.2,0,0,0-.9.12l-1.39,2.42a1.18,1.18,0,0,1-.94.42"/><rect class="cls-14" x="17.19" y="45.85" width="59.63" height="40.5"/><rect class="cls-14" x="17.19" y="90.93" width="59.63" height="24.83"/><rect class="cls-14" x="17.19" y="118.7" width="59.63" height="24.83"/></g><circle class="cls-21" cx="89.87" cy="65.57" r="13.89"/><rect class="cls-9" x="84.12" y="64.04" width="3.15" height="7.84" transform="translate(-22.95 80.51) rotate(-45.01)"/><polygon class="cls-9" points="90.67 64.08 85.13 69.62 87.35 71.84 92.89 66.3 98.44 60.76 96.21 58.53 90.67 64.08"/></g></svg>