<svg id="_1_Blueprint" data-name="1_Blueprint" xmlns="http://www.w3.org/2000/svg" xmlns:xlink="http://www.w3.org/1999/xlink" width="379.17" height="379.17" viewBox="0 0 379.17 379.17"><defs><style>.cls-1{fill:none;}.cls-2{clip-path:url(#clip-path);}.cls-3{fill:#5ecae7;}.cls-4{fill:#d4ab5e;}.cls-5{fill:#e1b561;}.cls-6{fill:#4687f0;}.cls-7{fill:#434343;opacity:0.3;}.cls-8{fill:#eabd63;}.cls-9{fill:#ecc3a9;}.cls-10{fill:#f6cfb5;}.cls-11{fill:#fed600;}.cls-12{fill:#b78b68;}.cls-13{fill:#d1a466;}.cls-14{fill:#5cbc6b;}.cls-15{fill:#c49867;}.cls-16{fill:#ef4323;}</style><clipPath id="clip-path"><circle class="cls-1" cx="189.58" cy="189.58" r="189.58"/></clipPath></defs><title>puzzle</title><g class="cls-2"><path id="cyan_puzzle_piece" class="cls-3" d="M189.58,189.59l-17-6.34,0,0-2.38-.88c-1.9-.71-2.88.88-2.41,2.39a5.42,5.42,0,0,1-.1,3.55,5.55,5.55,0,0,1-7.13,3.18,5.43,5.43,0,0,1-3.23-7,5.37,5.37,0,0,1,2.3-2.73c1.21-.71,1.8-2.62-0.63-3.52l-2-.73,0-.08L137.26,170V184.8a126.48,126.48,0,0,0,1.13,14.5,90,90,0,0,0,11.8,32.86l15.91-7.52c1.09-.93.55-2.37-0.68-3a5.54,5.54,0,0,1-2.53-2.52,5.42,5.42,0,0,1,2.6-7.27,5.57,5.57,0,0,1,7.38,2.56,5.27,5.27,0,0,1,.41,3.53,1.78,1.78,0,0,0,2.19,2.28l14.08-6.66h0v-24Z"/><g id="blue_piece_group"><path id="ring_finger" class="cls-4" d="M138.53,268.93c2.17-.62,4.46-1.19,6.86-1.67,13.09-2.65,16.82-2.08,24.71-3.6,6-1.17,10-6.42,9.58-9.69s-1.7-4.33-5-3.9c0,0-16.21.89-28.73,2.86-2.86.45-5.66,1-8.28,1.57C128.21,256.58,127.42,272.12,138.53,268.93Z"/><path id="middle_finger" class="cls-5" d="M139.62,260.34a78.46,78.46,0,0,1,11.62-5.5c12.45-4.63,15.75-4.8,23-8.12,5.56-2.55,7.26-8.39,6.07-11.46s-2.69-3.84-5.81-2.63c0,0-15.49,4.63-27.13,9.46-2.81,1.16-5.41,2.31-7.76,3.4C131.75,249.11,131.39,265,139.62,260.34Z"/><path id="blue_puzzle_piece" class="cls-6" d="M206.42,236.45c-1.4-2,.12-3.25,1.5-3.18a5.46,5.46,0,0,0,4.67-8.65,5.57,5.57,0,0,0-7.72-1.21,5.46,5.46,0,0,0-2.06,2.91c-0.43,1.43-2,2.22-3.16.92l-10-13.64h0l-14.08,6.66a1.78,1.78,0,0,1-2.19-2.28,5.27,5.27,0,0,0-.41-3.53,5.57,5.57,0,0,0-7.38-2.56,5.42,5.42,0,0,0-2.6,7.27,5.54,5.54,0,0,0,2.53,2.52c1.24,0.62,1.77,2.05.68,3l-16,7.54a87.87,87.87,0,0,0,39.29,35,86.59,86.59,0,0,0,26.18-18.17Z"/><path id="forefinger_shadow" class="cls-7" d="M175.85,237.27c7.83-5.3,4.77-16.22-.74-15.46-2.13.29-12.29,5-24.44,11.18a93.93,93.93,0,0,0,9.74,13C167.53,241.81,171.31,240.36,175.85,237.27Z"/><path id="forearm_thumb_forefinger" class="cls-8" d="M186.67,269.55c-5.2,6.25-18.32,28.67-27.29,24.65-4.45-2-18.21-39.13-12.17-43.31,16.84-11.62,21.88-12.58,28.64-17.17,7.83-5.3,4.77-16.22-.74-15.46-2.54.35-16.51,7-31.65,14.87s-16.45,35.44-18,44.05c-3.13,17.2-4,61.11-7,67.26S38.53,492.61,38.53,492.61H96.4S139.61,383.24,146.52,370c8.95-17.06,20.09-36.93,30.25-54.51,7.19-12.44,12.16-22.31,17.21-30.63,3.08-5.09,7.25-10.47,8.88-13C206.49,266.38,194.4,260.25,186.67,269.55Z"/></g><g id="yellow_piece_group"><path id="middle_finger_shadow" class="cls-9" d="M246.36,101.5c-10.13,4.54-18.8,13.09-20.66,30.16s-0.74,20.73-.15,23.22c1.35,5.42,9.38,2.07,11.56-7.24,1.89-8,2.4-17.78,10.16-23,9.8-6.59,26.13-6.27,26.13-6.27Z"/><path id="forearm_forefinger" class="cls-10" d="M341.28,86c-26.55,1.67-72.4,3.73-102.34,17.1-10.13,4.54-18.8,13.09-20.66,30.16s-0.74,20.73-.15,23.22c1.35,5.42,9.38,2.07,11.56-7.24,1.89-8,2.4-20.91,7.22-24.71,9.28-7.3,28-11.69,36.75.42,7.83,10.85,18.52,22.88,32.61,15.93,15.26-7.52,14.38-18,53.61-22.6,9.49-1.12,117.81-10,160.53-13.47V47.68C476.16,57.43,348.43,85.51,341.28,86Z"/><path id="yellow_puzzle_piece" class="cls-11" d="M189.6,133.17h0v22.23c0.12,1.83,1.88,2.11,3.11,1.19a5.62,5.62,0,0,1,3.4-1.16,5.45,5.45,0,1,1-3.41,9.74,1.83,1.83,0,0,0-3.1,1.36v47l23.72-11.84h0c1.47-.89,1-2.42-0.2-3.13l-0.18-.11-0.18-.1a5.49,5.49,0,0,1-2.41-2.37,5.36,5.36,0,0,1-.55-3.13,5.43,5.43,0,0,1,1.59-3.2l0,0,0.08-.07a5.51,5.51,0,0,1,1.27-.88l0.14-.06a5.56,5.56,0,0,1,7.3,2.46,5.27,5.27,0,0,1,.49,3.52,2.21,2.21,0,0,0,0,.5s0,0.07,0,.11,0,0.09,0,.14a2,2,0,0,0,0,.23v0a2,2,0,0,0,.07.23h0a1.78,1.78,0,0,0,.1.21v0l0.11,0.17,0,0,0.12,0.13,0,0.05,0.12,0.1,0.08,0.06,0.11,0.07,0.11,0.06,0.1,0,0.15,0.05,0.1,0,0.19,0h0.39l0.25,0,0.09,0,0.28-.07,0.1,0,0.29-.11,18.27-9.12h0l0,0c0-1.06.07-2,.07-2.66V148.36Z"/><path id="thumb_shadow" class="cls-7" d="M241,165.6l0.92-.22V151.5C231.27,157.18,233.53,167.38,241,165.6Z"/><path id="thumb" class="cls-10" d="M326.92,126.25c-12.71,1.06-15.2,13.26-27.2,18.45-16.68,7.21-27.41,12.07-39.49,14.44-6.78,1.37-14.29,3.73-18.29,4.73l-0.92.21c-7.49,1.78-9.74-8.41.92-14.09a25,25,0,0,1,3.32-1.47c9.67-3.45,34.09-9.16,28-23.23-10.16-23.57,54.54-33.94,56-15.93C330,119,335,125.57,326.92,126.25Z"/></g><g id="green_piece_group"><path id="middle_finger_shadow-2" data-name="middle_finger_shadow" class="cls-12" d="M266.19,219.47c-1.65,1.13-9.12,7.12-8.68,8.23,0.69,1.73,3.28,2.76,4.92,5.55,0.07,0.12,4.92-.36,6.67-0.28,3.94,0.19,5.53,3.74,5.24,6.71s-1.34,3.41-4.22,3.78c-10.11,1.33-11.14,3.78-14.47-.27-4.34-5.29-7.51-8-10-12.66-2.23-4.1-3.39-7.14,11.52-20.11C266.36,202.39,274.62,213.69,266.19,219.47Z"/><path id="thumb_forearm" class="cls-13" d="M347.86,254.12c-12.06-14.06-21.14-31.93-43.63-58.16-2.87-3.35-7.43-5.73-11-3.06a8,8,0,0,0-1.46,1.43,8.14,8.14,0,0,0-10.25.22,7.9,7.9,0,0,0-2.5,3.88,7.48,7.48,0,0,0-8.8.79l-19,15.85c2.81,4.07,6.5,6.62,10.34,9-1,1.07-1.46,1.66-1.46,1.66,3.84,4.09,7.33,7.74,10.51,11a1.23,1.23,0,0,1-.15,1.42c-12.7,14.28-27.38-3.89-33.61-11.23-7.33-8.63-20.14-2.61-13.35,5.08,12.73,14.43,14.49,22.55,45.68,38.51,26.19,13.41,34.3-.3,52.38,20.79,22.56,26.31,71.84,127.49,115.73,158.31l51.36-42C468.12,384.15,366.84,276.26,347.86,254.12Z"/><path id="knuckle_shadow" class="cls-12" d="M258.21,209.33s2.25,2.42,5.93,6.3c6.87,7.24-2-9.62,4.56-15Z"/><path id="green_puzzle_piece" class="cls-14" d="M223.55,196.59l0,0c-2.13.9-3.07-.73-2.8-2a5.27,5.27,0,0,0-.49-3.52,5.57,5.57,0,0,0-7.43-2.4,5.42,5.42,0,0,0-2.43,7.33,5.52,5.52,0,0,0,2.59,2.47c1.37,0.65,1.92,2.3.38,3.24l0.05,0-0.06,0-23.75,11.85,10,13.64c1.18,1.3,2.73.52,3.16-.92a5.46,5.46,0,0,1,2.06-2.91,5.57,5.57,0,0,1,7.72,1.21,5.46,5.46,0,0,1-4.67,8.65c-1.38-.06-2.9,1.17-1.5,3.18l9.27,12.6,0.57-.57,0.26-.27a90.72,90.72,0,0,0,14.88-20.58,96.74,96.74,0,0,0,6-13.92,90.8,90.8,0,0,0,3.4-14.36c0.52-3.46.9-8.41,1.05-11.84Z"/><path id="forefinger_shadow-2" data-name="forefinger_shadow" class="cls-7" d="M220,209.58c-8,2.3-4.45,15.1,8.62,12.79,2.32-.41,4.23-0.82,5.84-1.18,1.25-2.8,5-11.64,6.15-18.14C235,204,228.76,207.05,220,209.58Z"/><path id="forefinger" class="cls-13" d="M255.06,206.17c-11.26-10.87-18.93-3.9-36.19,1.08-8,2.3-4.45,15.1,8.62,12.79,14.91-2.64,12.84-5.1,21.75,3.93,3.45,3.49,14.92,16.45,20,25.67,4.63,8.4,19.87-9.81,19.87-9.81S264.26,215.06,255.06,206.17Z"/></g><g id="red_piece_group"><path id="ring_finger-2" data-name="ring_finger" class="cls-12" d="M81.67,113.77C103.19,99.28,114.27,94.64,126,88.69S146.32,83,154,84c10.53,1.38,22.48,2.59,24,4.09,2.33,2.32,1.74,9.47-8.62,10-10.66.51-23-.27-30.34,1.15S93.74,125,93.74,125Z"/><path id="middle_finger-2" data-name="middle_finger" class="cls-15" d="M96.38,104.37c25.5-5.3,37.8-7.39,50.89-8.5s18.19,4.76,25.24,8,15.77,6.68,16.78,8.54c1.29,2.39-1.27,10.17-9.85,8.42C169,118.67,162,114,154.7,112.59s-51.51,6.69-51.51,6.69l-20-6.38Z"/><path id="arm_forefinger" class="cls-13" d="M147.56,114.91c-9.59-2.94-26.73-8.44-36.2-10.33S97.2,103,93,105.82c-3,2-122.46,69.82-196.43,112.46v75.41S50.66,179.21,54.85,176.51c19.67-12.67,28.06-2,41.55-1.23L118,156.79c-16.64,3.46-22.14-14.5-9.71-24s34.46-3,35.77-1-1.21,15.23,2.25,22.68,10.59,5.16,11.81,2c1.92-5-.44-9.95,2-22.64C162.25,122.79,157.15,117.84,147.56,114.91Z"/><path id="red_puzzle_piece" class="cls-16" d="M196.1,155.44a5.6,5.6,0,0,0-3.4,1.15c-1.23.93-3,.64-3.11-1.19V133.18l-52.32,15.18V170h0l11.19,4.18,8.66,3.24h0l0,0.08,1.34,0.5,0.62,0.23c1.89,0.7,1.95,2,1.32,2.89a2.25,2.25,0,0,1-.69.63,5.3,5.3,0,0,0-1.37,1.15,5.43,5.43,0,0,0,2.29,8.61,5.55,5.55,0,0,0,7.12-3.18,5.24,5.24,0,0,0,.31-1.45,5.47,5.47,0,0,0-.07-1.43,5.62,5.62,0,0,0-.15-0.66,2.32,2.32,0,0,1,.06-1.61,1.57,1.57,0,0,1,1.69-.95,2.72,2.72,0,0,1,.67.16l1.95,0.73,0.43,0.16,0,0h0l17,6.34v-23a1.83,1.83,0,0,1,3.1-1.37A5.48,5.48,0,1,0,196.1,155.44Z"/><path id="thumb_shadow-2" data-name="thumb_shadow" class="cls-7" d="M144.52,157.34a13.62,13.62,0,0,0-7.26-2.63V170a22.93,22.93,0,0,1,4.75.26C148.07,171.34,150.55,161.58,144.52,157.34Z"/><path id="thumb-2" data-name="thumb" class="cls-13" d="M118,156.79c15.06-3.13,20-3.87,25.63.06,6,4.24,3.55,14-2.51,12.93-10.59-1.88-31.18,6.24-44.68,5.51"/></g></g></svg>