<svg width="416" height="276" viewBox="0 0 416 276" fill="none" xmlns="http://www.w3.org/2000/svg">
<rect width="416" height="276" rx="48" fill="white"/>
<path d="M158.682 181.882L176.747 206.351C178.595 208.853 179.801 211.636 180.395 214.5H131.323L125.583 206.725C118.778 197.507 120.675 184.473 129.816 177.615C138.956 170.758 151.879 172.667 158.682 181.882Z" fill="#E1E3E1" stroke="#1F1F1F"/>
<rect x="163.5" y="77.5" width="92" height="137" rx="9.5" fill="white" stroke="#1F1F1F"/>
<path d="M187 168H231" stroke="#1F1F1F" stroke-linecap="round"/>
<path d="M187 180H231" stroke="#1F1F1F" stroke-linecap="round"/>
<path d="M187 192H208" stroke="#1F1F1F" stroke-linecap="round"/>
<path d="M233.999 104.817C233.999 102.752 232.704 100.907 230.759 100.202L211.669 93.2925C210.589 92.9025 209.405 92.9025 208.325 93.2925L189.24 100.202C187.295 100.907 186 102.752 186 104.817V117.947C186.045 120.197 186.22 122.372 186.52 124.602C187.94 134.152 193.335 144.966 208.12 152.546C209.3 153.151 210.704 153.151 211.879 152.546C226.664 144.971 232.059 134.152 233.479 124.602C233.779 122.372 233.954 120.202 233.999 117.952V104.817Z" fill="#1967D2"/>
<mask id="mask0_1906_1451" style="mask-type:alpha" maskUnits="userSpaceOnUse" x="186" y="93" width="48" height="60">
<path d="M233.999 104.817C233.999 102.752 232.704 100.907 230.759 100.202L211.669 93.2925C210.589 92.9025 209.405 92.9025 208.325 93.2925L189.24 100.202C187.295 100.907 186 102.752 186 104.817V117.947C186.045 120.197 186.22 122.372 186.52 124.602C187.94 134.152 193.335 144.966 208.12 152.546C209.3 153.151 210.704 153.151 211.879 152.546C226.664 144.971 232.059 134.152 233.479 124.602C233.779 122.372 233.954 120.202 233.999 117.952V104.817Z" fill="#1967D2"/>
</mask>
<g mask="url(#mask0_1906_1451)">
<path d="M209.999 91.7471H180V154.246H209.999V91.7471Z" fill="#185ABC"/>
</g>
<path d="M210 122.775H217.865C217.3 126.06 214.465 128.465 210.295 128.465C205.71 128.465 201.995 124.59 201.995 120.005C201.995 115.42 205.71 111.545 210.295 111.545C212.36 111.545 214.205 112.255 215.665 113.645L219.66 109.65C217.235 107.39 214.07 106 210.295 106C202.565 106 196.295 112.27 196.295 120C196.295 127.73 202.565 133.999 210.295 133.999C218.38 133.999 223.705 128.315 223.705 120.32C223.705 119.295 223.615 118.315 223.445 117.375H210V122.775Z" fill="#E8F0FE"/>
<mask id="mask1_1906_1451" style="mask-type:alpha" maskUnits="userSpaceOnUse" x="196" y="106" width="28" height="28">
<path d="M209.999 122.775H217.864C217.299 126.06 214.464 128.465 210.294 128.465C205.709 128.465 201.994 124.59 201.994 120.005C201.994 115.42 205.709 111.545 210.294 111.545C212.359 111.545 214.204 112.255 215.664 113.645L219.659 109.65C217.234 107.39 214.069 106 210.294 106C202.564 106 196.294 112.27 196.294 120C196.294 127.73 202.564 134 210.294 134C218.379 134 223.704 128.315 223.704 120.32C223.704 119.295 223.614 118.315 223.444 117.375H209.999V122.775Z" fill="#E8F0FE"/>
</mask>
<g mask="url(#mask1_1906_1451)">
<path d="M209.999 105.005H194.999V135.004H209.999V105.005Z" fill="#D2E3FC"/>
</g>
<path d="M293 147.5L279 169H307L293 147.5Z" fill="white"/>
<path d="M279 169L278.581 168.727L278.078 169.5H279V169ZM293 147.5L293.419 147.227C293.327 147.085 293.169 147 293 147C292.831 147 292.673 147.085 292.581 147.227L293 147.5ZM307 169V169.5H307.922L307.419 168.727L307 169ZM279.419 169.273L293.419 147.773L292.581 147.227L278.581 168.727L279.419 169.273ZM279 169.5H307V168.5H279V169.5ZM307.419 168.727L293.419 147.227L292.581 147.773L306.581 169.273L307.419 168.727Z" fill="#1F1F1F"/>
<mask id="path-15-inside-1_1906_1451" fill="white">
<path d="M279 168C277.895 168 276.987 168.899 277.125 169.995C277.566 173.503 279.16 176.787 281.686 179.314C284.687 182.314 288.757 184 293 184C297.243 184 301.313 182.314 304.314 179.314C306.84 176.787 308.434 173.503 308.875 169.995C309.013 168.899 308.105 168 307 168L293 168L279 168Z"/>
</mask>
<path d="M279 168C277.895 168 276.987 168.899 277.125 169.995C277.566 173.503 279.16 176.787 281.686 179.314C284.687 182.314 288.757 184 293 184C297.243 184 301.313 182.314 304.314 179.314C306.84 176.787 308.434 173.503 308.875 169.995C309.013 168.899 308.105 168 307 168L293 168L279 168Z" fill="#FCBD00" stroke="#1F1F1F" stroke-width="2" mask="url(#path-15-inside-1_1906_1451)"/>
<path d="M252 147.5L238 169H266L252 147.5Z" fill="white" stroke="#1F1F1F" stroke-linecap="round" stroke-linejoin="round"/>
<mask id="path-17-inside-2_1906_1451" fill="white">
<path d="M238 168C236.895 168 235.987 168.899 236.125 169.995C236.566 173.503 238.16 176.787 240.686 179.314C243.687 182.314 247.757 184 252 184C256.243 184 260.313 182.314 263.314 179.314C265.84 176.787 267.434 173.503 267.875 169.995C268.013 168.899 267.105 168 266 168L252 168L238 168Z"/>
</mask>
<path d="M238 168C236.895 168 235.987 168.899 236.125 169.995C236.566 173.503 238.16 176.787 240.686 179.314C243.687 182.314 247.757 184 252 184C256.243 184 260.313 182.314 263.314 179.314C265.84 176.787 267.434 173.503 267.875 169.995C268.013 168.899 267.105 168 266 168L252 168L238 168Z" fill="#FCBD00" stroke="#1F1F1F" stroke-width="2" mask="url(#path-17-inside-2_1906_1451)"/>
<path d="M272 203L272 137" stroke="#1F1F1F" stroke-linecap="round"/>
<path d="M252 147.5L293 147.5" stroke="#1F1F1F" stroke-linecap="round"/>
<circle cx="272" cy="134" r="3.5" fill="#FCBD00" stroke="#1F1F1F"/>
<path d="M283 214.5H283.5V214C283.5 210.95 282.288 208.025 280.132 205.868C277.975 203.712 275.05 202.5 272 202.5C268.95 202.5 266.025 203.712 263.868 205.868C261.712 208.025 260.5 210.95 260.5 214L260.5 214.5H261L283 214.5Z" fill="#FCBD00" stroke="#1F1F1F"/>
<path d="M98.419 149.487L109.179 157.821L90.0743 176.726L80.7713 167.423L98.419 149.487Z" fill="#1EA446"/>
<g filter="url(#filter0_b_1906_1451)">
<circle cx="40" cy="40" r="40" transform="matrix(0.707093 0.70712 -0.707093 0.70712 132.989 66)" fill="white" fill-opacity="0.01"/>
<circle cx="40" cy="40" r="39.5" transform="matrix(0.707093 0.70712 -0.707093 0.70712 132.989 66)" stroke="#1F1F1F"/>
</g>
<mask id="mask2_1906_1451" style="mask-type:alpha" maskUnits="userSpaceOnUse" x="80" y="145" width="32" height="32">
<path d="M101.5 145.5L111.5 155.5L92.2881 174.552C89.6783 177.14 85.4674 177.131 82.8685 174.532C80.3079 171.971 80.2561 167.836 82.7518 165.212L101.5 145.5Z" fill="#1EA446"/>
</mask>
<g mask="url(#mask2_1906_1451)">
<rect width="13.927" height="10" transform="matrix(0.707093 0.70712 -0.707093 0.70712 101.449 146.46)" fill="#1F1F1F"/>
</g>
<path d="M97 177L111 163" stroke="#1F1F1F" stroke-linecap="round"/>
<rect x="98" y="214" width="220" height="1" rx="0.5" fill="#1F1F1F"/>
<defs>
<filter id="filter0_b_1906_1451" x="88.6575" y="78.2361" width="88.6636" height="88.667" filterUnits="userSpaceOnUse" color-interpolation-filters="sRGB">
<feFlood flood-opacity="0" result="BackgroundImageFix"/>
<feGaussianBlur in="BackgroundImageFix" stdDeviation="2.16638"/>
<feComposite in2="SourceAlpha" operator="in" result="effect1_backgroundBlur_1906_1451"/>
<feBlend mode="normal" in="SourceGraphic" in2="effect1_backgroundBlur_1906_1451" result="shape"/>
</filter>
</defs>
</svg>
