<svg width="416" height="276" viewBox="0 0 416 276" fill="none" xmlns="http://www.w3.org/2000/svg">
<g filter="url(#filter0_b_1906_1485)">
<path d="M254.063 181.403C252.709 176.333 255.72 171.123 260.788 169.765L282.039 164.071C287.107 162.713 292.312 165.722 293.665 170.791L299.341 192.046C300.694 197.116 297.683 202.326 292.615 203.684L271.364 209.378C266.296 210.736 261.091 207.727 259.738 202.658L254.063 181.403Z" stroke="#1F1F1F"/>
</g>
<g clip-path="url(#clip0_1906_1485)">
<path d="M284.803 177.972L287.909 189.563C288.051 190.094 287.981 190.605 287.698 191.095C287.427 191.564 287.026 191.87 286.495 192.012L271.04 196.154C270.509 196.296 270 196.234 269.515 195.967C269.041 195.68 268.733 195.271 268.591 194.739L265.485 183.148C265.342 182.617 265.407 182.117 265.678 181.647C265.961 181.157 266.368 180.841 266.899 180.699L282.354 176.558C282.885 176.415 283.388 176.488 283.861 176.775C284.347 177.042 284.661 177.441 284.803 177.972ZM267.934 184.562L283.389 180.421L282.871 178.49L267.417 182.631L267.934 184.562ZM268.97 188.426L270.522 194.222L285.977 190.081L284.424 184.285L268.97 188.426ZM270.522 194.222L267.417 182.631L270.522 194.222Z" fill="#1F1F1F"/>
</g>
<rect x="272.183" y="54.683" width="57" height="57" rx="1.5" transform="rotate(30 272.183 54.683)" stroke="#1F1F1F"/>
<g clip-path="url(#clip1_1906_1485)">
<path d="M285.017 88.0418C285.406 88.2661 285.799 88.3162 286.198 88.192C286.618 88.0797 286.934 87.8395 287.146 87.4714C287.37 87.0829 287.42 86.6892 287.296 86.2904C287.204 85.8829 286.964 85.567 286.576 85.3427C286.208 85.1302 285.814 85.0801 285.395 85.1925C284.987 85.2844 284.671 85.5246 284.447 85.9131C284.234 86.2812 284.184 86.6748 284.297 87.0941C284.409 87.5134 284.649 87.8293 285.017 88.0418ZM280.909 95.1577C280.132 94.7091 279.55 94.0871 279.164 93.2917C278.811 92.4877 278.697 91.6452 278.824 90.7642C278.722 90.7052 278.604 90.6505 278.469 90.6001C278.367 90.5411 278.265 90.4821 278.163 90.423C277.14 89.8327 276.473 88.957 276.162 87.7959C275.851 86.6348 275.991 85.543 276.581 84.5207C276.829 84.0913 277.137 83.7236 277.504 83.4177C277.904 83.1032 278.347 82.8548 278.834 82.6725C278.781 82.1509 278.784 81.6487 278.845 81.1657C278.938 80.6742 279.103 80.2239 279.339 79.8149C279.941 78.7721 280.806 78.0994 281.935 77.7969C283.096 77.4858 284.188 77.6254 285.21 78.2157C285.313 78.2747 285.409 78.344 285.499 78.4234C285.622 78.4943 285.735 78.5592 285.837 78.6182C286.536 78.0678 287.317 77.755 288.178 77.6798C289.072 77.5959 289.907 77.7783 290.684 78.2269C291.461 78.6755 292.026 79.3018 292.38 80.1058C292.766 80.9012 292.896 81.7394 292.769 82.6203C292.871 82.6793 292.973 82.7384 293.075 82.7974C293.21 82.8478 293.328 82.9025 293.43 82.9615C294.453 83.5518 295.109 84.4216 295.4 85.5709C295.711 86.732 295.572 87.8238 294.981 88.8462C294.745 89.2551 294.438 89.6228 294.058 89.9491C293.691 90.2549 293.258 90.5093 292.759 90.7121C292.824 91.2131 292.81 91.7095 292.717 92.2011C292.656 92.684 292.502 93.1402 292.254 93.5696C291.664 94.592 290.788 95.2588 289.627 95.5699C288.486 95.8928 287.405 95.7591 286.383 95.1689C286.28 95.1098 286.168 95.0449 286.045 94.9741C285.955 94.8946 285.858 94.8253 285.756 94.7663C285.057 95.3167 284.26 95.6338 283.367 95.7177C282.505 95.793 281.686 95.6063 280.909 95.1577ZM275.809 103.991C276.659 102.519 277.764 101.289 279.124 100.303C280.497 99.2954 281.973 98.5801 283.553 98.1566C285.166 97.7245 286.808 97.5957 288.48 97.77C290.171 97.9562 291.754 98.4743 293.226 99.3243C292.376 100.797 291.265 102.036 289.893 103.043C288.532 104.03 287.046 104.74 285.433 105.172C283.853 105.595 282.216 105.714 280.525 105.528C278.853 105.353 277.281 104.841 275.809 103.991ZM280.066 102.85C281.708 103.171 283.287 103.128 284.803 102.722C286.33 102.295 287.719 101.543 288.968 100.465C287.347 100.156 285.769 100.199 284.232 100.593C282.716 101 281.328 101.752 280.066 102.85ZM275.809 103.991C276.659 102.519 277.171 100.947 277.346 99.2756C277.532 97.5836 277.403 95.9416 276.959 94.3493C276.547 92.7485 275.838 91.262 274.831 89.8898C273.844 88.5295 272.614 87.4243 271.142 86.5743C270.292 88.0465 269.774 89.6286 269.588 91.3205C269.414 92.992 269.532 94.6282 269.944 96.229C270.388 97.8213 271.103 99.2975 272.09 100.658C273.097 102.03 274.337 103.141 275.809 103.991ZM274.668 99.7337C273.57 98.4724 272.817 97.0838 272.411 95.5679C272.017 94.0316 271.974 92.4528 272.283 90.8317C273.361 92.0812 274.103 93.4639 274.509 94.9798C274.936 96.5075 274.989 98.0921 274.668 99.7337ZM287.658 92.9605C288.087 93.2084 288.527 93.2719 288.979 93.1509C289.463 93.0212 289.829 92.7417 290.077 92.3123C290.254 92.0056 290.325 91.6926 290.292 91.3732C290.27 91.0334 290.167 90.7152 289.984 90.4186L289.094 89.1275C288.911 89.3492 288.714 89.549 288.502 89.7267C288.291 89.9044 288.064 90.06 287.824 90.1937C287.603 90.3391 287.358 90.4567 287.088 90.5462C286.839 90.6476 286.571 90.7109 286.284 90.7359L286.958 92.1886C287.001 92.3499 287.083 92.4923 287.202 92.6158C287.322 92.7394 287.473 92.8542 287.658 92.9605ZM289.554 88.33L291.117 88.4556C291.466 88.4659 291.782 88.3897 292.067 88.227C292.372 88.076 292.608 87.8574 292.773 87.5712C293.021 87.1418 293.084 86.7013 292.963 86.2497C292.854 85.7777 292.585 85.4178 292.155 85.1699C291.992 85.0754 291.827 85.0073 291.66 84.9656C291.493 84.9238 291.315 84.9026 291.124 84.9017L289.529 85.044C289.619 85.3138 289.692 85.5879 289.749 85.8664C289.819 86.1244 289.855 86.3911 289.86 86.6664C289.865 86.9417 289.843 87.2155 289.795 87.4876C289.747 87.7598 289.667 88.0406 289.554 88.33ZM286.324 82.6619C286.608 82.6895 286.874 82.7478 287.123 82.8368C287.383 82.9053 287.626 83.0045 287.851 83.1343C288.076 83.2642 288.283 83.4247 288.472 83.6159C288.674 83.7867 288.857 83.9881 289.023 84.2202L290.128 82.7315C290.393 82.3667 290.439 81.9568 290.265 81.5021C290.103 81.027 289.818 80.6713 289.409 80.4352C289 80.1991 288.549 80.1298 288.057 80.2271C287.576 80.3041 287.244 80.5486 287.061 80.9607L286.324 82.6619ZM282.184 92.9493C282.593 93.1854 283.038 93.265 283.518 93.1881C284.011 93.0907 284.355 92.8257 284.55 92.3931L285.269 90.7226C284.985 90.695 284.713 90.6469 284.453 90.5784C284.204 90.4895 283.967 90.38 283.742 90.2502C283.517 90.1203 283.304 89.97 283.103 89.7993C282.913 89.6081 282.736 89.3964 282.57 89.1643L281.483 90.6223C281.206 91.0077 281.148 91.4379 281.31 91.9131C281.484 92.3678 281.775 92.7132 282.184 92.9493ZM282.499 84.2571C282.694 84.0149 282.897 83.8049 283.108 83.6272C283.32 83.4495 283.546 83.2938 283.787 83.1602C284.007 83.0147 284.236 82.9015 284.474 82.8206C284.744 82.731 285.028 82.6634 285.327 82.6179L284.635 81.1959C284.592 81.0347 284.51 80.8923 284.391 80.7687C284.271 80.6452 284.119 80.5303 283.935 80.424C283.506 80.1761 283.049 80.117 282.566 80.2466C282.114 80.3676 281.764 80.6428 281.516 81.0722C281.351 81.3585 281.279 81.6715 281.301 82.0113C281.323 82.3512 281.426 82.6694 281.609 82.966L282.499 84.2571ZM279.455 88.184C279.619 88.2784 279.784 88.3465 279.951 88.3883C280.117 88.43 280.302 88.4411 280.504 88.4215L282.082 88.3099C281.98 88.0605 281.901 87.7966 281.844 87.5181C281.786 87.2396 281.749 86.973 281.733 86.7181C281.749 86.4546 281.77 86.1809 281.798 85.8969C281.858 85.6043 281.938 85.3235 282.039 85.0545L280.476 84.929C280.127 84.9186 279.8 84.9889 279.495 85.1399C279.21 85.3026 278.985 85.5271 278.82 85.8134C278.604 86.2341 278.541 86.6746 278.63 87.1348C278.751 87.5863 279.026 87.9361 279.455 88.184Z" fill="#1F1F1F"/>
</g>
<g filter="url(#filter1_b_1906_1485)">
<circle cx="213" cy="141" r="62" fill="white" fill-opacity="0.01"/>
<circle cx="213" cy="141" r="61.5" stroke="#1F1F1F"/>
</g>
<g clip-path="url(#clip2_1906_1485)">
<path d="M240.82 141.171C240.82 139.079 240.632 137.067 240.284 135.136H212.5V146.548H228.376C227.693 150.235 225.614 153.359 222.49 155.451V162.853H232.024C237.602 157.717 240.82 150.155 240.82 141.171Z" fill="#4285F4"/>
<path d="M212.5 170C220.465 170 227.143 167.358 232.024 162.853L222.49 155.451C219.848 157.221 216.469 158.267 212.5 158.267C204.817 158.267 198.313 153.078 195.993 146.105H186.138V153.748C190.992 163.389 200.968 170 212.5 170Z" fill="#34A853"/>
<path d="M195.993 146.105C195.403 144.335 195.068 142.444 195.068 140.5C195.068 138.556 195.403 136.665 195.993 134.895V127.252H186.138C184.14 131.234 183 135.74 183 140.5C183 145.26 184.14 149.766 186.138 153.748L195.993 146.105Z" fill="#FBBC05"/>
<path d="M212.5 122.733C216.831 122.733 220.72 124.221 223.777 127.145L232.238 118.683C227.129 113.923 220.452 111 212.5 111C200.968 111 190.992 117.611 186.138 127.252L195.993 134.895C198.313 127.922 204.817 122.733 212.5 122.733Z" fill="#EA4335"/>
</g>
<path d="M146.241 157.7C150.232 152.767 157.768 152.767 161.759 157.7C163.621 160.002 166.436 161.38 169.367 161.425C175.65 161.521 180.348 167.51 179.042 173.758C178.433 176.673 179.128 179.769 180.921 182.127C184.764 187.18 183.088 194.648 177.468 197.506C174.846 198.839 172.898 201.323 172.203 204.217C170.713 210.423 163.924 213.747 158.222 211.062C155.562 209.81 152.438 209.81 149.778 211.062C144.076 213.747 137.287 210.423 135.797 204.217C135.102 201.323 133.154 198.839 130.532 197.506C124.912 194.648 123.236 187.18 127.079 182.127C128.872 179.769 129.567 176.673 128.958 173.758C127.652 167.51 132.35 161.521 138.633 161.425C141.564 161.38 144.379 160.002 146.241 157.7Z" fill="#37BE5F"/>
<g clip-path="url(#clip3_1906_1485)">
<path d="M151.097 192.922L143.053 184.878L145.081 182.85L151.097 188.866L163.919 176.044L165.947 178.072L151.097 192.922Z" fill="#1F1F1F"/>
</g>
<path d="M113.59 146.397C87.1688 118.39 50.717 144.492 65.9767 157.389C81.2365 170.286 111.633 126.837 92.5186 106.107" stroke="#1F1F1F" stroke-linecap="round"/>
<circle cx="86" cy="101" r="4" fill="#1F1F1F"/>
<rect x="0.576436" y="0.407939" width="60" height="37" rx="5.5" transform="matrix(0.985443 -0.170006 0.167429 0.985884 121.3 80.5807)" fill="white" stroke="#1F1F1F"/>
<path d="M124.958 80.7222L151.564 76.1321L178.171 71.5419L157.445 103.255C156.932 104.041 155.859 104.226 155.112 103.658L124.958 80.7222Z" fill="#1F1F1F"/>
<path d="M126.619 80.8017L151.567 76.4978L176.514 72.1939L156.8 100.106C156.285 100.836 155.276 101.01 154.546 100.495L126.619 80.8017Z" fill="white"/>
<path d="M302 177C308.519 175.33 322.444 167.392 326 149" stroke="#1F1F1F" stroke-linecap="round"/>
<path d="M328.908 147.645C326.965 144.967 326.794 140.414 327.156 140.151C327.518 139.888 331.792 141.46 333.736 144.138C334.708 145.477 334.411 147.343 333.074 148.306C331.736 149.278 329.871 148.982 328.908 147.645Z" fill="#1F1F1F"/>
<path d="M325.404 132.658C327.348 135.336 327.518 139.889 327.156 140.152C326.794 140.415 322.52 138.843 320.577 136.165C319.605 134.826 319.901 132.96 321.238 131.997C322.575 131.034 324.44 131.33 325.404 132.658Z" fill="#1F1F1F"/>
<path d="M319.665 141.905C322.342 139.96 326.893 139.789 327.156 140.151C327.418 140.513 325.847 144.789 323.17 146.734C321.831 147.706 319.966 147.41 319.004 146.073C318.031 144.743 318.327 142.877 319.665 141.905Z" fill="#1F1F1F"/>
<path d="M334.645 138.407C331.968 140.352 327.417 140.523 327.154 140.161C326.892 139.799 328.463 135.523 331.14 133.578C332.479 132.606 334.344 132.902 335.306 134.239C336.269 135.577 335.983 137.435 334.645 138.407Z" fill="#1F1F1F"/>
<defs>
<filter id="filter0_b_1906_1485" x="248.238" y="158.245" width="56.9258" height="56.9589" filterUnits="userSpaceOnUse" color-interpolation-filters="sRGB">
<feFlood flood-opacity="0" result="BackgroundImageFix"/>
<feGaussianBlur in="BackgroundImageFix" stdDeviation="2.5"/>
<feComposite in2="SourceAlpha" operator="in" result="effect1_backgroundBlur_1906_1485"/>
<feBlend mode="normal" in="SourceGraphic" in2="effect1_backgroundBlur_1906_1485" result="shape"/>
</filter>
<filter id="filter1_b_1906_1485" x="145.329" y="73.3288" width="135.342" height="135.342" filterUnits="userSpaceOnUse" color-interpolation-filters="sRGB">
<feFlood flood-opacity="0" result="BackgroundImageFix"/>
<feGaussianBlur in="BackgroundImageFix" stdDeviation="2.8356"/>
<feComposite in2="SourceAlpha" operator="in" result="effect1_backgroundBlur_1906_1485"/>
<feBlend mode="normal" in="SourceGraphic" in2="effect1_backgroundBlur_1906_1485" result="shape"/>
</filter>
<clipPath id="clip0_1906_1485">
<rect width="24" height="24" fill="white" transform="translate(262 177.87) rotate(-15)"/>
</clipPath>
<clipPath id="clip1_1906_1485">
<rect width="24" height="34" fill="white" transform="translate(281 71) rotate(30)"/>
</clipPath>
<clipPath id="clip2_1906_1485">
<rect width="59" height="59" fill="white" transform="translate(183 111)"/>
</clipPath>
<clipPath id="clip3_1906_1485">
<rect width="25" height="25" fill="white" transform="translate(142 172)"/>
</clipPath>
</defs>
</svg>
