<svg width="416" height="276" viewBox="0 0 416 276" fill="none" xmlns="http://www.w3.org/2000/svg">
<rect x="85.5" y="202.5" width="109" height="176" rx="19.5" transform="rotate(-90 85.5 202.5)" fill="white" stroke="#1F1F1F"/>
<rect x="95" y="193" width="90" height="74" rx="10" transform="rotate(-90 95 193)" fill="#E1E3E1"/>
<rect x="177" y="103" width="74" height="41" rx="10" fill="#E1E3E1"/>
<rect x="177" y="152" width="74" height="41" rx="10" fill="#E1E3E1"/>
<rect x="109" y="160" width="45" height="3" rx="1.5" fill="#1F1F1F"/>
<rect x="109" y="168" width="28" height="3" rx="1.5" fill="#1F1F1F"/>
<path d="M229.5 202.5C232.814 202.5 235.5 205.186 235.5 208.5C235.5 211.814 232.814 214.5 229.5 214.5L116.5 214.5C113.186 214.5 110.5 211.814 110.5 208.5C110.5 205.186 113.186 202.5 116.5 202.5L229.5 202.5Z" fill="#E1E3E1" stroke="#1F1F1F"/>
<g filter="url(#filter0_b_1906_1510)">
<path d="M122.761 112.69C124.791 111.631 127.209 111.631 129.239 112.69L131.581 113.913C131.947 114.104 132.328 114.262 132.722 114.385L135.243 115.177C137.426 115.863 139.137 117.574 139.823 119.757L140.615 122.278C140.738 122.672 140.896 123.053 141.087 123.419L142.31 125.761C143.369 127.791 143.369 130.209 142.31 132.239L141.087 134.581C140.896 134.947 140.738 135.328 140.615 135.722L139.823 138.243C139.137 140.426 137.426 142.137 135.243 142.823L132.722 143.615C132.328 143.738 131.947 143.896 131.581 144.087L129.239 145.31C127.209 146.369 124.791 146.369 122.761 145.31L120.419 144.087C120.053 143.896 119.672 143.738 119.278 143.615L116.757 142.823C114.574 142.137 112.863 140.426 112.177 138.243L111.385 135.722C111.262 135.328 111.104 134.947 110.913 134.581L109.69 132.239C108.631 130.209 108.631 127.791 109.69 125.761L110.913 123.419C111.104 123.053 111.262 122.672 111.385 122.278L112.177 119.757C112.863 117.574 114.574 115.863 116.757 115.177L119.278 114.385C119.672 114.262 120.053 114.104 120.419 113.913L122.761 112.69Z" fill="#FCBD00"/>
</g>
<g filter="url(#filter1_b_1906_1510)">
<path d="M122.761 117.69C124.791 116.631 127.209 116.631 129.239 117.69L129.878 118.024C130.244 118.215 130.625 118.373 131.019 118.496L131.707 118.713C133.891 119.399 135.601 121.109 136.287 123.293L136.504 123.981C136.627 124.375 136.785 124.756 136.976 125.122L137.31 125.761C138.369 127.791 138.369 130.209 137.31 132.239L136.976 132.878C136.785 133.244 136.627 133.625 136.504 134.019L136.287 134.707C135.601 136.891 133.891 138.601 131.707 139.287L131.019 139.504C130.625 139.627 130.244 139.785 129.878 139.976L129.239 140.31C127.209 141.369 124.791 141.369 122.761 140.31L122.122 139.976C121.756 139.785 121.375 139.627 120.981 139.504L120.293 139.287C118.109 138.601 116.399 136.891 115.713 134.707L115.496 134.019C115.373 133.625 115.215 133.244 115.024 132.878L114.69 132.239C113.631 130.209 113.631 127.791 114.69 125.761L115.024 125.122C115.215 124.756 115.373 124.375 115.496 123.981L115.713 123.293C116.399 121.109 118.109 119.399 120.293 118.713L120.981 118.496C121.375 118.373 121.756 118.215 122.122 118.024L122.761 117.69Z" fill="#FCBD00"/>
</g>
<path fill-rule="evenodd" clip-rule="evenodd" d="M156 137C156 144.18 150.18 150 143 150C142.664 150 142.33 149.987 142 149.962C142 149.975 142 149.987 142 150H134.5L127.006 150C127.004 150 127.002 150 127 150C122.029 150 118 145.971 118 141C118 136.029 122.029 132 127 132C128.317 132 129.569 132.283 130.696 132.792C132.445 127.677 137.293 124 143 124C150.18 124 156 129.82 156 137Z" fill="white"/>
<circle cx="173.5" cy="99.5" r="2.5" fill="#1F1F1F"/>
<rect x="159" y="214" width="188" height="1" rx="0.5" fill="#1F1F1F"/>
<mask id="path-14-inside-1_1906_1510" fill="white">
<path fill-rule="evenodd" clip-rule="evenodd" d="M297.665 141.314C312.558 135.075 329.499 141.523 335.582 156.043C342.218 171.884 334.09 201.24 330.614 212.239C329.875 214.577 327.291 215.659 325.106 214.546C314.828 209.309 288.204 194.511 281.568 178.67C275.485 164.15 282.773 147.552 297.665 141.314Z"/>
</mask>
<path d="M297.989 142.085C312.485 136.013 328.918 142.301 334.81 156.366L336.354 155.719C330.08 140.744 312.631 134.137 297.342 140.542L297.989 142.085ZM334.81 156.366C338.032 164.057 337.697 175.154 336.063 185.83C334.435 196.464 331.548 206.507 329.816 211.986L331.412 212.491C333.156 206.972 336.071 196.838 337.717 186.083C339.357 175.371 339.768 163.869 336.354 155.719L334.81 156.366ZM325.485 213.801C320.365 211.192 311.182 206.205 302.461 199.906C293.705 193.583 285.561 186.037 282.339 178.347L280.796 178.993C284.21 187.143 292.696 194.918 301.481 201.263C310.301 207.633 319.569 212.664 324.726 215.291L325.485 213.801ZM282.339 178.347C276.447 164.282 283.492 148.158 297.989 142.085L297.342 140.542C282.053 146.947 274.523 164.017 280.796 178.993L282.339 178.347ZM329.816 211.986C329.233 213.832 327.21 214.679 325.485 213.801L324.726 215.291C327.371 216.639 330.517 215.322 331.412 212.491L329.816 211.986Z" fill="#1F1F1F" mask="url(#path-14-inside-1_1906_1510)"/>
<rect x="239" y="92" width="43" height="111" fill="white"/>
<mask id="mask0_1906_1510" style="mask-type:alpha" maskUnits="userSpaceOnUse" x="238" y="72" width="70" height="144">
<rect x="238.5" y="72.5" width="69" height="143" rx="11.5" fill="white" stroke="#1F1F1F"/>
</mask>
<g mask="url(#mask0_1906_1510)">
<path fill-rule="evenodd" clip-rule="evenodd" d="M335.582 156.042C329.499 141.522 312.558 135.075 297.665 141.313C282.773 147.552 275.485 164.149 281.568 178.67C288.204 194.51 314.828 209.309 325.106 214.546C327.291 215.659 329.875 214.577 330.614 212.238C334.09 201.24 342.218 171.883 335.582 156.042ZM303.448 158.058C300.01 160.184 298.946 164.695 301.072 168.134C303.198 171.572 307.709 172.636 311.148 170.51C314.586 168.384 315.65 163.873 313.524 160.434C311.398 156.996 306.887 155.932 303.448 158.058Z" fill="#0B57D0"/>
</g>
<path d="M308 104C308.552 104 309 104.448 309 105V110C309 110.552 308.552 111 308 111V104Z" fill="#1F1F1F"/>
<path d="M308 92C308.552 92 309 92.4477 309 93V101C309 101.552 308.552 102 308 102V92Z" fill="#1F1F1F"/>
<rect x="238.5" y="71.5" width="69" height="143" rx="11.5" stroke="#1F1F1F"/>
<circle cx="273.5" cy="76.5" r="1.5" fill="#1F1F1F"/>
<path d="M324.5 95.5L314 132.5" stroke="#1F1F1F" stroke-linecap="round"/>
<path d="M238 78.5C252.636 78.5 264.5 90.3645 264.5 105C264.5 119.636 252.636 131.5 238 131.5L217.75 131.5C214.298 131.5 211.5 128.702 211.5 125.25L211.5 105C211.5 90.3645 223.364 78.5 238 78.5Z" fill="white" stroke="#1F1F1F"/>
<g clip-path="url(#clip0_1906_1510)">
<path d="M228.25 101.325L227.05 98.7L224.425 97.5L227.05 96.3L228.25 93.675L229.45 96.3L232.075 97.5L229.45 98.7L228.25 101.325ZM246.625 96.825L245.913 95.2125L244.3 94.5L245.913 93.7875L246.625 92.175L247.338 93.7875L248.95 94.5L247.338 95.2125L246.625 96.825ZM249.288 102.825L248.575 101.212L246.963 100.5L248.575 99.7875L249.288 98.175L250 99.7875L251.575 100.5L250 101.212L249.288 102.825ZM238 108.45C237.025 108.45 236.2 108.1 235.525 107.4C234.85 106.7 234.513 105.862 234.513 104.887V95.7375C234.513 94.7625 234.85 93.9375 235.525 93.2625C236.2 92.5875 237.025 92.25 238 92.25C238.975 92.25 239.8 92.5875 240.475 93.2625C241.15 93.9375 241.488 94.7625 241.488 95.7375V104.887C241.488 105.862 241.15 106.7 240.475 107.4C239.8 108.1 238.975 108.45 238 108.45ZM237.025 119.625V114.487C234.525 114.237 232.438 113.2 230.763 111.375C229.088 109.55 228.25 107.387 228.25 104.887H230.238C230.238 107.037 230.988 108.862 232.488 110.362C234.013 111.837 235.85 112.575 238 112.575C240.15 112.575 241.975 111.837 243.475 110.362C245 108.862 245.763 107.037 245.763 104.887H247.75C247.75 107.387 246.913 109.55 245.238 111.375C243.563 113.2 241.475 114.237 238.975 114.487V119.625H237.025Z" fill="#1F1F1F"/>
</g>
<path d="M238 151L218 132H238V151Z" fill="black"/>
<rect x="297.775" y="161.883" width="14.4736" height="14.4736" rx="7.23679" transform="rotate(-31.7293 297.775 161.883)" fill="white" stroke="#1F1F1F" stroke-width="1.1262"/>
<path d="M324.212 84.0052C325.07 80.8093 328.499 77.8108 328.932 77.9265C329.364 78.0422 330.833 82.3523 329.976 85.5482C329.548 87.1461 327.911 88.0908 326.322 87.6582C324.723 87.2304 323.779 85.5948 324.212 84.0052Z" fill="#1F1F1F"/>
<path d="M333.651 71.848C332.793 75.0439 329.364 78.0424 328.931 77.9267C328.499 77.811 327.03 73.5009 327.887 70.305C328.315 68.7071 329.952 67.7624 331.541 68.195C333.131 68.6276 334.076 70.2632 333.651 71.848Z" fill="#1F1F1F"/>
<path d="M322.854 73.2109C326.05 74.0666 329.048 77.4943 328.932 77.9265C328.816 78.3587 324.504 79.8296 321.308 78.974C319.71 78.5462 318.766 76.9106 319.199 75.321C319.619 73.7278 321.255 72.7831 322.854 73.2109Z" fill="#1F1F1F"/>
<path d="M335.001 82.647C331.805 81.7913 328.807 78.3636 328.923 77.9314C329.039 77.4992 333.35 76.0283 336.547 76.884C338.145 77.3118 339.089 78.9473 338.656 80.537C338.222 82.1266 336.599 83.0748 335.001 82.647Z" fill="#1F1F1F"/>
<defs>
<filter id="filter0_b_1906_1510" x="104.141" y="107.141" width="43.7184" height="43.7184" filterUnits="userSpaceOnUse" color-interpolation-filters="sRGB">
<feFlood flood-opacity="0" result="BackgroundImageFix"/>
<feGaussianBlur in="BackgroundImageFix" stdDeviation="2.37761"/>
<feComposite in2="SourceAlpha" operator="in" result="effect1_backgroundBlur_1906_1510"/>
<feBlend mode="normal" in="SourceGraphic" in2="effect1_backgroundBlur_1906_1510" result="shape"/>
</filter>
<filter id="filter1_b_1906_1510" x="109.141" y="112.141" width="33.7184" height="33.7184" filterUnits="userSpaceOnUse" color-interpolation-filters="sRGB">
<feFlood flood-opacity="0" result="BackgroundImageFix"/>
<feGaussianBlur in="BackgroundImageFix" stdDeviation="2.37761"/>
<feComposite in2="SourceAlpha" operator="in" result="effect1_backgroundBlur_1906_1510"/>
<feBlend mode="normal" in="SourceGraphic" in2="effect1_backgroundBlur_1906_1510" result="shape"/>
</filter>
<clipPath id="clip0_1906_1510">
<rect width="40" height="40" fill="white" transform="translate(218 85)"/>
</clipPath>
</defs>
</svg>
