<svg width="416" height="276" viewBox="0 0 416 276" fill="none" xmlns="http://www.w3.org/2000/svg">
<path d="M236 97H154C147.373 97 142 102.373 142 109L142 191C142 197.627 147.373 203 154 203H217.874H236C242.627 203 248 197.627 248 191V113.737V109C248 102.373 242.627 97 236 97Z" fill="white" stroke="#1F1F1F"/>
<path d="M153 126H188" stroke="#1F1F1F" stroke-linecap="round"/>
<path d="M153 143H188" stroke="#1F1F1F" stroke-linecap="round"/>
<path d="M160 135H201" stroke="#1F1F1F" stroke-linecap="round"/>
<path d="M210 135H231" stroke="#1F1F1F" stroke-linecap="round"/>
<path d="M153 166H188" stroke="#1F1F1F" stroke-linecap="round"/>
<path d="M153 183H188" stroke="#1F1F1F" stroke-linecap="round"/>
<path d="M160 175H201" stroke="#1F1F1F" stroke-linecap="round"/>
<path d="M210 175H231" stroke="#1F1F1F" stroke-linecap="round"/>
<circle cx="156.5" cy="108.5" r="3" stroke="#1F1F1F"/>
<circle cx="166.5" cy="108.5" r="3" stroke="#1F1F1F"/>
<circle cx="177.5" cy="108.5" r="3" stroke="#1F1F1F"/>
<path d="M125 104.5C137.979 104.5 148.5 115.021 148.5 128L148.5 167.5L133 167.5C115.603 167.5 101.5 153.397 101.5 136L101.5 128C101.5 115.021 112.021 104.5 125 104.5Z" fill="white" stroke="#1F1F1F"/>
<path d="M122 183L84 159" stroke="#1F1F1F" stroke-linecap="round"/>
<path d="M203.708 110.058C203.788 114.003 204.093 117.94 204.622 121.849C207.128 138.766 216.625 157.928 242.653 171.355C243.688 171.888 244.835 172.167 246 172.167C247.164 172.167 248.312 171.888 249.347 171.355C275.377 157.925 284.872 138.764 287.378 121.847C287.907 117.938 288.212 114.002 288.291 110.058V86.6966C288.291 84.9088 287.741 83.1643 286.714 81.7006C285.688 80.2369 284.235 79.125 282.554 78.5161L248.963 66.3531C247.048 65.6597 244.951 65.6597 243.037 66.3531L209.445 78.5161C207.764 79.125 206.312 80.2369 205.285 81.7006C204.259 83.1643 203.708 84.9088 203.708 86.6966V110.058Z" fill="#1967D2"/>
<mask id="mask0_1906_1553" style="mask-type:alpha" maskUnits="userSpaceOnUse" x="203" y="65" width="86" height="108">
<path d="M203.708 110.058C203.788 114.003 204.093 117.94 204.622 121.849C207.128 138.766 216.625 157.928 242.653 171.355C243.688 171.888 244.835 172.167 246 172.167C247.164 172.167 248.312 171.888 249.347 171.355C275.377 157.925 284.872 138.764 287.378 121.847C287.907 117.938 288.212 114.002 288.291 110.058V86.6966C288.291 84.9088 287.741 83.1643 286.714 81.7006C285.688 80.2369 284.235 79.125 282.554 78.5161L248.963 66.3531C247.048 65.6597 244.951 65.6597 243.037 66.3531L209.445 78.5161C207.764 79.125 206.312 80.2369 205.285 81.7006C204.259 83.1643 203.708 84.9088 203.708 86.6966V110.058Z" fill="#1967D2"/>
</mask>
<g mask="url(#mask0_1906_1553)">
<path d="M246 64.625H192.833V173.375H246V64.625Z" fill="#185ABC"/>
</g>
<path d="M246.001 118.463H259.918C258.923 124.27 253.903 128.527 246.523 128.527C238.412 128.527 231.838 121.671 231.838 113.563C231.838 105.454 238.412 98.5981 246.523 98.5981C250.166 98.5981 253.444 99.8536 256.026 102.311L263.093 95.2419C258.801 91.247 253.204 88.7917 246.523 88.7917C239.953 88.7917 233.653 91.4015 229.007 96.047C224.362 100.692 221.752 106.993 221.752 113.563C221.752 120.132 224.362 126.433 229.007 131.078C233.653 135.724 239.953 138.333 246.523 138.333C260.829 138.333 270.249 128.277 270.249 114.126C270.252 112.38 270.097 110.638 269.788 108.919H246.001V118.463Z" fill="#E8F0FE"/>
<mask id="mask1_1906_1553" style="mask-type:alpha" maskUnits="userSpaceOnUse" x="221" y="88" width="50" height="51">
<path d="M246.001 118.463H259.918C258.923 124.27 253.903 128.527 246.523 128.527C238.412 128.527 231.838 121.671 231.838 113.563C231.838 105.454 238.412 98.5981 246.523 98.5981C250.166 98.5981 253.444 99.8536 256.026 102.311L263.093 95.2419C258.801 91.247 253.204 88.7917 246.523 88.7917C239.953 88.7917 233.653 91.4015 229.007 96.047C224.362 100.692 221.752 106.993 221.752 113.563C221.752 120.132 224.362 126.433 229.007 131.078C233.653 135.724 239.953 138.333 246.523 138.333C260.829 138.333 270.249 128.277 270.249 114.126C270.252 112.38 270.097 110.638 269.788 108.919H246.001V118.463Z" fill="#E8F0FE"/>
</mask>
<g mask="url(#mask1_1906_1553)">
<path d="M246.001 87.5022H221.23V139.625H246.001V87.5022Z" fill="#D2E3FC"/>
</g>
<path d="M295 109C294.908 113.601 294.554 118.193 293.942 122.754C291.902 136.619 285.866 151.776 272 165" stroke="#1F1F1F"/>
<g clip-path="url(#clip0_1906_1553)">
<path d="M130.15 143.7L124.1 137.6C123.767 137.733 123.425 137.833 123.075 137.9C122.742 137.967 122.383 138 122 138C120.333 138 118.917 137.417 117.75 136.25C116.583 135.083 116 133.667 116 132C116 131.4 116.083 130.833 116.25 130.3C116.417 129.75 116.65 129.233 116.95 128.75L120.6 132.4L122.4 130.6L118.75 126.95C119.233 126.65 119.742 126.417 120.275 126.25C120.825 126.083 121.4 126 122 126C123.667 126 125.083 126.583 126.25 127.75C127.417 128.917 128 130.333 128 132C128 132.383 127.967 132.75 127.9 133.1C127.833 133.433 127.733 133.767 127.6 134.1L133.7 140.15C133.9 140.35 134 140.592 134 140.875C134 141.158 133.9 141.4 133.7 141.6L131.6 143.7C131.4 143.9 131.158 144 130.875 144C130.592 144 130.35 143.9 130.15 143.7ZM130.875 141.575L131.55 140.9L125.15 134.5C125.45 134.167 125.667 133.783 125.8 133.35C125.933 132.9 126 132.45 126 132C126 131 125.675 130.133 125.025 129.4C124.392 128.65 123.6 128.2 122.65 128.05L124.5 129.9C124.7 130.1 124.8 130.333 124.8 130.6C124.8 130.867 124.7 131.1 124.5 131.3L121.3 134.5C121.1 134.7 120.867 134.8 120.6 134.8C120.333 134.8 120.1 134.7 119.9 134.5L118.05 132.65C118.2 133.6 118.642 134.4 119.375 135.05C120.125 135.683 121 136 122 136C122.433 136 122.867 135.933 123.3 135.8C123.733 135.667 124.125 135.458 124.475 135.175L130.875 141.575Z" fill="#1F1F1F"/>
</g>
<defs>
<clipPath id="clip0_1906_1553">
<rect width="24" height="24" fill="white" transform="translate(113 123)"/>
</clipPath>
</defs>
</svg>
