<svg width="416" height="276" viewBox="0 0 416 276" fill="none" xmlns="http://www.w3.org/2000/svg">
<rect x="112" y="69" width="56" height="56" rx="14" fill="#B3261E"/>
<path d="M152.285 87.8542V103.54C152.285 104.177 152.051 104.73 151.583 105.198C151.116 105.665 150.563 105.899 149.926 105.899H129.139C128.501 105.899 127.949 105.665 127.481 105.198C127.014 104.73 126.78 104.177 126.78 103.54V87.8542C126.78 87.2166 127.014 86.664 127.481 86.1964C127.949 85.7288 128.501 85.495 129.139 85.495H149.926C150.563 85.495 151.116 85.7288 151.583 86.1964C152.051 86.664 152.285 87.2166 152.285 87.8542ZM129.139 90.6598H149.926V87.8542H129.139V90.6598ZM129.139 95.5057V103.54H149.926V95.5057H129.139ZM129.139 103.54V87.8542V103.54Z" fill="#E9EEF6"/>
<rect x="251" y="151" width="56" height="56" rx="28" fill="#146C2E"/>
<g filter="url(#filter0_b_1906_1582)">
<circle cx="208" cy="141" r="62" fill="white" fill-opacity="0.01"/>
<circle cx="208" cy="141" r="61.5" stroke="#1F1F1F"/>
</g>
<path d="M235.82 141.171C235.82 139.079 235.632 137.068 235.284 135.137H207.5V146.548H223.376C222.693 150.235 220.614 153.36 217.49 155.451V162.853H227.024C232.602 157.718 235.82 150.155 235.82 141.171Z" fill="#1F1F1F"/>
<path d="M207.5 170C215.465 170 222.143 167.358 227.024 162.853L217.49 155.451C214.848 157.221 211.469 158.267 207.5 158.267C199.817 158.267 193.313 153.078 190.993 146.105H181.138V153.748C185.992 163.389 195.968 170 207.5 170Z" fill="#1F1F1F"/>
<path d="M190.993 146.105C190.403 144.335 190.068 142.444 190.068 140.5C190.068 138.555 190.403 136.665 190.993 134.895V127.251H181.138C179.14 131.234 178 135.739 178 140.5C178 145.26 179.14 149.765 181.138 153.748L190.993 146.105Z" fill="#1F1F1F"/>
<path d="M207.5 122.733C211.831 122.733 215.72 124.221 218.777 127.145L227.238 118.683C222.129 113.923 215.452 111 207.5 111C195.968 111 185.992 117.611 181.138 127.252L190.993 134.895C193.313 127.922 199.817 122.733 207.5 122.733Z" fill="#1F1F1F"/>
<path d="M292 131C298.519 129.33 312.444 121.392 316 103" stroke="#1F1F1F" stroke-linecap="round"/>
<path d="M121.194 160.846C97.45 143.14 73.5729 167.8 86.8369 175.54C100.101 183.28 117.037 146.277 99.7948 133.112" stroke="#1F1F1F" stroke-linecap="round"/>
<circle cx="90.6426" cy="128.232" r="4" transform="rotate(-10.1559 90.6426 128.232)" fill="#1F1F1F"/>
<g filter="url(#filter1_b_1906_1582)">
<path d="M271.414 58.8504C273.314 57.7113 275.686 57.7114 277.586 58.8504L281.883 61.4272C282.661 61.8941 283.536 62.1782 284.44 62.2582L289.431 62.6992C291.637 62.8942 293.557 64.2887 294.424 66.3267L296.386 70.9371C296.741 71.7725 297.282 72.5164 297.966 73.1126L301.745 76.4031C303.415 77.8576 304.148 80.114 303.652 82.2725L302.529 87.1554C302.326 88.0403 302.326 88.9597 302.529 89.8446L303.652 94.7275C304.148 96.886 303.415 99.1424 301.745 100.597L297.966 103.887C297.282 104.484 296.741 105.227 296.386 106.063L294.424 110.673C293.557 112.711 291.637 114.106 289.431 114.301L284.44 114.742C283.536 114.822 282.661 115.106 281.883 115.573L277.586 118.15C275.686 119.289 273.314 119.289 271.414 118.15L267.117 115.573C266.339 115.106 265.464 114.822 264.56 114.742L259.569 114.301C257.363 114.106 255.443 112.711 254.576 110.673L252.614 106.063C252.259 105.227 251.718 104.484 251.034 103.887L247.255 100.597C245.585 99.1424 244.852 96.886 245.348 94.7275L246.471 89.8446C246.674 88.9597 246.674 88.0403 246.471 87.1554L245.348 82.2725C244.852 80.114 245.585 77.8576 247.255 76.4031L251.034 73.1126C251.718 72.5164 252.259 71.7725 252.614 70.9371L254.576 66.3267C255.443 64.2887 257.363 62.8942 259.569 62.6992L264.56 62.2582C265.464 62.1782 266.339 61.8941 267.117 61.4272L271.414 58.8504Z" fill="#0B57D0"/>
</g>
<path d="M265 96C265 90.4772 269.477 86 275 86C280.523 86 285 90.4772 285 96V103.538C285 104.346 284.346 105 283.538 105H266.462C265.654 105 265 104.346 265 103.538V96Z" fill="white"/>
<path d="M274.5 83C277.538 83 280 80.5376 280 77.5C280 74.4624 277.538 72 274.5 72C271.462 72 269 74.4624 269 77.5C269 80.5376 271.462 83 274.5 83Z" fill="white"/>
<rect x="126" y="154" width="56" height="56" rx="28" transform="rotate(19.7525 126 154)" fill="#FCBD00"/>
<g clip-path="url(#clip0_1906_1582)">
<path d="M128.525 192.903C127.966 192.58 127.602 192.105 127.434 191.479C127.267 190.853 127.344 190.26 127.667 189.701L135.323 176.44C135.646 175.881 136.121 175.517 136.747 175.349C137.373 175.182 137.966 175.259 138.525 175.582L156.116 185.738C156.675 186.061 157.039 186.536 157.207 187.162C157.374 187.788 157.297 188.381 156.974 188.94L149.318 202.201C148.995 202.76 148.52 203.124 147.894 203.292C147.268 203.459 146.675 203.382 146.116 203.059L128.525 192.903ZM141.789 190.241L136.197 179.615L129.697 190.873L147.288 201.029L153.788 189.771L141.789 190.241ZM142.961 188.211L154.917 187.753L137.38 177.627L142.961 188.211ZM136.197 179.615L137.353 177.612L136.197 179.615L129.697 190.873L136.197 179.615Z" fill="white"/>
</g>
<g clip-path="url(#clip1_1906_1582)">
<path d="M275.748 190.182C275.476 190.109 275.263 189.969 275.11 189.761C274.957 189.553 274.866 189.31 274.837 189.031C274.759 187.842 274.566 186.696 274.257 185.592C273.968 184.493 273.499 183.168 272.851 181.619C272.203 180.069 271.724 178.627 271.414 177.293C271.124 175.964 271.2 174.473 271.643 172.82C272.253 170.544 273.557 168.829 275.555 167.676C277.577 166.508 279.727 166.229 282.003 166.839C284.279 167.449 285.991 168.762 287.139 170.779C288.312 172.783 288.593 174.922 287.984 177.198C287.509 178.968 286.773 180.355 285.774 181.36C284.8 182.35 283.721 183.301 282.538 184.214C281.113 185.333 280.002 186.287 279.208 187.075C278.437 187.848 277.739 188.704 277.113 189.641C276.942 189.887 276.729 190.059 276.474 190.158C276.243 190.242 276.001 190.25 275.748 190.182ZM276.788 186.301C277.361 185.642 277.95 185.038 278.555 184.492C279.185 183.931 280.042 183.222 281.126 182.366C282.274 181.506 283.235 180.679 284.011 179.886C284.806 179.099 285.391 178.004 285.766 176.604C286.209 174.95 286.001 173.393 285.141 171.933C284.306 170.458 283.062 169.499 281.408 169.056C279.755 168.613 278.188 168.819 276.708 169.673C275.253 170.514 274.304 171.76 273.861 173.414C273.486 174.814 273.436 176.052 273.711 177.126C274.005 178.206 274.434 179.405 274.998 180.724C275.509 182.008 275.887 183.047 276.133 183.843C276.403 184.624 276.621 185.443 276.788 186.301ZM279.047 177.868C279.845 178.082 280.589 177.99 281.28 177.591C281.995 177.178 282.459 176.573 282.673 175.775C282.887 174.978 282.785 174.231 282.366 173.535C281.973 172.825 281.377 172.363 280.58 172.149C279.782 171.936 279.026 172.035 278.31 172.448C277.62 172.847 277.168 173.445 276.954 174.243C276.74 175.04 276.83 175.794 277.224 176.504C277.642 177.2 278.25 177.655 279.047 177.868Z" fill="white"/>
</g>
<defs>
<filter id="filter0_b_1906_1582" x="140.329" y="73.3288" width="135.342" height="135.342" filterUnits="userSpaceOnUse" color-interpolation-filters="sRGB">
<feFlood flood-opacity="0" result="BackgroundImageFix"/>
<feGaussianBlur in="BackgroundImageFix" stdDeviation="2.8356"/>
<feComposite in2="SourceAlpha" operator="in" result="effect1_backgroundBlur_1906_1582"/>
<feBlend mode="normal" in="SourceGraphic" in2="effect1_backgroundBlur_1906_1582" result="shape"/>
</filter>
<filter id="filter1_b_1906_1582" x="242.722" y="55.5224" width="63.5567" height="65.9551" filterUnits="userSpaceOnUse" color-interpolation-filters="sRGB">
<feFlood flood-opacity="0" result="BackgroundImageFix"/>
<feGaussianBlur in="BackgroundImageFix" stdDeviation="1.23683"/>
<feComposite in2="SourceAlpha" operator="in" result="effect1_backgroundBlur_1906_1582"/>
<feBlend mode="normal" in="SourceGraphic" in2="effect1_backgroundBlur_1906_1582" result="shape"/>
</filter>
<clipPath id="clip0_1906_1582">
<rect width="40" height="40" fill="white" transform="translate(135 162) rotate(30)"/>
</clipPath>
<clipPath id="clip1_1906_1582">
<rect width="29.5969" height="29.5969" fill="white" transform="translate(268.334 160.674) rotate(15)"/>
</clipPath>
</defs>
</svg>
