<svg width="416" height="276" viewBox="0 0 416 276" fill="none" xmlns="http://www.w3.org/2000/svg">
<circle cx="16.7641" cy="16.7641" r="16.2641" transform="matrix(-0.965926 0.258819 0.258819 0.965926 186.322 136.555)" stroke="#1F1F1F"/>
<circle cx="16.7641" cy="16.7641" r="16.2641" transform="matrix(-0.965926 0.258819 0.258819 0.965926 154.036 141.521)" stroke="#1F1F1F"/>
<path d="M160.408 194.425C160.2 148.065 150.75 127.5 150.75 127.5" stroke="#1F1F1F" stroke-linecap="round"/>
<path d="M145.819 71.4077C141.604 66.1974 133.646 66.1974 129.431 71.4077C127.465 73.8382 124.492 75.2935 121.397 75.3408C114.762 75.4422 109.801 81.7668 111.18 88.3652C111.823 91.4434 111.089 94.7134 109.196 97.2029C105.137 102.54 106.907 110.426 112.842 113.444C115.611 114.852 117.668 117.474 118.402 120.531C119.976 127.085 127.145 130.595 133.166 127.759C135.975 126.437 139.275 126.437 142.084 127.759C148.105 130.595 155.274 127.085 156.848 120.531C157.582 117.474 159.639 114.852 162.408 113.444C168.343 110.426 170.113 102.54 166.054 97.2029C164.161 94.7134 163.427 91.4434 164.07 88.3652C165.449 81.7668 160.488 75.4422 153.853 75.3408C150.758 75.2935 147.785 73.8382 145.819 71.4077Z" fill="#F55E57"/>
<circle cx="6.25" cy="6.25" r="6.75" transform="matrix(-1 0 0 1 143.25 92.5)" fill="white" stroke="#1F1F1F" stroke-linecap="round"/>
<path d="M140.006 214.5C140.134 209.178 142.304 204.101 146.078 200.328C149.969 196.436 155.247 194.25 160.75 194.25C166.253 194.25 171.531 196.436 175.422 200.328C179.196 204.101 181.366 209.178 181.494 214.5L140.006 214.5Z" fill="white" stroke="#1F1F1F" stroke-linecap="round"/>
<path d="M286.5 150.274C286.5 144.185 281.565 139.25 275.476 139.25H189.774C183.685 139.25 178.75 144.185 178.75 150.274V212H286.5V150.274Z" fill="#E1E3E1" stroke="#1F1F1F"/>
<circle cx="1.25" cy="1.25" r="1.25" transform="matrix(-1 0 0 1 232 145)" fill="#1F1F1F"/>
<path d="M264 211.875C264 210.425 262.825 209.25 261.375 209.25H163.875C162.425 209.25 161.25 210.425 161.25 211.875C161.25 213.325 162.425 214.5 163.875 214.5H261.375C262.825 214.5 264 213.325 264 211.875Z" fill="white" stroke="#1F1F1F"/>
<path d="M286.5 211.875C286.5 210.425 285.325 209.25 283.875 209.25H257.625C256.175 209.25 255 210.425 255 211.875C255 213.325 256.175 214.5 257.625 214.5H283.875C285.325 214.5 286.5 213.325 286.5 211.875Z" fill="white" stroke="#1F1F1F"/>
<path d="M300.532 120L230.967 120C223.616 120 216.566 122.914 211.368 128.1C206.17 133.286 203.25 140.319 203.25 147.654C203.251 153.657 205.21 159.496 208.83 164.291C212.451 169.086 217.537 172.575 223.32 174.232L221.782 185L231.25 175.5H300.25C307.601 175.5 314.934 172.393 320.132 167.208C325.329 162.022 328.25 154.989 328.25 147.655C328.25 144.023 327.533 140.427 326.141 137.072C324.748 133.717 322.706 130.668 320.132 128.1C317.558 125.532 314.503 123.495 311.14 122.105C307.777 120.715 304.172 120 300.532 120Z" fill="white" stroke="#1F1F1F" stroke-linecap="round" stroke-linejoin="round"/>
<path d="M267 161.146C266.66 161.146 266.332 161.085 266.016 160.964C265.7 160.842 265.42 160.66 265.177 160.417L255.698 150.865C254.847 150.014 254.203 149.054 253.766 147.984C253.352 146.915 253.146 145.797 253.146 144.63C253.146 142.345 253.875 140.389 255.333 138.76C256.816 137.108 258.639 136.281 260.802 136.281C261.896 136.281 262.929 136.512 263.901 136.974C264.873 137.411 265.748 138.019 266.526 138.797L267 139.307L267.474 138.833C268.227 138.031 269.09 137.411 270.063 136.974C271.059 136.512 272.092 136.281 273.161 136.281C275.325 136.281 277.148 137.108 278.63 138.76C280.113 140.389 280.854 142.333 280.854 144.594C280.854 145.76 280.635 146.891 280.198 147.984C279.76 149.054 279.128 150.014 278.302 150.865L268.786 160.417C268.519 160.66 268.24 160.842 267.948 160.964C267.656 161.085 267.34 161.146 267 161.146Z" fill="#DC362E"/>
<path d="M302 113.75C306.264 113.75 310.487 114.588 314.427 116.216C318.366 117.844 321.946 120.231 324.961 123.239C327.976 126.248 330.368 129.819 332 133.75" stroke="#1F1F1F" stroke-linecap="round" stroke-linejoin="round"/>
<rect width="21.25" height="21.25" rx="5.06011" transform="matrix(0.693895 0.720077 -0.693895 0.720077 232 133.75)" fill="#1B6EF3"/>
<ellipse cx="301.375" cy="148.75" rx="11.875" ry="12.5" fill="#FCBD00"/>
<path d="M179.878 116.905C182.218 114.566 186.687 113.684 187.004 114C187.32 114.317 186.438 118.784 184.098 121.123C182.928 122.293 181.038 122.293 179.878 121.123C178.708 119.954 178.708 118.065 179.878 116.905Z" fill="#1F1F1F"/>
<path d="M194.13 111.096C191.789 113.435 187.32 114.317 187.003 114C186.687 113.684 187.569 109.217 189.91 106.878C191.08 105.708 192.969 105.708 194.13 106.878C195.29 108.047 195.29 109.936 194.13 111.096Z" fill="#1F1F1F"/>
<path d="M184.098 106.878C186.438 109.217 187.32 113.684 187.004 114C186.687 114.317 182.218 113.435 179.878 111.096C178.708 109.926 178.708 108.038 179.878 106.878C181.038 105.708 182.928 105.708 184.098 106.878Z" fill="#1F1F1F"/>
<path d="M189.9 121.123C187.56 118.784 186.678 114.317 186.994 114.001C187.311 113.684 191.78 114.566 194.12 116.905C195.291 118.075 195.291 119.963 194.12 121.123C192.95 122.283 191.071 122.293 189.9 121.123Z" fill="#1F1F1F"/>
<rect x="111" y="214" width="171" height="1" rx="0.5" fill="#1F1F1F"/>
</svg>
