<svg width="416" height="276" viewBox="0 0 416 276" fill="none" xmlns="http://www.w3.org/2000/svg">
<rect width="320" height="180" transform="translate(48 48)" fill="white"/>
<path d="M329.333 81H303.667V85.148H294.917V90.4815H289.667V99.963H285V126.037H289.667V135.519H294.917V140.852H303.667V145H329.333V140.852H338.083V135.519H343.333V126.037H348V99.963H343.333V90.4815H338.083V85.148H329.333V81Z" fill="#0B57D0"/>
<path d="M289 97.5C294.247 97.5 298.5 101.753 298.5 107L298.5 173.5L191.5 173.5L191.5 107C191.5 101.753 195.753 97.5 201 97.5L245 97.5L289 97.5Z" fill="#E1E3E1" stroke="#1F1F1F"/>
<path d="M253.483 145.116L253.482 145.116C252.555 145.628 251.45 145.628 250.518 145.116C237.122 137.749 232.256 127.264 230.972 118.01C230.7 115.836 230.541 113.718 230.5 111.527V98.6203C230.5 96.7792 231.576 95.161 233.151 94.5484C233.151 94.5484 233.151 94.5483 233.151 94.5483L250.645 87.7539C251.519 87.4154 252.476 87.4154 253.35 87.7539L270.849 94.5483C270.849 94.5484 270.849 94.5484 270.849 94.5484C272.424 95.1611 273.5 96.7793 273.5 98.6203V111.531C273.459 113.722 273.3 115.836 273.028 118.01C271.744 127.264 266.878 137.754 253.483 145.116Z" fill="white" stroke="#1F1F1F"/>
<g clip-path="url(#clip0_1949_854)">
<path d="M261.936 113.051C261.936 112.299 261.868 111.576 261.743 110.882H251.757V114.983H257.463C257.217 116.309 256.47 117.432 255.347 118.184V120.844H258.774C260.779 118.998 261.936 116.28 261.936 113.051V113.051Z" fill="#1F1F1F"/>
<path d="M251.758 123.413C254.62 123.413 257.021 122.463 258.775 120.844L255.348 118.183C254.399 118.82 253.184 119.196 251.758 119.196C248.996 119.196 246.658 117.33 245.825 114.824H242.282V117.571C244.027 121.037 247.613 123.413 251.758 123.413Z" fill="#1F1F1F"/>
<path d="M245.824 114.824C245.612 114.188 245.492 113.508 245.492 112.81C245.492 112.111 245.612 111.431 245.824 110.795V108.048H242.282C241.564 109.479 241.154 111.099 241.154 112.81C241.154 114.521 241.564 116.14 242.282 117.571L245.824 114.824V114.824Z" fill="#1F1F1F"/>
<path d="M251.758 106.424C253.314 106.424 254.712 106.959 255.811 108.009L258.852 104.968C257.016 103.257 254.616 102.207 251.758 102.207C247.613 102.207 244.027 104.583 242.282 108.048L245.825 110.795C246.658 108.289 248.996 106.424 251.758 106.424Z" fill="#1F1F1F"/>
</g>
<rect x="307.5" y="173.5" width="9.00001" height="127" rx="3.5" transform="rotate(90 307.5 173.5)" fill="#E1E3E1" stroke="#1F1F1F"/>
<rect x="171.5" y="89.5" width="104" height="80" rx="9.5" transform="rotate(90 171.5 89.5)" fill="#E1E3E1" stroke="#1F1F1F"/>
<path d="M147 192L152.833 95L154 192H147Z" fill="black"/>
<path d="M131.5 176C131.5 178.442 129.307 180.5 126.5 180.5C123.693 180.5 121.5 178.442 121.5 176C121.5 173.558 123.693 171.5 126.5 171.5C129.307 171.5 131.5 173.558 131.5 176Z" fill="white" stroke="#1F1F1F"/>
<rect x="153.088" y="82.7476" width="63.866" height="118.753" rx="9.5" fill="white" stroke="#1F1F1F"/>
<g filter="url(#filter0_b_1949_854)">
<path d="M180.718 103.873C183.117 101.553 186.924 101.553 189.323 103.873C190.694 105.2 192.602 105.82 194.491 105.553C197.796 105.085 200.876 107.323 201.452 110.61C201.782 112.49 202.961 114.112 204.647 115.007C207.595 116.571 208.771 120.192 207.306 123.19C206.467 124.905 206.467 126.91 207.306 128.625C208.771 131.623 207.595 135.243 204.647 136.808C202.961 137.702 201.782 139.325 201.452 141.204C200.876 144.492 197.796 146.729 194.491 146.262C192.602 145.995 190.694 146.614 189.323 147.941C186.924 150.262 183.117 150.262 180.718 147.941C179.347 146.614 177.439 145.995 175.55 146.262C172.245 146.729 169.165 144.492 168.589 141.204C168.259 139.325 167.08 137.702 165.394 136.808C162.446 135.243 161.27 131.623 162.736 128.625C163.574 126.91 163.574 124.905 162.736 123.19C161.27 120.192 162.446 116.571 165.394 115.007C167.08 114.112 168.259 112.49 168.589 110.61C169.165 107.323 172.245 105.085 175.55 105.553C177.439 105.82 179.347 105.2 180.718 103.873Z" fill="#37BE5F"/>
</g>
<path d="M176.289 132.145C176.289 127.322 180.198 123.413 185.021 123.413C189.844 123.413 193.753 127.322 193.753 132.145V138.382H176.289V132.145Z" fill="#1F1F1F"/>
<path d="M185.02 120.917C187.776 120.917 190.01 118.683 190.01 115.928C190.01 113.172 187.776 110.938 185.02 110.938C182.265 110.938 180.031 113.172 180.031 115.928C180.031 118.683 182.265 120.917 185.02 120.917Z" fill="#1F1F1F"/>
<path d="M216.207 99.7114H216.702C217.806 99.7114 218.702 100.607 218.702 101.711V113.928C218.702 115.032 217.806 115.928 216.702 115.928H216.207V99.7114Z" fill="#1F1F1F"/>
<path d="M216.207 119.67H216.702C217.806 119.67 218.702 120.566 218.702 121.67V128.897C218.702 130.002 217.806 130.897 216.702 130.897H216.207V119.67Z" fill="#1F1F1F"/>
<rect x="168.804" y="164.577" width="32.433" height="1.24742" rx="0.623711" fill="#1F1F1F"/>
<rect x="176.289" y="170.814" width="17.4639" height="1.24742" rx="0.623711" fill="#1F1F1F"/>
<circle cx="1.24742" cy="1.24742" r="1.24742" transform="matrix(1 0 0 -1 183.774 90.9795)" fill="#1F1F1F"/>
<rect x="274.086" y="135.521" width="17.0958" height="1.24742" rx="0.623711" transform="rotate(135 274.086 135.521)" fill="#1F1F1F"/>
<path d="M75.3531 138.359H75.1126L74.9625 138.546L68.2632 146.934V138.859V104.959C68.2632 103.026 69.8302 101.459 71.7632 101.459H136.114C138.047 101.459 139.614 103.026 139.614 104.959V134.859C139.614 136.792 138.047 138.359 136.114 138.359H75.3531Z" fill="white" stroke="#1F1F1F"/>
<path d="M125.496 112.755C125.862 112.012 126.922 112.012 127.289 112.755L128.359 114.924C128.505 115.219 128.786 115.423 129.112 115.471L131.505 115.818C132.326 115.937 132.653 116.945 132.06 117.524L130.328 119.212C130.092 119.442 129.985 119.773 130.04 120.097L130.449 122.481C130.589 123.297 129.732 123.92 128.998 123.535L126.858 122.409C126.566 122.256 126.218 122.256 125.927 122.409L123.786 123.535C123.053 123.92 122.195 123.297 122.335 122.481L122.744 120.097C122.8 119.773 122.692 119.442 122.457 119.212L120.725 117.524C120.131 116.945 120.459 115.937 121.279 115.818L123.672 115.471C123.998 115.423 124.28 115.219 124.425 114.924L125.496 112.755Z" fill="#1F1F1F"/>
<path d="M110.527 112.755C110.894 112.012 111.953 112.012 112.32 112.755L113.39 114.924C113.536 115.219 113.818 115.423 114.143 115.471L116.537 115.818C117.357 115.937 117.684 116.945 117.091 117.524L115.359 119.212C115.123 119.442 115.016 119.773 115.071 120.097L115.48 122.481C115.62 123.297 114.763 123.92 114.029 123.535L111.889 122.409C111.598 122.256 111.249 122.256 110.958 122.409L108.818 123.535C108.084 123.92 107.227 123.297 107.367 122.481L107.776 120.097C107.831 119.773 107.724 119.442 107.488 119.212L105.756 117.524C105.163 116.945 105.49 115.937 106.31 115.818L108.704 115.471C109.029 115.423 109.311 115.219 109.457 114.924L110.527 112.755Z" fill="#1F1F1F"/>
<path d="M95.5575 112.755C95.9243 112.012 96.9842 112.012 97.351 112.755L98.4212 114.924C98.5669 115.219 98.8485 115.423 99.1742 115.471L101.567 115.818C102.388 115.937 102.715 116.945 102.122 117.524L100.39 119.212C100.154 119.442 100.047 119.773 100.102 120.097L100.511 122.481C100.651 123.297 99.7937 123.92 99.0601 123.535L96.9196 122.409C96.6283 122.256 96.2802 122.256 95.9889 122.409L93.8484 123.535C93.1148 123.92 92.2574 123.297 92.3975 122.481L92.8063 120.097C92.8619 119.773 92.7544 119.442 92.5187 119.212L90.787 117.524C90.1935 116.945 90.521 115.937 91.3412 115.818L93.7343 115.471C94.0601 115.423 94.3416 115.219 94.4873 114.924L95.5575 112.755Z" fill="#1F1F1F"/>
<path d="M80.5883 112.755C80.9551 112.012 82.0149 112.012 82.3818 112.755L83.452 114.924C83.5977 115.219 83.8792 115.423 84.2049 115.471L86.5981 115.818C87.4183 115.937 87.7458 116.945 87.1523 117.524L85.4206 119.212C85.1849 119.442 85.0774 119.773 85.133 120.097L85.5418 122.481C85.6819 123.297 84.8245 123.92 84.0908 123.535L81.9504 122.409C81.659 122.256 81.311 122.256 81.0197 122.409L78.8792 123.535C78.1456 123.92 77.2881 123.297 77.4282 122.481L77.837 120.097C77.8927 119.773 77.7851 119.442 77.5494 119.212L75.8178 117.524C75.2242 116.945 75.5517 115.937 76.372 115.818L78.7651 115.471C79.0908 115.423 79.3724 115.219 79.518 114.924L80.5883 112.755Z" fill="#1F1F1F"/>
<g clip-path="url(#clip1_1949_854)">
<path d="M318 121.167C317.756 121.167 317.542 121.098 317.358 120.96C317.19 120.823 317.06 120.64 316.969 120.41C316.617 119.509 316.235 118.699 315.823 117.981C315.41 117.263 314.845 116.438 314.127 115.506C313.363 114.513 312.737 113.558 312.248 112.642C311.759 111.725 311.515 110.61 311.515 109.296C311.515 107.508 312.141 105.988 313.394 104.735C314.662 103.467 316.197 102.833 318 102.833C318.367 102.833 318.718 102.864 319.054 102.925C319.406 102.971 319.742 103.055 320.063 103.177L318.321 104.896C318.229 104.881 318.138 104.873 318.046 104.873C317.954 104.858 317.87 104.85 317.794 104.85C316.602 104.896 315.586 105.354 314.746 106.225C313.921 107.081 313.508 108.112 313.508 109.319C313.508 110.373 313.715 111.259 314.127 111.977C314.555 112.695 315.09 113.467 315.731 114.292C316.342 115.101 316.808 115.758 317.129 116.262C317.45 116.767 317.74 117.278 318 117.798C318.26 117.278 318.55 116.767 318.871 116.262C319.192 115.758 319.665 115.101 320.292 114.292C320.597 113.879 320.88 113.497 321.14 113.146C321.399 112.779 321.621 112.397 321.804 112L324.485 109.319C324.47 110.678 324.203 111.824 323.683 112.756C323.179 113.688 322.576 114.605 321.873 115.506C321.124 116.499 320.544 117.347 320.131 118.05C319.734 118.753 319.375 119.54 319.054 120.41C318.947 120.64 318.802 120.823 318.619 120.96C318.435 121.098 318.229 121.167 318 121.167ZM317.519 111.015V108.173L322.492 103.223C322.614 103.085 322.759 102.986 322.927 102.925C323.095 102.864 323.263 102.833 323.431 102.833C323.599 102.833 323.767 102.872 323.935 102.948C324.103 103.009 324.256 103.101 324.394 103.223L325.31 104.162C325.433 104.3 325.524 104.453 325.585 104.621C325.662 104.789 325.7 104.957 325.7 105.125C325.7 105.293 325.669 105.461 325.608 105.629C325.547 105.797 325.448 105.942 325.31 106.065L320.36 111.015H317.519ZM324.348 105.125L323.408 104.185L324.348 105.125ZM318.848 109.685H319.81L322.492 106.981L322.033 106.5L321.552 106.042L318.848 108.723V109.685ZM322.033 106.5L321.552 106.042L322.492 106.981L322.033 106.5Z" fill="white"/>
</g>
<defs>
<filter id="filter0_b_1949_854" x="157.896" y="97.9231" width="54.249" height="55.9682" filterUnits="userSpaceOnUse" color-interpolation-filters="sRGB">
<feFlood flood-opacity="0" result="BackgroundImageFix"/>
<feGaussianBlur in="BackgroundImageFix" stdDeviation="2.10486"/>
<feComposite in2="SourceAlpha" operator="in" result="effect1_backgroundBlur_1949_854"/>
<feBlend mode="normal" in="SourceGraphic" in2="effect1_backgroundBlur_1949_854" result="shape"/>
</filter>
<clipPath id="clip0_1949_854">
<rect width="21.2062" height="21.2062" fill="white" transform="translate(241.154 102.207)"/>
</clipPath>
<clipPath id="clip1_1949_854">
<rect width="30" height="30" fill="white" transform="translate(303 97)"/>
</clipPath>
</defs>
</svg>
