<svg width="416" height="276" viewBox="0 0 416 276" fill="none" xmlns="http://www.w3.org/2000/svg">
<rect x="283" y="79" width="42" height="42" rx="8" fill="#0B57D0"/>
<path fill-rule="evenodd" clip-rule="evenodd" d="M315 89H293V91H315V89ZM315 95H293V97H315V95ZM293 101H315V103H293V101ZM306 109H293V107H306V109Z" fill="white"/>
<rect x="72" y="135" width="53" height="53" rx="26.5" fill="#B3261E"/>
<g clip-path="url(#clip0_1906_1680)">
<path d="M90 169C89.45 169 88.975 168.808 88.575 168.425C88.1917 168.025 88 167.55 88 167V155C88 154.45 88.1917 153.983 88.575 153.6C88.975 153.2 89.45 153 90 153H100.1C100.033 153.333 100 153.667 100 154C100 154.333 100.033 154.667 100.1 155H90L98 160L101.65 157.725C101.883 157.942 102.133 158.133 102.4 158.3C102.683 158.45 102.975 158.583 103.275 158.7L98 162L90 157V167H106V158.9C106.383 158.817 106.742 158.7 107.075 158.55C107.408 158.4 107.717 158.217 108 158V167C108 167.55 107.8 168.025 107.4 168.425C107.017 168.808 106.55 169 106 169H90ZM90 155V167V155ZM105 157C104.167 157 103.458 156.708 102.875 156.125C102.292 155.542 102 154.833 102 154C102 153.167 102.292 152.458 102.875 151.875C103.458 151.292 104.167 151 105 151C105.833 151 106.542 151.292 107.125 151.875C107.708 152.458 108 153.167 108 154C108 154.833 107.708 155.542 107.125 156.125C106.542 156.708 105.833 157 105 157Z" fill="white"/>
</g>
<path d="M138.5 157.333C138.5 154.112 141.112 151.5 144.333 151.5H177.667C180.888 151.5 183.5 154.112 183.5 157.333C183.5 158.53 182.53 159.5 181.333 159.5H140.667C139.47 159.5 138.5 158.53 138.5 157.333Z" fill="white" stroke="#1F1F1F" stroke-width="3"/>
<rect x="117.5" y="157.5" width="86" height="56" rx="5.5" fill="white" stroke="#1F1F1F"/>
<rect x="117" y="180" width="87" height="1" fill="#1F1F1F"/>
<rect x="132" y="175" width="6" height="10" rx="2" fill="#1F1F1F"/>
<path d="M244.5 121C244.5 114.649 249.649 109.5 256 109.5C262.351 109.5 267.5 114.649 267.5 121V128.571C267.5 129.637 266.637 130.5 265.571 130.5H246.429C245.363 130.5 244.5 129.637 244.5 128.571V121Z" fill="white" stroke="#1F1F1F" stroke-width="3"/>
<path d="M217.5 150C217.5 133.708 230.708 120.5 247 120.5H263C279.292 120.5 292.5 133.708 292.5 150V209C292.5 211.485 290.485 213.5 288 213.5H222C219.515 213.5 217.5 211.485 217.5 209V150Z" fill="white" stroke="#1F1F1F"/>
<g filter="url(#filter0_b_1906_1680)">
<path d="M252.257 133.645C253.946 132.632 256.054 132.632 257.743 133.645L258.571 134.141C259.263 134.557 260.041 134.809 260.844 134.88L261.807 134.965C263.768 135.138 265.474 136.378 266.245 138.19L266.623 139.078C266.939 139.821 267.419 140.482 268.028 141.012L268.756 141.646C270.241 142.939 270.892 144.945 270.451 146.864L270.235 147.805C270.054 148.591 270.054 149.409 270.235 150.195L270.451 151.136C270.892 153.055 270.241 155.061 268.756 156.354L268.028 156.988C267.419 157.518 266.939 158.179 266.623 158.922L266.245 159.81C265.474 161.622 263.768 162.862 261.807 163.035L260.844 163.12C260.041 163.191 259.263 163.443 258.571 163.859L257.743 164.355C256.054 165.368 253.946 165.368 252.257 164.355L251.429 163.859C250.737 163.443 249.959 163.191 249.156 163.12L248.193 163.035C246.232 162.862 244.526 161.622 243.755 159.81L243.377 158.922C243.061 158.179 242.581 157.518 241.972 156.988L241.244 156.354C239.759 155.061 239.108 153.055 239.549 151.136L239.765 150.195C239.946 149.409 239.946 148.591 239.765 147.805L239.549 146.864C239.108 144.945 239.759 142.939 241.244 141.646L241.972 141.012C242.581 140.482 243.061 139.821 243.377 139.078L243.755 138.19C244.526 136.378 246.232 135.138 248.193 134.965L249.155 134.88C249.959 134.809 250.737 134.557 251.429 134.141L252.257 133.645Z" fill="#FCBD00"/>
</g>
<path d="M227 180H283V194C283 197.314 280.314 200 277 200H233C229.686 200 227 197.314 227 194V180Z" fill="#E1E3E1"/>
<path d="M299.5 168C299.5 167.172 298.828 166.5 298 166.5H292.5V207.5H296C297.933 207.5 299.5 205.933 299.5 204V168Z" fill="white" stroke="#1F1F1F"/>
<path d="M227.5 180H282.5" stroke="black" stroke-linecap="square"/>
<path d="M252 120H217L222 193H243L252 120Z" fill="black"/>
<path d="M243 104C243.552 104 244 104.448 244 105V110C244 110.552 243.552 111 243 111V104Z" fill="#1F1F1F"/>
<rect x="173.5" y="71.5" width="69" height="143" rx="11.5" fill="white" stroke="#1F1F1F"/>
<path d="M243 92C243.552 92 244 92.4477 244 93V101C244 101.552 243.552 102 243 102V92Z" fill="#1F1F1F"/>
<circle cx="208.5" cy="76.5" r="1.5" fill="#1F1F1F"/>
<g filter="url(#filter1_b_1906_1680)">
<path d="M202.857 103.084C206.023 101.186 209.977 101.186 213.143 103.084L213.642 103.383C214.94 104.162 216.397 104.635 217.905 104.768L218.485 104.82C222.162 105.145 225.361 107.469 226.806 110.865L227.034 111.401C227.626 112.794 228.527 114.033 229.668 115.027L230.107 115.409C232.891 117.834 234.113 121.594 233.286 125.192L233.155 125.759C232.816 127.234 232.816 128.766 233.155 130.241L233.286 130.808C234.113 134.406 232.891 138.166 230.107 140.591L229.668 140.973C228.527 141.967 227.626 143.206 227.034 144.599L226.806 145.135C225.361 148.531 222.162 150.855 218.485 151.18L217.905 151.232C216.397 151.365 214.94 151.838 213.642 152.617L213.143 152.916C209.977 154.814 206.023 154.814 202.857 152.916L202.358 152.617C201.06 151.838 199.603 151.365 198.095 151.232L197.515 151.18C193.838 150.855 190.639 148.531 189.194 145.135L188.966 144.599C188.374 143.206 187.473 141.967 186.332 140.973L185.893 140.591C183.109 138.166 181.887 134.406 182.714 130.808L182.845 130.241C183.184 128.766 183.184 127.234 182.845 125.759L182.714 125.192C181.887 121.594 183.109 117.834 185.893 115.409L186.332 115.027C187.473 114.033 188.374 112.794 188.966 111.401L189.194 110.865C190.639 107.469 193.838 105.145 197.515 104.82L198.095 104.768C199.603 104.635 201.06 104.162 202.358 103.383L202.857 103.084Z" fill="#E1E3E1"/>
</g>
<path d="M199 132C199 127.029 203.029 123 208 123C212.971 123 217 127.029 217 132V139H199V132Z" fill="#1F1F1F"/>
<path d="M208 121C210.761 121 213 118.761 213 116C213 113.239 210.761 111 208 111C205.239 111 203 113.239 203 116C203 118.761 205.239 121 208 121Z" fill="#1F1F1F"/>
<g filter="url(#filter2_b_1906_1680)">
<path d="M133.5 79C146.479 79 157 89.5213 157 102.5L157 132L136.5 132C121.864 132 110 120.136 110 105.5L110 102.5C110 89.5213 120.521 79 133.5 79Z" fill="#1EA446"/>
</g>
<rect x="316.451" y="196.439" width="6" height="17" transform="rotate(-15 316.451 196.439)" stroke="#1F1F1F"/>
<rect x="317.417" y="196.181" width="4" height="6" transform="rotate(-15 317.417 196.181)" fill="#1F1F1F" stroke="#1F1F1F"/>
<circle cx="315.208" cy="180.208" r="16" transform="rotate(-15 315.208 180.208)" fill="white" stroke="#1F1F1F"/>
<g clip-path="url(#clip1_1906_1680)">
<path d="M124 116V98C124 97.45 124.192 96.9833 124.575 96.6C124.975 96.2 125.45 96 126 96H142C142.55 96 143.017 96.2 143.4 96.6C143.8 96.9833 144 97.45 144 98V110C144 110.55 143.8 111.025 143.4 111.425C143.017 111.808 142.55 112 142 112H128L124 116ZM127.15 110H142V98H126V111.125L127.15 110ZM126 110V98V110Z" fill="white"/>
</g>
<path d="M66 158C66 141.431 79.4315 128 96 128" stroke="#1F1F1F" stroke-linecap="round"/>
<path d="M337.5 118.5L303 149.5" stroke="#1F1F1F" stroke-linecap="round"/>
<defs>
<filter id="filter0_b_1906_1680" x="236.607" y="130.079" width="36.7868" height="37.8415" filterUnits="userSpaceOnUse" color-interpolation-filters="sRGB">
<feFlood flood-opacity="0" result="BackgroundImageFix"/>
<feGaussianBlur in="BackgroundImageFix" stdDeviation="1.40324"/>
<feComposite in2="SourceAlpha" operator="in" result="effect1_backgroundBlur_1906_1680"/>
<feBlend mode="normal" in="SourceGraphic" in2="effect1_backgroundBlur_1906_1680" result="shape"/>
</filter>
<filter id="filter1_b_1906_1680" x="178.25" y="97.4504" width="59.5" height="61.0991" filterUnits="userSpaceOnUse" color-interpolation-filters="sRGB">
<feFlood flood-opacity="0" result="BackgroundImageFix"/>
<feGaussianBlur in="BackgroundImageFix" stdDeviation="2.10486"/>
<feComposite in2="SourceAlpha" operator="in" result="effect1_backgroundBlur_1906_1680"/>
<feBlend mode="normal" in="SourceGraphic" in2="effect1_backgroundBlur_1906_1680" result="shape"/>
</filter>
<filter id="filter2_b_1906_1680" x="109.234" y="78.2339" width="48.5323" height="54.5323" filterUnits="userSpaceOnUse" color-interpolation-filters="sRGB">
<feFlood flood-opacity="0" result="BackgroundImageFix"/>
<feGaussianBlur in="BackgroundImageFix" stdDeviation="0.383072"/>
<feComposite in2="SourceAlpha" operator="in" result="effect1_backgroundBlur_1906_1680"/>
<feBlend mode="normal" in="SourceGraphic" in2="effect1_backgroundBlur_1906_1680" result="shape"/>
</filter>
<clipPath id="clip0_1906_1680">
<rect width="24" height="24" fill="white" transform="translate(86 149)"/>
</clipPath>
<clipPath id="clip1_1906_1680">
<rect width="24" height="24" fill="white" transform="translate(122 94)"/>
</clipPath>
</defs>
</svg>
