<svg width="416" height="276" viewBox="0 0 416 276" fill="none" xmlns="http://www.w3.org/2000/svg">
<rect width="320" height="180" transform="translate(48 48)" fill="white"/>
<rect x="240.5" y="78.5" width="72" height="117" fill="white" stroke="#1F1F1F"/>
<rect x="94.5" y="151.5" width="86.7582" height="44.2088" rx="22.1044" fill="white" stroke="#1F1F1F"/>
<mask id="mask0_1949_884" style="mask-type:alpha" maskUnits="userSpaceOnUse" x="92" y="151" width="89" height="46">
<rect x="93.3682" y="152.291" width="86.7582" height="44.2088" rx="22.1044" fill="white" stroke="#1F1F1F"/>
</mask>
<g mask="url(#mask0_1949_884)">
<path d="M185.945 191.682L152.703 147.138H185.945V191.682Z" fill="black"/>
</g>
<rect x="246.45" y="127.527" width="53.1868" height="3.98901" rx="1.99451" fill="#E1E3E1"/>
<rect x="246.45" y="134.176" width="53.1868" height="3.98901" rx="1.99451" fill="#E1E3E1"/>
<rect x="246.45" y="140.824" width="37.2308" height="3.98901" rx="1.99451" fill="#E1E3E1"/>
<rect x="248" y="86" width="57" height="36" rx="6" fill="#DC362E"/>
<rect x="248" y="152" width="57" height="36" rx="6" fill="#1B6EF3"/>
<path d="M103.926 130.682H103.693L103.544 130.86L94.5 141.627V130.744V82C94.5 80.067 96.067 78.5 98 78.5H180C181.933 78.5 183.5 80.067 183.5 82V127.182C183.5 129.115 181.933 130.682 180 130.682H103.926Z" fill="white" stroke="#1F1F1F"/>
<rect x="106.835" y="110.241" width="53.1868" height="3.98901" rx="1.99451" fill="#E1E3E1"/>
<rect x="106.835" y="119.55" width="31.9121" height="3.98901" rx="1.99451" fill="#E1E3E1"/>
<path d="M109.927 88.1246C110.294 87.3814 111.354 87.3814 111.721 88.1246L112.936 90.587C113.082 90.8822 113.363 91.0867 113.689 91.1341L116.407 91.5289C117.227 91.6481 117.554 92.6561 116.961 93.2346L114.994 95.1513C114.759 95.3811 114.651 95.7121 114.707 96.0365L115.171 98.7429C115.311 99.5598 114.454 100.183 113.72 99.7971L111.29 98.5193C110.998 98.3661 110.65 98.3661 110.359 98.5193L107.928 99.7971C107.195 100.183 106.337 99.5598 106.477 98.7429L106.942 96.0365C106.997 95.7121 106.89 95.3811 106.654 95.1513L104.688 93.2346C104.094 92.6561 104.422 91.6481 105.242 91.5289L107.959 91.1341C108.285 91.0867 108.567 90.8822 108.712 90.587L109.927 88.1246Z" fill="#1F1F1F"/>
<path d="M127.213 88.1246C127.58 87.3814 128.64 87.3814 129.007 88.1246L130.222 90.587C130.368 90.8822 130.649 91.0867 130.975 91.1341L133.692 91.5289C134.512 91.6481 134.84 92.6561 134.246 93.2346L132.28 95.1513C132.044 95.3811 131.937 95.7121 131.993 96.0365L132.457 98.7429C132.597 99.5598 131.739 100.183 131.006 99.7971L128.575 98.5193C128.284 98.3661 127.936 98.3661 127.645 98.5193L125.214 99.7971C124.48 100.183 123.623 99.5598 123.763 98.7429L124.227 96.0365C124.283 95.7121 124.175 95.3811 123.94 95.1513L121.973 93.2346C121.38 92.6561 121.707 91.6481 122.527 91.5289L125.245 91.1341C125.571 91.0867 125.852 90.8822 125.998 90.587L127.213 88.1246Z" fill="#1F1F1F"/>
<path d="M144.499 88.1246C144.866 87.3814 145.925 87.3814 146.292 88.1246L147.508 90.587C147.653 90.8822 147.935 91.0867 148.26 91.1341L150.978 91.5289C151.798 91.6481 152.126 92.6561 151.532 93.2346L149.566 95.1513C149.33 95.3811 149.223 95.7121 149.278 96.0365L149.742 98.7429C149.882 99.5598 149.025 100.183 148.291 99.7971L145.861 98.5193C145.57 98.3661 145.221 98.3661 144.93 98.5193L142.5 99.7971C141.766 100.183 140.909 99.5598 141.049 98.7429L141.513 96.0365C141.568 95.7121 141.461 95.3811 141.225 95.1513L139.259 93.2346C138.665 92.6561 138.993 91.6481 139.813 91.5289L142.531 91.1341C142.856 91.0867 143.138 90.8822 143.283 90.587L144.499 88.1246Z" fill="#1F1F1F"/>
<path d="M161.784 88.1246C162.151 87.3814 163.211 87.3814 163.578 88.1246L164.793 90.587C164.939 90.8822 165.22 91.0867 165.546 91.1341L168.264 91.5289C169.084 91.6481 169.411 92.6561 168.818 93.2346L166.851 95.1513C166.616 95.3811 166.508 95.7121 166.564 96.0365L167.028 98.7429C167.168 99.5598 166.311 100.183 165.577 99.7971L163.146 98.5193C162.855 98.3661 162.507 98.3661 162.216 98.5193L159.785 99.7971C159.052 100.183 158.194 99.5598 158.334 98.7429L158.798 96.0365C158.854 95.7121 158.747 95.3811 158.511 95.1513L156.545 93.2346C155.951 92.6561 156.279 91.6481 157.099 91.5289L159.816 91.1341C160.142 91.0867 160.423 90.8822 160.569 90.587L161.784 88.1246Z" fill="#1F1F1F"/>
<g filter="url(#filter0_b_1949_884)">
<path d="M201.047 92.7263C204.924 88.976 211.076 88.976 214.953 92.7263L217.342 95.0372C219.559 97.1819 222.641 98.1834 225.695 97.7514L228.986 97.286C234.327 96.5305 239.304 100.147 240.236 105.46L240.811 108.733C241.343 111.771 243.249 114.394 245.973 115.839L248.909 117.397C253.674 119.925 255.575 125.776 253.206 130.622L251.747 133.608C250.392 136.379 250.392 139.621 251.747 142.392L253.206 145.378C255.575 150.224 253.674 156.075 248.909 158.603L245.973 160.161C243.249 161.606 241.343 164.229 240.811 167.267L240.236 170.54C239.304 175.853 234.327 179.469 228.986 178.714L225.695 178.249C222.641 177.817 219.559 178.818 217.342 180.963L214.953 183.274C211.076 187.024 204.924 187.024 201.047 183.274L198.658 180.963C196.441 178.818 193.359 177.817 190.305 178.249L187.014 178.714C181.673 179.469 176.696 175.853 175.764 170.54L175.189 167.267C174.657 164.229 172.751 161.606 170.027 160.161L167.091 158.603C162.326 156.075 160.425 150.224 162.794 145.378L164.253 142.392C165.608 139.621 165.608 136.379 164.253 133.608L162.794 130.622C160.425 125.776 162.326 119.925 167.091 117.397L170.027 115.839C172.751 114.394 174.657 111.771 175.189 108.733L175.764 105.46C176.696 100.147 181.673 96.5306 187.014 97.286L190.305 97.7514C193.359 98.1834 196.441 97.1819 198.658 95.0372L201.047 92.7263Z" fill="#6DD58C"/>
<path d="M201.395 93.0857C205.078 89.5228 210.922 89.5228 214.605 93.0857L216.994 95.3966C219.322 97.6484 222.558 98.7001 225.765 98.2465L229.056 97.781C234.13 97.0634 238.858 100.499 239.744 105.546L240.318 108.82C240.878 112.01 242.878 114.763 245.739 116.281L248.675 117.839C253.201 120.24 255.008 125.799 252.757 130.403L251.298 133.389C249.875 136.298 249.875 139.702 251.298 142.611L252.757 145.597C255.008 150.201 253.201 155.76 248.675 158.161L245.739 159.719C242.878 161.237 240.878 163.99 240.318 167.18L239.744 170.454C238.858 175.501 234.13 178.937 229.056 178.219L225.765 177.753C222.558 177.3 219.322 178.352 216.994 180.603L214.605 182.914C210.922 186.477 205.078 186.477 201.395 182.914L199.006 180.603C196.678 178.352 193.442 177.3 190.235 177.753L186.944 178.219C181.87 178.937 177.142 175.501 176.256 170.454L175.682 167.18C175.122 163.99 173.122 161.237 170.261 159.719L167.325 158.161C162.799 155.76 160.992 150.201 163.243 145.597L164.702 142.611C166.125 139.702 166.125 136.298 164.702 133.389L163.243 130.403C160.992 125.799 162.799 120.24 167.325 117.839L170.261 116.281C173.122 114.763 175.122 112.01 175.682 108.82L176.256 105.546C177.142 100.499 181.87 97.0634 186.944 97.781L190.235 98.2465C193.442 98.7001 196.678 97.6484 199.006 95.3966L201.395 93.0857Z" stroke="#1F1F1F"/>
</g>
<path d="M189 152C189 141.507 197.507 133 208 133C218.493 133 227 141.507 227 152V158.778C227 160.557 225.557 162 223.778 162H192.222C190.443 162 189 160.557 189 158.778V152Z" fill="#1F1F1F"/>
<path d="M207.5 129C212.747 129 217 124.747 217 119.5C217 114.253 212.747 110 207.5 110C202.253 110 198 114.253 198 119.5C198 124.747 202.253 129 207.5 129Z" fill="#1F1F1F"/>
<g clip-path="url(#clip0_1949_884)">
<path d="M150 182L144 179.9L139.35 181.7C139.017 181.833 138.708 181.8 138.425 181.6C138.142 181.383 138 181.1 138 180.75V166.75C138 166.533 138.058 166.342 138.175 166.175C138.308 166.008 138.483 165.883 138.7 165.8L144 164L150 166.1L154.65 164.3C154.983 164.167 155.292 164.208 155.575 164.425C155.858 164.625 156 164.9 156 165.25V179.25C156 179.467 155.933 179.658 155.8 179.825C155.683 179.992 155.517 180.117 155.3 180.2L150 182ZM149 179.55V167.85L145 166.45V178.15L149 179.55ZM151 179.55L154 178.55V166.7L151 167.85V179.55ZM140 179.3L143 178.15V166.45L140 167.45V179.3ZM151 167.85V179.55V167.85ZM143 166.45V178.15V166.45Z" fill="#1F1F1F"/>
</g>
<g clip-path="url(#clip1_1949_884)">
<path d="M128.6 174.227C128.6 173.518 128.536 172.836 128.418 172.182H119V176.05H124.382C124.15 177.3 123.445 178.359 122.386 179.068V181.577H125.618C127.509 179.836 128.6 177.273 128.6 174.227Z" fill="#1F1F1F"/>
<path d="M119 184C121.7 184 123.963 183.105 125.618 181.578L122.386 179.069C121.491 179.669 120.345 180.023 119 180.023C116.395 180.023 114.191 178.264 113.404 175.9H110.063V178.491C111.709 181.759 115.091 184 119 184Z" fill="#1F1F1F"/>
<path d="M113.405 175.9C113.205 175.3 113.091 174.659 113.091 174C113.091 173.341 113.205 172.7 113.405 172.1V169.509H110.064C109.386 170.859 109 172.386 109 174C109 175.613 109.386 177.141 110.064 178.491L113.405 175.9Z" fill="#1F1F1F"/>
<path d="M119 167.977C120.468 167.977 121.786 168.482 122.823 169.473L125.691 166.605C123.959 164.991 121.695 164 119 164C115.091 164 111.709 166.241 110.063 169.509L113.404 172.1C114.191 169.736 116.395 167.977 119 167.977Z" fill="#1F1F1F"/>
</g>
<circle cx="292.5" cy="161.5" r="4.5" fill="white"/>
<path d="M286.272 182.045L257.971 182.045C256.55 182.045 255.574 180.614 256.094 179.291L262.818 162.157C263.445 160.559 265.655 160.425 266.471 161.936L271.958 172.104C272.733 173.541 274.805 173.509 275.536 172.049L278.414 166.305C279.167 164.801 281.322 164.826 282.041 166.347L288.095 179.166C288.727 180.504 287.751 182.045 286.272 182.045Z" fill="white"/>
<g clip-path="url(#clip2_1949_884)">
<path d="M278.75 103.5C279.097 103.5 279.389 103.382 279.625 103.146C279.875 102.896 280 102.597 280 102.25C280 101.903 279.875 101.611 279.625 101.375C279.389 101.125 279.097 101 278.75 101C278.403 101 278.104 101.125 277.854 101.375C277.618 101.611 277.5 101.903 277.5 102.25C277.5 102.597 277.618 102.896 277.854 103.146C278.104 103.382 278.403 103.5 278.75 103.5ZM273.25 103.5C273.597 103.5 273.889 103.382 274.125 103.146C274.375 102.896 274.5 102.597 274.5 102.25C274.5 101.903 274.375 101.611 274.125 101.375C273.889 101.125 273.597 101 273.25 101C272.903 101 272.604 101.125 272.354 101.375C272.118 101.611 272 101.903 272 102.25C272 102.597 272.118 102.896 272.354 103.146C272.604 103.382 272.903 103.5 273.25 103.5ZM276 108.5C276.944 108.5 277.792 108.222 278.542 107.667C279.306 107.097 279.868 106.375 280.229 105.5H278.583C278.306 105.958 277.938 106.326 277.479 106.604C277.021 106.868 276.528 107 276 107C275.472 107 274.979 106.868 274.521 106.604C274.063 106.326 273.694 105.958 273.417 105.5H271.771C272.132 106.375 272.688 107.097 273.438 107.667C274.201 108.222 275.056 108.5 276 108.5ZM276 112C274.903 112 273.868 111.792 272.896 111.375C271.924 110.958 271.069 110.389 270.333 109.667C269.611 108.931 269.042 108.076 268.625 107.104C268.208 106.132 268 105.097 268 104C268 102.889 268.208 101.854 268.625 100.896C269.042 99.9236 269.611 99.0764 270.333 98.3542C271.069 97.6181 271.924 97.0417 272.896 96.625C273.868 96.2083 274.903 96 276 96C277.111 96 278.146 96.2083 279.104 96.625C280.076 97.0417 280.924 97.6181 281.646 98.3542C282.382 99.0764 282.958 99.9236 283.375 100.896C283.792 101.854 284 102.889 284 104C284 105.097 283.792 106.132 283.375 107.104C282.958 108.076 282.382 108.931 281.646 109.667C280.924 110.389 280.076 110.958 279.104 111.375C278.146 111.792 277.111 112 276 112Z" fill="white"/>
</g>
<defs>
<filter id="filter0_b_1949_884" x="157.566" y="85.7034" width="100.868" height="104.593" filterUnits="userSpaceOnUse" color-interpolation-filters="sRGB">
<feFlood flood-opacity="0" result="BackgroundImageFix"/>
<feGaussianBlur in="BackgroundImageFix" stdDeviation="2.10486"/>
<feComposite in2="SourceAlpha" operator="in" result="effect1_backgroundBlur_1949_884"/>
<feBlend mode="normal" in="SourceGraphic" in2="effect1_backgroundBlur_1949_884" result="shape"/>
</filter>
<clipPath id="clip0_1949_884">
<rect width="32" height="32" fill="white" transform="translate(131 157)"/>
</clipPath>
<clipPath id="clip1_1949_884">
<rect width="20" height="20" fill="white" transform="translate(109 164)"/>
</clipPath>
<clipPath id="clip2_1949_884">
<rect width="32" height="32" fill="white" transform="translate(260 88)"/>
</clipPath>
</defs>
</svg>
