<svg width="416" height="276" viewBox="0 0 416 276" fill="none" xmlns="http://www.w3.org/2000/svg">
<rect x="155" y="63" width="94" height="130" rx="8" fill="white" stroke="#1F1F1F"/>
<path d="M167 156H198" stroke="#44C265" stroke-linecap="round"/>
<path d="M167 172H198" stroke="#FCBD00" stroke-linecap="round"/>
<path d="M173 164H210" stroke="#1F1F1F" stroke-linecap="round"/>
<path d="M218 164H237" stroke="#3998D3" stroke-linecap="round"/>
<path fill-rule="evenodd" clip-rule="evenodd" d="M200.954 84.478C200.971 84.7588 200.756 85.0003 200.474 85.0176C198.862 85.116 197.262 85.352 195.691 85.7228C195.416 85.7878 195.139 85.6186 195.074 85.345C195.009 85.0713 195.179 84.7968 195.454 84.7318C197.082 84.3475 198.741 84.103 200.411 84.001C200.693 83.9837 200.936 84.1973 200.954 84.478ZM204.854 84.5732C204.886 84.2937 205.139 84.0922 205.42 84.1232C206.249 84.2145 207.075 84.3414 207.898 84.5041C208.721 84.6669 209.534 84.8642 210.335 85.0949C210.606 85.1733 210.763 85.4558 210.684 85.7259C210.605 85.996 210.321 86.1515 210.049 86.0732C209.277 85.8505 208.493 85.6601 207.698 85.5031C206.904 85.3461 206.107 85.2237 205.307 85.1355C205.026 85.1045 204.823 84.8528 204.854 84.5732ZM191.369 86.5617C191.48 86.8202 191.36 87.1196 191.1 87.2304C190.361 87.5454 189.633 87.8928 188.919 88.2722C188.205 88.6516 187.51 89.0601 186.836 89.4961C186.599 89.6495 186.281 89.5827 186.127 89.3469C185.973 89.1112 186.04 88.7957 186.277 88.6423C186.976 88.1905 187.696 87.7671 188.436 87.3739C189.176 86.9808 189.93 86.6208 190.696 86.2943C190.956 86.1835 191.258 86.3032 191.369 86.5617ZM214.325 87.1219C214.449 86.8691 214.755 86.7643 215.01 86.8876C216.513 87.6172 217.951 88.474 219.308 89.4484C219.537 89.6131 219.588 89.9315 219.423 90.1594C219.257 90.3874 218.937 90.4386 218.707 90.2738C217.399 89.3337 216.011 88.5069 214.56 87.8029C214.306 87.6796 214.2 87.3747 214.325 87.1219ZM183.051 91.7333C183.243 91.9394 183.232 92.2616 183.024 92.453C181.841 93.5454 180.755 94.737 179.777 96.0143C179.606 96.2381 179.285 96.2815 179.059 96.1112C178.834 95.9409 178.791 95.6214 178.962 95.3975C179.975 94.0738 181.101 92.8389 182.327 91.7068C182.534 91.5154 182.858 91.5273 183.051 91.7333ZM176.972 99.3882C177.223 99.5178 177.321 99.8252 177.191 100.075C176.82 100.785 176.479 101.512 176.169 102.256C175.86 102.999 175.583 103.753 175.34 104.515C175.255 104.783 174.967 104.932 174.697 104.847C174.427 104.762 174.278 104.476 174.363 104.208C174.615 103.418 174.902 102.636 175.223 101.866C175.544 101.095 175.897 100.341 176.281 99.6058C176.411 99.3561 176.721 99.2587 176.972 99.3882ZM173.842 108.632C174.123 108.669 174.319 108.926 174.281 109.205C174.064 110.795 173.984 112.401 174.044 114.005C174.054 114.286 173.833 114.522 173.551 114.533C173.268 114.543 173.03 114.324 173.02 114.043C172.958 112.38 173.04 110.716 173.266 109.068C173.304 108.789 173.562 108.594 173.842 108.632ZM174.028 118.383C174.305 118.324 174.577 118.5 174.636 118.775C174.802 119.557 175.003 120.335 175.238 121.105C175.473 121.875 175.74 122.632 176.039 123.375C176.144 123.636 176.016 123.932 175.754 124.037C175.491 124.141 175.193 124.014 175.088 123.753C174.778 122.983 174.501 122.199 174.257 121.401C174.014 120.602 173.806 119.797 173.633 118.986C173.575 118.711 173.751 118.441 174.028 118.383ZM177.508 127.501C177.749 127.354 178.065 127.428 178.213 127.668C179.06 129.034 180.024 130.326 181.093 131.528C181.281 131.739 181.261 132.061 181.049 132.247C180.837 132.433 180.513 132.413 180.326 132.203C179.217 130.957 178.218 129.618 177.341 128.202C177.192 127.963 177.267 127.649 177.508 127.501ZM222.85 132.78C223.05 132.979 223.05 133.301 222.85 133.5C222.257 134.09 221.64 134.652 221.002 135.185C220.786 135.367 220.463 135.339 220.28 135.124C220.098 134.908 220.126 134.587 220.343 134.406C220.958 133.891 221.553 133.349 222.125 132.78C222.326 132.581 222.65 132.581 222.85 132.78ZM183.875 134.922C184.052 134.702 184.374 134.666 184.595 134.842C185.223 135.342 185.874 135.816 186.547 136.263C187.22 136.71 187.91 137.127 188.615 137.512C188.863 137.648 188.953 137.958 188.817 138.204C188.68 138.451 188.369 138.54 188.121 138.405C187.391 138.005 186.676 137.573 185.978 137.11C185.28 136.647 184.605 136.155 183.955 135.637C183.734 135.462 183.698 135.141 183.875 134.922ZM217.09 137.357C217.233 137.6 217.15 137.912 216.905 138.054C215.46 138.891 213.944 139.604 212.376 140.183C212.111 140.281 211.816 140.147 211.717 139.883C211.618 139.62 211.754 139.327 212.019 139.229C213.532 138.669 214.995 137.982 216.39 137.174C216.634 137.032 216.948 137.114 217.09 137.357ZM192.384 139.776C192.476 139.51 192.768 139.369 193.035 139.46C194.562 139.982 196.131 140.373 197.725 140.628C198.005 140.673 198.195 140.934 198.15 141.212C198.105 141.489 197.842 141.678 197.563 141.634C195.91 141.369 194.284 140.964 192.702 140.423C192.434 140.332 192.292 140.042 192.384 139.776ZM207.956 140.918C208.008 141.194 207.825 141.46 207.546 141.512C206.727 141.663 205.899 141.781 205.064 141.862C204.229 141.944 203.393 141.99 202.56 142C202.277 142.003 202.045 141.778 202.041 141.497C202.038 141.216 202.264 140.985 202.547 140.982C203.351 140.972 204.157 140.928 204.963 140.849C205.769 140.77 206.568 140.657 207.359 140.51C207.637 140.459 207.905 140.641 207.956 140.918Z" fill="#1F1F1F"/>
<path d="M202.338 115.23V108.906H218.567C218.809 109.977 219 110.98 219 112.391C219 122.098 212.36 129 202.355 129C192.767 129 185 121.384 185 112C185 102.616 192.767 95 202.338 95C207.019 95 210.938 96.683 213.937 99.437L209.013 104.129C207.765 102.973 205.598 101.596 202.338 101.596C196.599 101.596 191.918 106.271 191.918 112C191.918 117.729 196.599 122.404 202.338 122.404C208.979 122.404 211.423 117.899 211.874 115.23H202.338Z" fill="#1F1F1F"/>
<circle cx="162.5" cy="69.5" r="1.5" fill="white"/>
<circle cx="168.5" cy="69.5" r="1.5" fill="white"/>
<circle cx="174.5" cy="69.5" r="1.5" fill="white"/>
<path d="M106 108C106 92.536 118.536 80 134 80C149.464 80 162 92.536 162 108V127.078C162 132.006 158.006 136 153.078 136H134C118.536 136 106 123.464 106 108Z" fill="#1AA64A"/>
<g clip-path="url(#clip0_1906_1756)">
<path d="M135 114.833L126.833 106.708L128.833 104.667L133.583 109.417V94.6667H136.417V109.417L141.167 104.667L143.167 106.708L135 114.833ZM124.5 121.333C123.722 121.333 123.056 121.056 122.5 120.5C121.944 119.944 121.667 119.278 121.667 118.5V112.917H124.5V118.5H145.542V112.917H148.333V118.5C148.333 119.278 148.056 119.944 147.5 120.5C146.944 121.056 146.292 121.333 145.542 121.333H124.5Z" fill="white"/>
</g>
<path d="M273.978 117.899C273.064 117.367 271.936 117.367 271.022 117.899L264.976 121.413C264.061 121.945 263.5 122.926 263.5 123.985V131.015C263.5 132.074 264.061 133.055 264.976 133.587L271.022 137.101C271.936 137.633 273.064 137.633 273.978 137.101L280.024 133.587C280.939 133.055 281.5 132.074 281.5 131.015V123.985C281.5 122.926 280.939 121.945 280.024 121.413L273.978 117.899Z" stroke="#1F1F1F"/>
<path d="M107 214.5L125.292 192.711C127.814 189.707 132.142 188.974 135.513 190.982L175 214.5" stroke="#1F1F1F" stroke-linecap="round" stroke-linejoin="round"/>
<rect x="90" y="214" width="220" height="1" rx="0.5" fill="#1F1F1F"/>
<path d="M225 214L240 178C240 178 240.5 207 241 209C241.5 211 246 214 246 214H225Z" fill="black"/>
<rect x="240.5" y="167.5" width="47" height="47" rx="9.93478" fill="white" stroke="#1F1F1F"/>
<path d="M276.477 185.848C272.415 189.91 264.657 191.442 264.108 190.892C263.558 190.343 265.09 182.585 269.152 178.523C271.183 176.492 274.462 176.492 276.477 178.523C278.508 180.554 278.508 183.834 276.477 185.848Z" fill="#FCBD00"/>
<path d="M251.512 196.152C255.578 192.09 263.342 190.558 263.892 191.108C264.442 191.657 262.909 199.415 258.843 203.477C256.811 205.508 253.528 205.508 251.512 203.477C249.496 201.446 249.496 198.166 251.512 196.152Z" fill="#FCBD00"/>
<path d="M269.152 203.477C265.09 199.415 263.558 191.657 264.108 191.108C264.657 190.558 272.415 192.09 276.477 196.152C278.508 198.183 278.508 201.462 276.477 203.477C274.462 205.508 271.183 205.508 269.152 203.477Z" fill="#FCBD00"/>
<path d="M258.848 178.518C262.91 182.581 264.442 190.343 263.892 190.892C263.343 191.442 255.585 189.91 251.523 185.846C249.492 183.814 249.492 180.533 251.523 178.518C253.554 176.502 256.817 176.486 258.848 178.518Z" fill="#FCBD00"/>
<defs>
<clipPath id="clip0_1906_1756">
<rect width="40" height="40" fill="white" transform="translate(115 88)"/>
</clipPath>
</defs>
</svg>
