<svg width="416" height="276" viewBox="0 0 416 276" fill="none" xmlns="http://www.w3.org/2000/svg">
<g filter="url(#filter0_b_1906_1790)">
<path d="M159.914 65.8504C161.814 64.7114 164.186 64.7114 166.086 65.8504L171.063 68.8348C171.841 69.3018 172.716 69.5859 173.62 69.6658L179.401 70.1767C181.607 70.3717 183.526 71.7662 184.393 73.8042L186.666 79.144C187.021 79.9794 187.562 80.7233 188.246 81.3195L192.623 85.1305C194.293 86.5851 195.026 88.8414 194.53 90.9999L193.229 96.6554C193.026 97.5403 193.026 98.4597 193.229 99.3446L194.53 105C195.026 107.159 194.293 109.415 192.623 110.869L188.246 114.68C187.562 115.277 187.021 116.021 186.666 116.856L184.393 122.196C183.526 124.234 181.607 125.628 179.401 125.823L173.62 126.334C172.716 126.414 171.841 126.698 171.063 127.165L166.086 130.15C164.186 131.289 161.814 131.289 159.914 130.15L154.937 127.165C154.159 126.698 153.284 126.414 152.38 126.334L146.599 125.823C144.393 125.628 142.474 124.234 141.607 122.196L139.334 116.856C138.979 116.021 138.438 115.277 137.754 114.68L133.377 110.869C131.707 109.415 130.974 107.159 131.47 105L132.771 99.3446C132.974 98.4597 132.974 97.5403 132.771 96.6554L131.47 90.9999C130.974 88.8414 131.707 86.5851 133.377 85.1305L137.754 81.3195C138.438 80.7233 138.979 79.9794 139.334 79.144L141.607 73.8042C142.474 71.7662 144.393 70.3717 146.599 70.1767L152.38 69.6658C153.284 69.5859 154.159 69.3018 154.937 68.8348L159.914 65.8504Z" fill="#A8C7FA"/>
</g>
<rect x="163.5" y="77.5" width="92" height="137" rx="9.5" fill="white" stroke="#1F1F1F"/>
<circle cx="210" cy="121" r="28" fill="#1F1F1F"/>
<g clip-path="url(#clip0_1906_1790)">
<path d="M209.65 138.225C209.213 138.225 208.833 138.094 208.513 137.831C208.192 137.54 208.031 137.146 208.031 136.65C208.031 136.446 208.075 136.212 208.163 135.95C208.279 135.658 208.425 135.41 208.6 135.206L215.075 128.775L214.113 127.812L207.638 134.244C207.463 134.448 207.244 134.594 206.981 134.681C206.748 134.769 206.5 134.812 206.238 134.812C205.771 134.812 205.377 134.667 205.056 134.375C204.765 134.054 204.619 133.66 204.619 133.194C204.619 132.931 204.663 132.683 204.75 132.45C204.867 132.187 205.013 131.969 205.188 131.794L211.663 125.362L210.7 124.4L204.225 130.831C204.05 131.006 203.831 131.152 203.569 131.269C203.335 131.356 203.088 131.4 202.825 131.4C202.358 131.4 201.965 131.254 201.644 130.962C201.352 130.642 201.206 130.248 201.206 129.781C201.206 129.548 201.25 129.315 201.338 129.081C201.425 128.819 201.571 128.585 201.775 128.381L207.813 122.344L206.85 121.381L200.813 127.419C200.667 127.594 200.463 127.74 200.2 127.856C199.938 127.944 199.66 127.987 199.369 127.987C198.902 127.987 198.523 127.842 198.231 127.55C197.94 127.258 197.794 126.865 197.794 126.369C197.794 126.135 197.838 125.887 197.925 125.625C198.013 125.362 198.158 125.144 198.363 124.969L207.025 116.306L210.788 120.069C211.108 120.39 211.473 120.623 211.881 120.769C212.29 120.915 212.698 120.987 213.106 120.987C213.952 120.987 214.652 120.71 215.206 120.156C215.76 119.602 216.038 118.887 216.038 118.012C216.038 117.604 215.965 117.196 215.819 116.787C215.673 116.35 215.425 115.971 215.075 115.65L210.438 111.012L212.188 109.306C212.567 108.927 213.019 108.635 213.544 108.431C214.098 108.198 214.652 108.081 215.206 108.081C215.79 108.081 216.344 108.198 216.869 108.431C217.423 108.635 217.904 108.927 218.313 109.306L225.794 116.831C226.173 117.181 226.465 117.633 226.669 118.187C226.873 118.712 226.975 119.296 226.975 119.937C226.975 120.521 226.873 121.075 226.669 121.6C226.465 122.096 226.173 122.533 225.794 122.912L211.05 137.656C210.875 137.831 210.656 137.977 210.394 138.094C210.131 138.181 209.883 138.225 209.65 138.225ZM196.35 125.056L194.556 123.262C194.06 122.767 193.681 122.183 193.419 121.512C193.156 120.812 193.025 120.127 193.025 119.456C193.025 118.785 193.142 118.173 193.375 117.619C193.608 117.035 193.9 116.569 194.25 116.219L201.119 109.306C201.498 108.927 201.921 108.635 202.388 108.431C202.854 108.198 203.35 108.081 203.875 108.081C204.458 108.081 204.998 108.183 205.494 108.387C205.99 108.592 206.442 108.898 206.85 109.306L214.113 116.612C214.288 116.787 214.433 117.006 214.55 117.269C214.667 117.531 214.725 117.779 214.725 118.012C214.725 118.479 214.565 118.873 214.244 119.194C213.952 119.485 213.573 119.631 213.106 119.631C212.844 119.631 212.581 119.587 212.319 119.5C212.085 119.412 211.867 119.267 211.663 119.062L206.981 114.381L196.35 125.056Z" fill="white"/>
</g>
<path d="M187 168H231" stroke="#1F1F1F" stroke-width="1.08319" stroke-linecap="round"/>
<path d="M187 180H231" stroke="#1F1F1F" stroke-width="1.08319" stroke-linecap="round"/>
<path d="M187 192H209" stroke="#1F1F1F" stroke-width="1.08319" stroke-linecap="round"/>
<path d="M293 148L279 169H307L293 148Z" fill="white"/>
<path d="M279 169L278.584 168.723L278.066 169.5H279V169ZM293 148L293.416 147.723C293.323 147.584 293.167 147.5 293 147.5C292.833 147.5 292.677 147.584 292.584 147.723L293 148ZM307 169V169.5H307.934L307.416 168.723L307 169ZM279.416 169.277L293.416 148.277L292.584 147.723L278.584 168.723L279.416 169.277ZM279 169.5H307V168.5H279V169.5ZM307.416 168.723L293.416 147.723L292.584 148.277L306.584 169.277L307.416 168.723Z" fill="#1F1F1F"/>
<mask id="path-11-inside-1_1906_1790" fill="white">
<path d="M279 168C277.895 168 276.987 168.899 277.125 169.995C277.566 173.503 279.16 176.787 281.686 179.314C284.687 182.314 288.757 184 293 184C297.243 184 301.313 182.314 304.314 179.314C306.84 176.787 308.434 173.503 308.875 169.995C309.013 168.899 308.105 168 307 168L293 168L279 168Z"/>
</mask>
<path d="M279 168C277.895 168 276.987 168.899 277.125 169.995C277.566 173.503 279.16 176.787 281.686 179.314C284.687 182.314 288.757 184 293 184C297.243 184 301.313 182.314 304.314 179.314C306.84 176.787 308.434 173.503 308.875 169.995C309.013 168.899 308.105 168 307 168L293 168L279 168Z" fill="#FCBD00" stroke="#1F1F1F" stroke-width="2" mask="url(#path-11-inside-1_1906_1790)"/>
<path d="M252 148L238 169H266L252 148Z" fill="white" stroke="#1F1F1F" stroke-linecap="round" stroke-linejoin="round"/>
<mask id="path-13-inside-2_1906_1790" fill="white">
<path d="M238 168C236.895 168 235.987 168.899 236.125 169.995C236.566 173.503 238.16 176.787 240.686 179.314C243.687 182.314 247.757 184 252 184C256.243 184 260.313 182.314 263.314 179.314C265.84 176.787 267.434 173.503 267.875 169.995C268.013 168.899 267.105 168 266 168L252 168L238 168Z"/>
</mask>
<path d="M238 168C236.895 168 235.987 168.899 236.125 169.995C236.566 173.503 238.16 176.787 240.686 179.314C243.687 182.314 247.757 184 252 184C256.243 184 260.313 182.314 263.314 179.314C265.84 176.787 267.434 173.503 267.875 169.995C268.013 168.899 267.105 168 266 168L252 168L238 168Z" fill="#FCBD00" stroke="#1F1F1F" stroke-width="2" mask="url(#path-13-inside-2_1906_1790)"/>
<path d="M272 203L272 137" stroke="#1F1F1F" stroke-linecap="round"/>
<path d="M252 148L293 148" stroke="#1F1F1F" stroke-linecap="round"/>
<circle cx="272" cy="134" r="3.5" fill="#FCBD00" stroke="#1F1F1F"/>
<path d="M283 214.5H283.5V214C283.5 210.95 282.288 208.025 280.132 205.868C277.975 203.712 275.05 202.5 272 202.5C268.95 202.5 266.025 203.712 263.868 205.868C261.712 208.025 260.5 210.95 260.5 214L260.5 214.5H261L283 214.5Z" fill="#FCBD00" stroke="#1F1F1F"/>
<g filter="url(#filter1_b_1906_1790)">
<circle cx="145" cy="186" r="28" fill="white"/>
<circle cx="145" cy="186" r="27.5" stroke="#1F1F1F"/>
</g>
<path d="M145 189.166L145 182.966L160.6 182.966C160.833 184.016 161.016 185 161.016 186.383C161.016 195.9 154.633 202.666 145.016 202.666C135.8 202.666 128.333 195.2 128.333 186C128.333 176.8 135.8 169.333 145 169.333C149.5 169.333 153.266 170.983 156.15 173.683L151.416 178.283C150.216 177.15 148.133 175.8 145 175.8C139.483 175.8 134.983 180.383 134.983 186C134.983 191.616 139.483 196.2 145 196.2C151.383 196.2 153.733 191.783 154.166 189.166L145 189.166V189.166Z" fill="#1F1F1F"/>
<rect x="90" y="214" width="220" height="1" rx="0.5" fill="#1F1F1F"/>
<defs>
<filter id="filter0_b_1906_1790" x="129.042" y="62.7203" width="67.9168" height="70.5593" filterUnits="userSpaceOnUse" color-interpolation-filters="sRGB">
<feFlood flood-opacity="0" result="BackgroundImageFix"/>
<feGaussianBlur in="BackgroundImageFix" stdDeviation="1.13788"/>
<feComposite in2="SourceAlpha" operator="in" result="effect1_backgroundBlur_1906_1790"/>
<feBlend mode="normal" in="SourceGraphic" in2="effect1_backgroundBlur_1906_1790" result="shape"/>
</filter>
<filter id="filter1_b_1906_1790" x="112.704" y="153.704" width="64.5926" height="64.5926" filterUnits="userSpaceOnUse" color-interpolation-filters="sRGB">
<feFlood flood-opacity="0" result="BackgroundImageFix"/>
<feGaussianBlur in="BackgroundImageFix" stdDeviation="2.14815"/>
<feComposite in2="SourceAlpha" operator="in" result="effect1_backgroundBlur_1906_1790"/>
<feBlend mode="normal" in="SourceGraphic" in2="effect1_backgroundBlur_1906_1790" result="shape"/>
</filter>
<clipPath id="clip0_1906_1790">
<rect width="42" height="42" fill="white" transform="translate(189 102)"/>
</clipPath>
</defs>
</svg>
