<svg width="416" height="276" viewBox="0 0 416 276" fill="none" xmlns="http://www.w3.org/2000/svg">
<path d="M240.607 166.7C244.667 161.767 252.333 161.767 256.393 166.7C258.287 169.002 261.15 170.38 264.132 170.425C270.523 170.521 275.302 176.51 273.974 182.758C273.354 185.673 274.061 188.769 275.885 191.127C279.795 196.18 278.089 203.648 272.372 206.506C269.706 207.839 267.724 210.323 267.017 213.217C265.501 219.423 258.595 222.747 252.795 220.062C250.089 218.81 246.911 218.81 244.205 220.062C238.405 222.747 231.499 219.423 229.983 213.217C229.276 210.323 227.294 207.839 224.628 206.506C218.911 203.648 217.205 196.18 221.115 191.127C222.939 188.769 223.646 185.673 223.026 182.758C221.698 176.51 226.477 170.521 232.868 170.425C235.85 170.38 238.713 169.002 240.607 166.7Z" fill="#FCBD00"/>
<rect x="115" y="105" width="51" height="51" rx="10" fill="#A8C7FA"/>
<circle cx="321" cy="132" r="4" fill="#1F1F1F"/>
<circle cx="100" cy="173" r="4" fill="#1F1F1F"/>
<path d="M280 173L314 139" stroke="#1F1F1F" stroke-linecap="round"/>
<rect x="149.5" y="68.5" width="92" height="137" rx="9.5" fill="white" stroke="#1F1F1F"/>
<g clip-path="url(#clip0_1906_1807)">
<path d="M219.04 103.546C219.04 101.844 218.887 100.208 218.604 98.6367H196V107.92H208.916C208.36 110.92 206.669 113.462 204.127 115.164V121.186H211.884C216.422 117.008 219.04 110.855 219.04 103.546Z" fill="#4285F4"/>
<path d="M196 127C202.48 127 207.913 124.85 211.884 121.185L204.127 115.163C201.978 116.603 199.229 117.454 196 117.454C189.749 117.454 184.458 113.232 182.571 107.56H174.553V113.778C178.502 121.621 186.618 127 196 127Z" fill="#34A853"/>
<path d="M182.571 107.56C182.091 106.12 181.818 104.582 181.818 103C181.818 101.418 182.091 99.8799 182.571 98.4399V92.2217H174.553C172.927 95.4617 172 99.1271 172 103C172 106.873 172.927 110.538 174.553 113.778L182.571 107.56Z" fill="#FBBC05"/>
<path d="M196 88.5455C199.524 88.5455 202.687 89.7564 205.175 92.1345L212.058 85.2509C207.902 81.3782 202.469 79 196 79C186.618 79 178.502 84.3782 174.553 92.2218L182.571 98.44C184.458 92.7673 189.749 88.5455 196 88.5455Z" fill="#EA4335"/>
</g>
<path d="M106 167L140 133" stroke="#1F1F1F" stroke-linecap="round"/>
<rect x="161" y="146" width="70" height="43" rx="10" stroke="#1F1F1F" stroke-linecap="round" stroke-dasharray="5 5"/>
<rect x="203.5" y="130.5" width="69" height="42" rx="9.5" fill="white" stroke="#1F1F1F" stroke-linecap="square"/>
<path d="M217 143H260" stroke="#1F1F1F" stroke-width="2" stroke-linecap="round"/>
<path d="M217 151H260" stroke="#1F1F1F" stroke-width="2" stroke-linecap="round"/>
<path d="M217 159H237" stroke="#1F1F1F" stroke-width="2" stroke-linecap="round"/>
<defs>
<clipPath id="clip0_1906_1807">
<rect width="48" height="48" fill="white" transform="translate(172 79)"/>
</clipPath>
</defs>
</svg>
