<svg width="24" height="25" viewBox="0 0 24 25" fill="none" xmlns="http://www.w3.org/2000/svg">
<g clip-path="url(#clip0_4777_38488)">
<path d="M13.3145 13L15.2642 15.2286L17.8859 16.904L18.343 13.0149L17.8859 9.21143L15.2139 10.6834L13.3145 13Z" fill="#0D652D"/>
<path d="M2 16.5429V19.8572C2 20.6149 2.61371 21.2286 3.37143 21.2286H6.68571L7.37143 18.7235L6.68571 16.5429L4.41143 15.8572L2 16.5429Z" fill="#1967D2"/>
<path d="M6.68571 4.77148L2 9.4572L4.41143 10.1429L6.68571 9.4572L7.36 7.3052L6.68571 4.77148Z" fill="#EA4335"/>
<path d="M6.68571 9.45721H2V16.5429H6.68571V9.45721Z" fill="#4285F4"/>
<path d="M20.8787 6.75552L17.8855 9.21152V16.9041L20.8913 19.3692C21.3416 19.7212 21.9998 19.4001 21.9998 18.8287V7.28581C21.9998 6.70638 21.3267 6.38867 20.8787 6.75552ZM13.3141 13.0001V16.543H6.68555V21.2287H16.5141C17.2718 21.2287 17.8855 20.615 17.8855 19.8572V16.9041L13.3141 13.0001Z" fill="#34A853"/>
<path d="M16.5141 4.77148H6.68555V9.4572H13.3141V13.0001L17.8855 9.21148V6.14291C17.8855 5.3852 17.2718 4.77148 16.5141 4.77148Z" fill="#F9AB00"/>
</g>
<defs>
<clipPath id="clip0_4777_38488">
<rect width="24" height="25" fill="white"/>
</clipPath>
</defs>
</svg>
