<svg width="24" height="24" viewBox="0 0 24 24" fill="none" xmlns="http://www.w3.org/2000/svg">
<path d="M4.80953 22C5.8089 22 6.61906 21.1899 6.61906 20.1905C6.61906 19.1911 5.8089 18.381 4.80953 18.381C3.81015 18.381 3 19.1911 3 20.1905C3 21.1899 3.81015 22 4.80953 22Z" fill="#EA4335"/>
<path d="M13.8572 8H5.09524C3.95238 8 3 8.95238 3 10.0952C3 11.2381 3.95238 12.1905 5.09524 12.1905H13.7619C14.9048 12.1905 15.8572 11.2381 15.8572 10.0952C15.9524 8.95238 15 8 13.8572 8Z" fill="#34A853"/>
<path d="M5.09524 12.1905C6.25241 12.1905 7.19049 11.2524 7.19049 10.0952C7.19049 8.93807 6.25241 8 5.09524 8C3.93807 8 3 8.93807 3 10.0952C3 11.2524 3.93807 12.1905 5.09524 12.1905Z" fill="#137333"/>
<path d="M9.09525 13.524H5C3.95238 13.524 3 14.3811 3 15.4288C3 16.4764 3.85714 17.4288 5 17.4288H9.09525C10.1429 17.4288 11.0953 16.5716 11.0953 15.4288C11 14.3811 10.1429 13.524 9.09525 13.524Z" fill="#FBBC04"/>
<path d="M9.09473 17.4288C10.1993 17.4288 11.0947 16.5333 11.0947 15.4288C11.0947 14.3242 10.1993 13.4288 9.09473 13.4288C7.99016 13.4288 7.09473 14.3242 7.09473 15.4288C7.09473 16.5333 7.99016 17.4288 9.09473 17.4288Z" fill="#EA8600"/>
<path d="M19.0953 2H5.28572C4.04762 2 3 3.04762 3 4.28572C3 5.52382 4.04762 6.57144 5.28572 6.57144H19.0953C20.3334 6.57144 21.381 5.52382 21.381 4.28572C21.381 3.04762 20.3334 2 19.0953 2Z" fill="#4285F4"/>
<path d="M19.0992 6.57144C20.3616 6.57144 21.3849 5.54809 21.3849 4.28572C21.3849 3.02335 20.3616 2 19.0992 2C17.8368 2 16.8135 3.02335 16.8135 4.28572C16.8135 5.54809 17.8368 6.57144 19.0992 6.57144Z" fill="#185ABC"/>
</svg>
