<svg width="80" height="80" viewBox="0 0 80 80" fill="none" xmlns="http://www.w3.org/2000/svg">
<g clip-path="url(#clip0_2652_40728)">
<g clip-path="url(#clip1_2652_40728)">
<path d="M22.0139 48.8508C33.2515 48.8508 42.3613 39.741 42.3613 28.5034C42.3613 17.2658 33.2515 8.15601 22.0139 8.15601C10.7763 8.15601 1.6665 17.2658 1.6665 28.5034C1.6665 39.741 10.7763 48.8508 22.0139 48.8508Z" fill="#4285F4"/>
<path d="M68.3334 30.4885C68.3334 32.7728 66.4813 34.6241 64.1977 34.6241C61.9141 34.6241 60.062 32.7728 60.062 30.4885C60.062 28.2042 61.9141 26.3528 64.1977 26.3528C66.4813 26.3528 68.3334 28.2042 68.3334 30.4885Z" fill="#34A853"/>
<path d="M60.8902 40.5795C60.8902 45.1473 57.1874 48.8506 52.619 48.8506C48.0503 48.8506 44.3477 45.1473 44.3477 40.5795C44.3477 36.0114 48.0504 32.3081 52.619 32.3081C57.1875 32.3081 60.8902 36.0115 60.8902 40.5795Z" fill="#EA4335"/>
<path d="M62.544 61.9193C62.544 67.4011 58.1008 71.8444 52.6185 71.8444C47.1362 71.8444 42.6929 67.4011 42.6929 61.9193C42.6929 56.4378 47.1361 51.9939 52.6185 51.9939C58.1008 51.9939 62.544 56.4378 62.544 61.9193Z" fill="#FBBC04"/>
</g>
</g>
<defs>
<clipPath id="clip0_2652_40728">
<path d="M0 20C0 8.95431 8.95431 0 20 0H60C71.0457 0 80 8.95431 80 20V60C80 71.0457 71.0457 80 60 80H20C8.95431 80 0 71.0457 0 60V20Z" fill="white"/>
</clipPath>
<clipPath id="clip1_2652_40728">
<rect width="66.6667" height="66.6667" fill="white" transform="translate(1.6665 6.66675)"/>
</clipPath>
</defs>
</svg>
