<svg width="25" height="25" viewBox="0 0 25 25" fill="none" xmlns="http://www.w3.org/2000/svg">
<g clip-path="url(#clip0_4777_38498)">
<path d="M3.4964 20.7596H6.79429V12.7504L2.08301 9.21695V19.3462C2.08301 20.1283 2.71668 20.7596 3.4964 20.7596Z" fill="#4285F4"/>
<path d="M18.1016 20.7596H21.3994C22.1816 20.7596 22.8128 20.1259 22.8128 19.3462V9.21695L18.1016 12.7504" fill="#34A853"/>
<path d="M18.1016 6.62574V12.7504L22.8128 9.21696V7.33244C22.8128 5.58455 20.8177 4.58811 19.4207 5.63637" fill="#FBBC04"/>
<path d="M6.79395 12.7504V6.62573L12.4475 10.8659L18.101 6.62573V12.7504L12.4475 16.9906" fill="#EA4335"/>
<path d="M2.08301 7.33244V9.21696L6.79429 12.7504V6.62574L5.47514 5.63637C4.07589 4.58811 2.08301 5.58455 2.08301 7.33244Z" fill="#C5221F"/>
</g>
<defs>
<clipPath id="clip0_4777_38498">
<rect width="25" height="25" fill="white"/>
</clipPath>
</defs>
</svg>
